<svg width="27" height="39" viewBox="0 0 27 39" fill="none" xmlns="http://www.w3.org/2000/svg">
<path d="M26.8241 32.301V38.5896H0.789917V33.2585L12.953 20.3708C14.0917 19.0597 14.9974 17.9037 15.6703 16.9031C16.3604 15.9024 16.8607 14.9967 17.1713 14.1858C17.4818 13.3577 17.6371 12.5986 17.6371 11.9084C17.6371 10.787 17.4559 9.83813 17.0936 9.06177C16.7486 8.2854 16.2396 7.69019 15.5668 7.27612C14.8939 6.86206 14.0744 6.65503 13.1083 6.65503C12.0731 6.65503 11.1846 6.92244 10.4427 7.45728C9.70089 7.99211 9.13155 8.73397 8.73474 9.68286C8.33793 10.6145 8.13953 11.6755 8.13953 12.866H0.0135498C0.0135498 10.5714 0.565633 8.48381 1.6698 6.60327C2.77397 4.70549 4.31807 3.19588 6.30212 2.07446C8.28617 0.935791 10.6066 0.366455 13.2635 0.366455C15.9895 0.366455 18.2754 0.79777 20.1215 1.6604C21.9675 2.52303 23.3649 3.75659 24.3138 5.36108C25.2627 6.96558 25.7372 8.89787 25.7372 11.158C25.7372 12.4347 25.5302 13.6682 25.1161 14.8586C24.7193 16.0491 24.1413 17.2309 23.3822 18.4041C22.6231 19.5772 21.7087 20.7763 20.639 22.0012C19.5694 23.2089 18.3617 24.4856 17.016 25.8313L11.3226 32.301H26.8241Z" fill="white"/>
</svg>
