<svg width="28" height="40" viewBox="0 0 28 40" fill="none" xmlns="http://www.w3.org/2000/svg">
<path d="M9.74866 16.3811H13.8634C15.0366 16.3811 16.0027 16.1741 16.7618 15.76C17.5382 15.3459 18.1075 14.7594 18.4698 14.0002C18.8494 13.2411 19.0392 12.3526 19.0392 11.3347C19.0392 10.4548 18.8667 9.66984 18.5216 8.97974C18.1766 8.28963 17.6503 7.74618 16.943 7.34937C16.2529 6.9353 15.3558 6.72827 14.2516 6.72827C13.458 6.72827 12.6989 6.89217 11.9742 7.21997C11.2669 7.53052 10.6889 7.98771 10.2404 8.59155C9.79179 9.17814 9.5675 9.8855 9.5675 10.7136H1.46741C1.46741 8.60881 2.03674 6.78866 3.17542 5.25317C4.33134 3.71769 5.85819 2.53589 7.75598 1.70776C9.67102 0.862386 11.7586 0.439697 14.0187 0.439697C16.6238 0.439697 18.9098 0.85376 20.8766 1.68188C22.8606 2.49276 24.3961 3.70044 25.483 5.30493C26.5872 6.89217 27.1393 8.85897 27.1393 11.2053C27.1393 12.4303 26.846 13.6121 26.2594 14.7507C25.6901 15.8722 24.8706 16.8728 23.8009 17.7527C22.7485 18.6153 21.4891 19.3054 20.0226 19.823C18.5734 20.3233 16.9602 20.5735 15.1832 20.5735H9.74866V16.3811ZM9.74866 22.4626V18.3479H15.1832C17.15 18.3479 18.9098 18.5722 20.4625 19.0208C22.0153 19.4693 23.3351 20.1163 24.422 20.9617C25.5089 21.807 26.337 22.8336 26.9064 24.0413C27.4757 25.2489 27.7604 26.5946 27.7604 28.0784C27.7604 29.8381 27.4153 31.4081 26.7252 32.7883C26.0351 34.1685 25.069 35.3331 23.8268 36.282C22.5846 37.2309 21.1267 37.9555 19.4532 38.4558C17.7797 38.9389 15.9682 39.1804 14.0187 39.1804C12.4487 39.1804 10.8873 38.9648 9.33459 38.5334C7.78186 38.1021 6.37577 37.4465 5.11633 36.5667C3.85689 35.6695 2.84762 34.5395 2.0885 33.1765C1.32939 31.7963 0.949829 30.1573 0.949829 28.2595H9.04993C9.04993 29.1394 9.27421 29.933 9.72278 30.6404C10.1886 31.3305 10.8183 31.8826 11.6119 32.2966C12.4228 32.6934 13.3027 32.8918 14.2516 32.8918C15.3903 32.8918 16.3564 32.6848 17.15 32.2708C17.9609 31.8394 18.5734 31.2528 18.9874 30.511C19.4187 29.7691 19.6344 28.9151 19.6344 27.949C19.6344 26.6378 19.4015 25.5854 18.9357 24.7917C18.4871 23.9809 17.8315 23.3943 16.9689 23.032C16.1062 22.6524 15.0711 22.4626 13.8634 22.4626H9.74866Z" fill="white"/>
</svg>
