<svg width="344" height="65" viewBox="0 0 344 65" fill="none" xmlns="http://www.w3.org/2000/svg">
<path d="M55.5511 38.8831V31.5555H86.8448V38.8831H55.5511ZM55.5511 44.4412H86.8448V51.7689H64.3509V57.2646H86.8448V64.5923H55.5511V44.4412Z" fill="#9E4A6C"/>
<path d="M100.7 53.0774C100.657 53.6452 100.731 54.2158 100.916 54.7538C101.1 55.2918 101.393 55.7859 101.775 56.2054C102.194 56.5812 102.683 56.8695 103.213 57.0535C103.744 57.2374 104.305 57.3135 104.865 57.2771H123.193V64.6048H103.357C101.781 64.6203 100.213 64.3848 98.7097 63.9069C97.3762 63.4802 96.1466 62.7754 95.1008 61.8382C94.0792 60.8924 93.2773 59.7306 92.7525 58.4361C92.1729 56.9615 91.8873 55.3862 91.9121 53.8002V31.5555H100.675L100.7 53.0774Z" fill="#9E4A6C"/>
<path d="M134.824 53.0774C134.781 53.6452 134.854 54.2158 135.039 54.7538C135.224 55.2918 135.517 55.7859 135.899 56.2054C136.318 56.5812 136.807 56.8695 137.337 57.0535C137.868 57.2374 138.429 57.3135 138.989 57.2771H157.317V64.6048H137.543C135.967 64.6203 134.398 64.3848 132.895 63.9069C131.571 63.477 130.35 62.7724 129.311 61.8382C128.29 60.8924 127.488 59.7306 126.963 58.4361C126.383 56.9615 126.098 55.3862 126.123 53.8002V31.5555H134.885L134.824 53.0774Z" fill="#9E4A6C"/>
<path d="M162.014 44.4412H183.692C184.671 44.462 185.64 44.235 186.51 43.7807C186.896 43.5914 187.219 43.2923 187.438 42.9203C187.658 42.5483 187.765 42.1196 187.746 41.6871C187.769 41.2456 187.665 40.8068 187.445 40.424C187.226 40.0413 186.901 39.7311 186.51 39.5312C185.637 39.0866 184.67 38.8642 183.692 38.8831H162.014V31.5555H185.188C186.661 31.5395 188.128 31.7496 189.538 32.1786C190.805 32.5567 191.991 33.1695 193.036 33.9856C194.034 34.785 194.855 35.787 195.446 36.9266C196.099 38.185 196.518 39.5535 196.682 40.9643V42.3102C196.55 43.7155 196.151 45.082 195.507 46.3354C194.902 47.4901 194.059 48.5012 193.036 49.3014C191.989 50.1308 190.793 50.7486 189.513 51.1209C188.099 51.5293 186.634 51.7307 185.163 51.719H170.826V64.5549H162.014V44.4412Z" fill="#9E4A6C"/>
<path d="M209.177 53.0774C209.134 53.6452 209.208 54.2158 209.393 54.7538C209.578 55.2918 209.87 55.7859 210.252 56.2054C210.673 56.5817 211.164 56.8694 211.697 57.0513C212.23 57.2332 212.793 57.3058 213.354 57.2646H231.695V64.5923H211.921C210.349 64.6088 208.784 64.3733 207.286 63.8945C205.949 63.468 204.715 62.7632 203.665 61.8258C202.647 60.8792 201.849 59.7174 201.329 58.4236C200.743 56.9508 200.457 55.3742 200.488 53.7877V31.5555H209.251L209.177 53.0774Z" fill="#9E4A6C"/>
<path d="M252.743 39.5561L244.327 64.6048H235.564L246.811 31.5555H258.676L269.972 64.6048H261.172L252.743 39.5561Z" fill="#9E4A6C"/>
<path d="M257.143 57.2771H248.343V64.6173H257.143V57.2771Z" fill="#4B9B6B"/>
<path d="M298.633 51.8187H307.433V53.8002C307.464 55.3867 307.178 56.9633 306.593 58.4361C306.068 59.7338 305.261 60.8964 304.232 61.8382C303.171 62.7736 301.93 63.4779 300.586 63.9069C299.087 64.3857 297.523 64.6213 295.951 64.6048H284.222C282.646 64.6203 281.078 64.3848 279.575 63.9069C278.242 63.4802 277.012 62.7754 275.966 61.8382C274.945 60.8924 274.143 59.7306 273.618 58.4361C273.038 56.9615 272.753 55.3862 272.778 53.8002V42.3102C272.75 40.7321 273.036 39.1644 273.618 37.6992C274.146 36.4138 274.948 35.261 275.966 34.322C277.034 33.417 278.275 32.7426 279.612 32.3406C281.111 31.8421 282.681 31.5978 284.259 31.6178H295.988C297.562 31.5969 299.129 31.8412 300.623 32.3406C301.966 32.7835 303.206 33.4957 304.269 34.4342C305.295 35.3691 306.101 36.5228 306.63 37.8114C307.218 39.2748 307.504 40.8438 307.47 42.4224V44.4038H298.633V43.1576C298.673 42.5871 298.597 42.0145 298.41 41.4746C298.223 40.9347 297.929 40.4388 297.546 40.0172C296.699 39.2681 295.592 38.8872 294.468 38.9579H285.817C285.258 38.9213 284.697 38.9959 284.167 39.1777C283.637 39.3594 283.148 39.6447 282.727 40.0172C282.346 40.4398 282.054 40.9361 281.869 41.476C281.684 42.0159 281.61 42.588 281.652 43.1576V53.1273C281.609 53.6951 281.683 54.2656 281.868 54.8037C282.052 55.3417 282.345 55.8357 282.727 56.2552C283.146 56.6317 283.634 56.9203 284.165 57.1043C284.695 57.2883 285.257 57.364 285.817 57.327H294.468C295.026 57.363 295.585 57.2868 296.114 57.1028C296.642 56.9188 297.129 56.6307 297.546 56.2552C297.93 55.8368 298.224 55.3432 298.411 54.8051C298.599 54.267 298.674 53.6959 298.633 53.1273V51.8187Z" fill="#9E4A6C"/>
<path d="M312.562 38.8831V31.5555H343.868V38.8831H312.562ZM312.562 44.4412H343.868V51.7689H321.374V57.2646H343.868V64.5923H312.562V44.4412Z" fill="#9E4A6C"/>
<path d="M16.9902 56.5917L21.4396 43.1327L17.6082 31.5555H26.1732L34.6022 56.5917L52.2883 0.21344H62.5712L40.5346 64.6048H28.7192L25.6047 55.5324L22.9227 64.6048H11.1567L0.0333252 31.5555H8.68481L16.9902 56.5917Z" fill="#9E4A6C"/>
</svg>
