<svg width="578" height="53" viewBox="0 0 578 53" fill="none" xmlns="http://www.w3.org/2000/svg">
<path d="M11.7021 37.3181C11.0251 39.0616 9.98405 40.3396 8.5791 41.1521C7.17415 41.9477 5.13444 42.3455 2.45996 42.3455H0.733398V36.2009H1.16504C2.33301 36.2009 3.264 35.9809 3.95801 35.5408C4.63509 35.1007 5.11751 34.432 5.40527 33.5349C5.69303 32.6208 5.83691 31.2413 5.83691 29.3962V16.9802H1.0127V10.8357H18.6846C23.5596 10.8357 27.055 11.8682 29.1709 13.9333C31.3037 15.9815 32.3701 19.3839 32.3701 24.1404V42.3455H25.4893V24.2419C25.4893 21.5336 24.9391 19.6462 23.8389 18.5798C22.7386 17.5134 20.8851 16.9802 18.2783 16.9802H12.6924V30.2849C12.6924 33.2133 12.3623 35.5577 11.7021 37.3181ZM59.8936 16.9802V42.3455H53.0381V16.9802H35.9756V10.8357H63.8037V16.9802H59.8936ZM98.2334 36.2009V42.3455H68.8564V36.2009H88.001V24.9783C88.001 22.016 87.4424 19.9425 86.3252 18.7576C85.2249 17.5727 83.3376 16.9802 80.6631 16.9802H70.0498V10.8357H80.7646C85.7074 10.8357 89.2874 11.8682 91.5049 13.9333C93.7393 15.9985 94.8564 19.3839 94.8564 24.0896V36.2009H98.2334ZM111.36 10.8357V42.3455H104.505V10.8357H111.36ZM116.819 36.7849C121.203 36.7003 124.597 36.2686 127.001 35.49L118.013 10.8357H125.452L132.942 32.4177C134.229 31.3852 135.253 29.9802 136.015 28.2029C136.793 26.4086 137.36 24.0981 137.716 21.2712C138.071 18.4275 138.249 14.949 138.249 10.8357H145.308C145.308 18.9438 144.41 25.2576 142.616 29.7771C141.414 32.824 139.73 35.3292 137.563 37.2927C135.397 39.2393 132.621 40.712 129.235 41.7107C125.85 42.7094 121.711 43.3188 116.819 43.5388V36.7849ZM172.146 10.8357V42.3455H165.29V10.8357H172.146ZM194.819 23.2517V42.3455H178.392V36.2009H187.964V24.572C187.964 22.2869 187.812 20.6534 187.507 19.6716C187.202 18.7068 186.694 18.0212 185.983 17.615C185.272 17.1918 184.231 16.9802 182.86 16.9802H179.839V10.8357H184.155C187.067 10.8357 189.242 11.225 190.681 12.0037C192.119 12.7823 193.169 14.0603 193.829 15.8376C194.489 17.615 194.819 20.0863 194.819 23.2517ZM203.909 36.4802C208.039 35.1261 211.374 33.4164 213.913 31.3513C215.674 29.9464 217.019 28.4145 217.95 26.7556C218.881 25.0798 219.347 23.3279 219.347 21.4998C219.347 18.4867 217.459 16.9802 213.685 16.9802H200.786V0.0700684H207.794V10.8357H214.827C222.444 10.8357 226.253 14.1619 226.253 20.8142C226.253 23.9965 225.5 26.9757 223.993 29.7517C222.504 32.5108 220.371 34.9737 217.595 37.1404C213.938 39.9841 209.377 42.2185 203.909 43.8435V36.4802ZM259.819 39.2224C258.431 40.0011 256.722 40.6443 254.69 41.1521C252.676 41.643 250.162 42.0069 247.149 42.2439C244.153 42.4809 240.489 42.5994 236.155 42.5994L230.214 10.8357H237.399L240.167 26.0193L242.021 25.6638C243.172 25.4438 244.018 25.0714 244.56 24.5466C245.118 24.005 245.541 23.2009 245.829 22.1345C245.965 21.6098 246.091 20.8819 246.21 19.9509C246.345 19.003 246.472 17.852 246.591 16.4978L246.972 10.8357H253.979L253.218 19.5193C253.116 20.7042 252.972 21.7706 252.786 22.7185C252.6 23.6664 252.363 24.4874 252.075 25.1814C251.517 26.5694 250.729 27.6528 249.714 28.4314C248.715 29.21 247.124 29.8617 244.94 30.3865L241.132 31.2751L242.173 36.4802H242.782C244.898 36.4802 246.769 36.3956 248.394 36.2263C250.035 36.0401 251.432 35.7608 252.583 35.3884C254.123 34.9145 255.393 34.2543 256.392 33.408C257.39 32.5447 258.177 31.4021 258.753 29.9802C259.328 28.5414 259.735 26.7218 259.972 24.5212L261.571 10.8357H268.655L267.03 24.3435C266.692 27.255 266.218 29.6671 265.608 31.5798C265.016 33.4926 264.246 35.0499 263.298 36.2517C262.367 37.4366 261.207 38.4268 259.819 39.2224ZM296.128 37.3181C295.451 39.0616 294.41 40.3396 293.005 41.1521C291.6 41.9477 289.56 42.3455 286.886 42.3455H285.159V36.2009H285.591C286.759 36.2009 287.69 35.9809 288.384 35.5408C289.061 35.1007 289.543 34.432 289.831 33.5349C290.119 32.6208 290.263 31.2413 290.263 29.3962V16.9802H285.438V10.8357H303.11C307.985 10.8357 311.481 11.8682 313.597 13.9333C315.729 15.9815 316.796 19.3839 316.796 24.1404V42.3455H309.915V24.2419C309.915 21.5336 309.365 19.6462 308.265 18.5798C307.164 17.5134 305.311 16.9802 302.704 16.9802H297.118V30.2849C297.118 33.2133 296.788 35.5577 296.128 37.3181ZM346.833 27.2126C346.833 37.3012 341.687 42.3455 331.396 42.3455H322.966V36.2009H331.015C334.045 36.2009 336.287 35.4392 337.743 33.9158C339.199 32.3923 339.927 30.0733 339.927 26.9587V26.2732C339.927 23.1078 339.199 20.7719 337.743 19.2654C336.287 17.7419 334.078 16.9802 331.116 16.9802H322.966V10.8357H331.751C341.806 10.8357 346.833 15.863 346.833 25.9177V27.2126ZM373.95 24.0896V42.3455H367.069V24.0388C367.069 21.4151 366.502 19.587 365.368 18.5544C364.251 17.505 362.364 16.9802 359.706 16.9802H349.144V10.8357H360.112C363.447 10.8357 366.121 11.2843 368.136 12.1814C370.167 13.0616 371.64 14.475 372.554 16.4216C373.485 18.3513 373.95 20.9073 373.95 24.0896ZM380.729 36.7849C385.114 36.7003 388.507 36.2686 390.911 35.49L381.923 10.8357H389.362L396.853 32.4177C398.139 31.3852 399.163 29.9802 399.925 28.2029C400.703 26.4086 401.271 24.0981 401.626 21.2712C401.981 18.4275 402.159 14.949 402.159 10.8357H409.218C409.218 18.9438 408.321 25.2576 406.526 29.7771C405.325 32.824 403.64 35.3292 401.474 37.2927C399.307 39.2393 396.531 40.712 393.146 41.7107C389.76 42.7094 385.621 43.3188 380.729 43.5388V36.7849ZM432.552 10.6833C436.868 10.6833 440.008 11.9529 441.972 14.4919C443.935 17.0141 444.917 20.9581 444.917 26.324V42.3455H428.54V36.2009H438.011V26.8572C438.011 23.2856 437.579 20.7296 436.716 19.1892C435.869 17.6319 434.371 16.8533 432.222 16.8533C430.241 16.8533 428.574 17.8435 427.22 19.824C425.866 21.8552 424.604 25.2406 423.437 29.9802L420.364 42.3455H413.052L416.479 29.1931C416.903 27.602 417.309 26.1801 417.698 24.9275C418.104 23.6749 418.494 22.6 418.866 21.7029L412.569 11.1912H420.161L422.548 15.6599C423.563 14.1026 424.951 12.8839 426.712 12.0037C428.489 11.1235 430.436 10.6833 432.552 10.6833ZM480.616 24.0896V42.3455H473.735V24.0388C473.735 21.449 473.185 19.6293 472.085 18.5798C470.985 17.5134 469.072 16.9802 466.347 16.9802H453.474V10.8357H466.778C470.113 10.8357 472.787 11.2843 474.802 12.1814C476.833 13.0785 478.306 14.5004 479.22 16.447C480.151 18.3767 480.616 20.9242 480.616 24.0896ZM460.837 23.2009V42.3455H453.981V23.2009H460.837ZM523.501 24.0896V52.1208H516.62V24.0388C516.62 21.4151 516.053 19.587 514.919 18.5544C513.802 17.505 511.914 16.9802 509.257 16.9802H498.694V10.8357H509.663C512.998 10.8357 515.672 11.2843 517.687 12.1814C519.718 13.0616 521.19 14.475 522.104 16.4216C523.035 18.3513 523.501 20.9073 523.501 24.0896ZM537.872 10.8357V27.5681H531.017V10.8357H537.872ZM553.716 33.1541L552.142 42.3455H545.032L547.165 31.8337C547.774 28.9223 548.333 26.8487 548.841 25.613C549.349 24.3604 549.975 23.3702 550.72 22.6423C551.481 21.8975 552.531 21.2374 553.868 20.6619L546.53 10.8357H554.858L565.142 25.0798C566.208 24.115 567.021 22.9809 567.579 21.6775C568.138 20.3741 568.535 18.6137 568.772 16.3962L569.306 10.8357H576.313L575.704 16.8533C575.518 18.5629 575.179 20.0779 574.688 21.3982C574.35 22.2953 573.935 23.1417 573.444 23.9373C572.953 24.7159 572.31 25.5453 571.515 26.4255C570.736 27.2888 569.703 28.296 568.417 29.447L577.888 42.3455H569.61L556.94 24.7751C556.043 25.2999 555.4 26.0616 555.011 27.0603C554.825 27.5681 554.621 28.3298 554.401 29.3455C554.181 30.3611 553.953 31.6306 553.716 33.1541Z" fill="#9E4A6C"/>
</svg>
