<svg width="811" height="46" viewBox="0 0 811 46" fill="none" xmlns="http://www.w3.org/2000/svg">
<g filter="url(#filter0_i_5_63)">
<path d="M6.09766 9.48322V45.2108H0.165039V9.48322H6.09766ZM19.6768 9.48322V36.7513H13.7441V9.48322H19.6768ZM45.9121 23.6556C45.9121 32.386 41.459 36.7513 32.5527 36.7513H25.2578V31.4339H32.2231C34.8452 31.4339 36.7861 30.7747 38.0459 29.4564C39.3057 28.138 39.9355 26.1312 39.9355 23.4359V22.8426C39.9355 20.1033 39.3057 18.0818 38.0459 16.7781C36.7861 15.4598 34.8745 14.8006 32.311 14.8006H25.2578V9.48322H32.8604C41.5615 9.48322 45.9121 13.8338 45.9121 22.535V23.6556ZM64.2153 20.2278V36.7513H49.999V31.4339H58.2827V21.3704C58.2827 19.3929 58.1509 17.9793 57.8872 17.1297C57.6235 16.2947 57.1841 15.7015 56.5688 15.3499C55.9536 14.9837 55.0527 14.8006 53.8662 14.8006H51.2515V9.48322H54.9868C57.5063 9.48322 59.3887 9.82013 60.6338 10.494C61.8789 11.1678 62.7871 12.2737 63.3584 13.8118C63.9297 15.3499 64.2153 17.4886 64.2153 20.2278ZM94.6694 20.9529V36.7513H88.7148V20.909C88.7148 18.6678 88.2388 17.0931 87.2866 16.1849C86.3345 15.262 84.6792 14.8006 82.3208 14.8006H71.1807V9.48322H82.6943C85.5801 9.48322 87.8945 9.8714 89.6377 10.6478C91.3955 11.4241 92.6699 12.6546 93.4609 14.3392C94.2666 16.0091 94.6694 18.2137 94.6694 20.9529ZM77.5527 20.1839V36.7513H71.6201V20.1839H77.5527ZM138.263 20.9529V36.7513H113.28V9.48322H125.98C130.316 9.48322 133.444 10.3768 135.363 12.1639C137.296 13.9363 138.263 16.866 138.263 20.9529ZM119.213 31.4339H132.309V21.6341C132.309 19.1439 131.84 17.386 130.902 16.3607C129.965 15.3206 128.324 14.8006 125.98 14.8006H119.213V31.4339ZM151.645 9.48322V36.7513H145.712V9.48322H151.645ZM182.428 18.5359C182.428 21.3192 181.864 23.9193 180.736 26.3362C179.608 28.7532 177.953 30.9212 175.771 32.8401C173.603 34.7591 170.944 36.3631 167.794 37.6522V31.346C170.548 30.0569 172.672 28.3431 174.167 26.2044C175.675 24.0511 176.43 21.7293 176.43 19.2391C176.43 17.5984 176.02 16.4485 175.199 15.7894C174.379 15.1302 172.943 14.8006 170.893 14.8006H158.17V9.48322H171.75C175.47 9.48322 178.18 10.1937 179.879 11.6146C181.579 13.0208 182.428 15.3279 182.428 18.5359ZM165.224 20.0081V45.2108H159.291V20.0081H165.224ZM202.841 9.35138C206.576 9.35138 209.293 10.45 210.993 12.6473C212.692 14.8299 213.542 18.243 213.542 22.8865V36.7513H199.369V31.4339H207.565V23.348C207.565 20.2571 207.191 18.0452 206.444 16.7122C205.712 15.3646 204.416 14.6907 202.555 14.6907C200.841 14.6907 199.398 15.5477 198.227 17.2615C197.055 19.0193 195.963 21.949 194.953 26.0506L192.294 36.7513H185.966L188.932 25.3694C189.298 23.9925 189.65 22.762 189.987 21.678C190.338 20.5941 190.675 19.6639 190.998 18.8875L185.548 9.79083H192.118L194.184 13.658C195.062 12.3104 196.264 11.2557 197.787 10.494C199.325 9.73224 201.01 9.35138 202.841 9.35138ZM220.924 31.6756C224.499 30.5037 227.384 29.0242 229.582 27.2371C231.105 26.0213 232.27 24.6956 233.075 23.2601C233.881 21.8099 234.284 20.2938 234.284 18.7117C234.284 16.1043 232.65 14.8006 229.384 14.8006H218.222V0.166809H224.286V9.48322H230.373C236.964 9.48322 240.26 12.3616 240.26 18.1185C240.26 20.8724 239.608 23.4505 238.305 25.8528C237.016 28.2405 235.17 30.3719 232.768 32.2469C229.604 34.7078 225.656 36.6414 220.924 38.0477V31.6756ZM264.32 9.48322V36.7513H258.388V9.48322H264.32ZM269.044 31.9393C272.838 31.866 275.775 31.4925 277.855 30.8187L270.077 9.48322H276.515L282.997 28.16C284.11 27.2664 284.997 26.0506 285.656 24.5125C286.33 22.9598 286.82 20.9603 287.128 18.514C287.436 16.053 287.589 13.0428 287.589 9.48322H293.698C293.698 16.4998 292.921 21.9637 291.369 25.8748C290.329 28.5115 288.871 30.6795 286.996 32.3787C285.121 34.0633 282.719 35.3377 279.789 36.202C276.859 37.0662 273.278 37.5936 269.044 37.784V31.9393ZM305.717 9.48322V23.9632H299.784V9.48322H305.717ZM316.835 9.48322C318.139 9.48322 319.223 9.58575 320.087 9.79083C320.966 9.99591 321.698 10.3548 322.284 10.8675C322.885 11.3655 323.405 12.054 323.844 12.9329C324.181 13.5921 324.533 14.515 324.899 15.7015C325.265 16.8734 325.653 18.3089 326.063 20.0081L329.931 36.7513H324.02L321.823 26.9515C320.753 27.2298 319.999 27.6033 319.56 28.0721C319.12 28.5408 318.747 29.2806 318.439 30.2913C318.38 30.4964 318.285 30.8553 318.153 31.368C318.036 31.866 317.89 32.5106 317.714 33.3016L316.967 36.7513H310.924L311.825 32.7962C312.089 31.5804 312.353 30.533 312.616 29.6541C312.88 28.7606 313.151 28.0281 313.429 27.4568C313.971 26.3143 314.667 25.4061 315.517 24.7322C316.381 24.0438 317.567 23.4725 319.076 23.0184L320.834 22.491C320.629 21.5096 320.424 20.6307 320.219 19.8543C320.014 19.0779 319.823 18.4114 319.647 17.8548C319.281 16.7269 318.856 15.9359 318.373 15.4818C317.89 15.0276 317.106 14.8006 316.022 14.8006H313.056V9.48322H316.835ZM341.95 32.4007C341.364 33.9095 340.463 35.0154 339.247 35.7186C338.031 36.407 336.266 36.7513 333.952 36.7513H332.458V31.4339H332.831C333.842 31.4339 334.647 31.2435 335.248 30.8626C335.834 30.4818 336.251 29.9031 336.5 29.1268C336.75 28.3358 336.874 27.1419 336.874 25.5452V14.8006H332.699V9.48322H347.992C352.211 9.48322 355.236 10.3768 357.067 12.1639C358.913 13.9363 359.835 16.8807 359.835 20.9969V36.7513H353.881V21.0848C353.881 18.741 353.405 17.1077 352.453 16.1849C351.5 15.262 349.896 14.8006 347.641 14.8006H342.807V26.3143C342.807 28.8484 342.521 30.8773 341.95 32.4007ZM390.29 34.0486C389.088 34.7225 387.609 35.2791 385.851 35.7186C384.108 36.1434 381.933 36.4583 379.325 36.6634C376.732 36.8685 373.561 36.971 369.811 36.971L364.669 9.48322H370.888L373.283 22.6229L374.887 22.3152C375.883 22.1248 376.615 21.8026 377.084 21.3484C377.567 20.8797 377.934 20.1839 378.183 19.261C378.3 18.8069 378.41 18.1771 378.512 17.3714C378.629 16.5511 378.739 15.555 378.842 14.3831L379.171 9.48322H385.236L384.577 16.9979C384.489 18.0233 384.364 18.9461 384.203 19.7664C384.042 20.5867 383.837 21.2972 383.588 21.8978C383.104 23.0989 382.423 24.0364 381.544 24.7103C380.68 25.3841 379.303 25.9481 377.414 26.4022L374.118 27.1712L375.019 31.6756H375.546C377.377 31.6756 378.996 31.6024 380.402 31.4559C381.823 31.2947 383.031 31.053 384.027 30.7308C385.36 30.3206 386.459 29.7493 387.323 29.0169C388.188 28.2698 388.869 27.2811 389.367 26.0506C389.865 24.8055 390.216 23.2308 390.421 21.3265L391.806 9.48322H397.936L396.53 21.1727C396.237 23.6922 395.827 25.7796 395.299 27.4349C394.787 29.0901 394.12 30.4378 393.3 31.4778C392.494 32.5032 391.491 33.3602 390.29 34.0486ZM418.173 9.48322C419.477 9.48322 420.561 9.58575 421.425 9.79083C422.304 9.99591 423.036 10.3548 423.622 10.8675C424.223 11.3655 424.743 12.054 425.182 12.9329C425.519 13.5921 425.871 14.515 426.237 15.7015C426.603 16.8734 426.991 18.3089 427.401 20.0081L431.269 36.7513H425.358L423.161 26.9515C422.091 27.2298 421.337 27.6033 420.897 28.0721C420.458 28.5408 420.084 29.2806 419.777 30.2913C419.718 30.4964 419.623 30.8553 419.491 31.368C419.374 31.866 419.228 32.5106 419.052 33.3016L418.305 36.7513H412.262L413.163 32.7962C413.427 31.5804 413.69 30.533 413.954 29.6541C414.218 28.7606 414.489 28.0281 414.767 27.4568C415.309 26.3143 416.005 25.4061 416.854 24.7322C417.719 24.0438 418.905 23.4725 420.414 23.0184L422.172 22.491C421.967 21.5096 421.762 20.6307 421.557 19.8543C421.352 19.0779 421.161 18.4114 420.985 17.8548C420.619 16.7269 420.194 15.9359 419.711 15.4818C419.228 15.0276 418.444 14.8006 417.36 14.8006H414.394V9.48322H418.173ZM442.211 9.48322V36.7513H436.278V9.48322H442.211ZM454.999 28.7972L453.637 36.7513H447.484L449.33 27.6546C449.857 25.1351 450.341 23.3406 450.78 22.2713C451.22 21.1873 451.762 20.3304 452.406 19.7005C453.065 19.056 453.974 18.4847 455.131 17.9866L448.781 9.48322H455.988L464.887 21.8099C465.81 20.9749 466.513 19.9935 466.996 18.8655C467.479 17.7376 467.824 16.2142 468.029 14.2952L468.49 9.48322H474.555L474.027 14.6907C473.866 16.1702 473.573 17.4813 473.148 18.6238C472.855 19.4002 472.497 20.1326 472.072 20.8211C471.647 21.4949 471.09 22.2127 470.402 22.9744C469.728 23.7215 468.834 24.5931 467.721 25.5892L475.917 36.7513H468.754L457.79 21.5462C457.013 22.0003 456.457 22.6595 456.12 23.5237C455.958 23.9632 455.783 24.6224 455.592 25.5013C455.402 26.3802 455.204 27.4788 454.999 28.7972ZM498.351 14.8006V36.7513H492.418V14.8006H477.653V9.48322H501.735V14.8006H498.351ZM507.184 31.6756C510.758 30.5037 513.644 29.0242 515.841 27.2371C517.365 26.0213 518.529 24.6956 519.335 23.2601C520.141 21.8099 520.543 20.2938 520.543 18.7117C520.543 16.1043 518.91 14.8006 515.644 14.8006H504.481V0.166809H510.546V9.48322H516.632C523.224 9.48322 526.52 12.3616 526.52 18.1185C526.52 20.8724 525.868 23.4505 524.564 25.8528C523.275 28.2405 521.43 30.3719 519.027 32.2469C515.863 34.7078 511.916 36.6414 507.184 38.0477V31.6756ZM549.657 9.48322V23.9632H543.725V9.48322H549.657ZM575.08 14.8006V36.7513H569.147V14.8006H554.381V9.48322H578.463V14.8006H575.08ZM602.084 23.6556C602.084 32.386 597.631 36.7513 588.725 36.7513H581.43V31.4339H588.395C591.017 31.4339 592.958 30.7747 594.218 29.4564C595.478 28.138 596.107 26.1312 596.107 23.4359V22.8426C596.107 20.1033 595.478 18.0818 594.218 16.7781C592.958 15.4598 591.046 14.8006 588.483 14.8006H581.43V9.48322H589.032C597.733 9.48322 602.084 13.8338 602.084 22.535V23.6556ZM625.551 9.48322V45.2108H619.618V9.48322H625.551ZM638.339 28.7972L636.977 36.7513H630.824L632.67 27.6546C633.197 25.1351 633.681 23.3406 634.12 22.2713C634.56 21.1873 635.102 20.3304 635.746 19.7005C636.405 19.056 637.313 18.4847 638.471 17.9866L632.121 9.48322H639.328L648.227 21.8099C649.149 20.9749 649.853 19.9935 650.336 18.8655C650.819 17.7376 651.164 16.2142 651.369 14.2952L651.83 9.48322H657.895L657.367 14.6907C657.206 16.1702 656.913 17.4813 656.488 18.6238C656.195 19.4002 655.836 20.1326 655.412 20.8211C654.987 21.4949 654.43 22.2127 653.742 22.9744C653.068 23.7215 652.174 24.5931 651.061 25.5892L659.257 36.7513H652.094L641.129 21.5462C640.353 22.0003 639.796 22.6595 639.459 23.5237C639.298 23.9632 639.123 24.6224 638.932 25.5013C638.742 26.3802 638.544 27.4788 638.339 28.7972ZM682.504 23.6556C682.504 32.386 678.051 36.7513 669.145 36.7513H661.85V31.4339H668.815C671.437 31.4339 673.378 30.7747 674.638 29.4564C675.897 28.138 676.527 26.1312 676.527 23.4359V22.8426C676.527 20.1033 675.897 18.0818 674.638 16.7781C673.378 15.4598 671.466 14.8006 668.903 14.8006H661.85V9.48322H669.452C678.153 9.48322 682.504 13.8338 682.504 22.535V23.6556ZM705.971 9.48322V36.7513H700.038V9.48322H705.971ZM725.592 20.2278V36.7513H711.376V31.4339H719.66V21.3704C719.66 19.3929 719.528 17.9793 719.264 17.1297C719 16.2947 718.561 15.7015 717.946 15.3499C717.331 14.9837 716.43 14.8006 715.243 14.8006H712.628V9.48322H716.364C718.883 9.48322 720.766 9.82013 722.011 10.494C723.256 11.1678 724.164 12.2737 724.735 13.8118C725.307 15.3499 725.592 17.4886 725.592 20.2278ZM751.168 21.678C751.168 19.2171 750.7 17.4593 749.762 16.4046C748.825 15.3353 747.184 14.8006 744.84 14.8006H738.974V36.7513H733.041V9.48322H744.84C749.176 9.48322 752.304 10.3841 754.223 12.1859C756.156 13.973 757.123 16.8953 757.123 20.9529V36.7513H751.168V21.678ZM776.525 20.2278V36.7513H762.309V31.4339H770.592V21.3704C770.592 19.3929 770.46 17.9793 770.197 17.1297C769.933 16.2947 769.494 15.7015 768.878 15.3499C768.263 14.9837 767.362 14.8006 766.176 14.8006H763.561V9.48322H767.296C769.816 9.48322 771.698 9.82013 772.943 10.494C774.188 11.1678 775.097 12.2737 775.668 13.8118C776.239 15.3499 776.525 17.4886 776.525 20.2278ZM789.115 28.7972L787.753 36.7513H781.601L783.446 27.6546C783.974 25.1351 784.457 23.3406 784.896 22.2713C785.336 21.1873 785.878 20.3304 786.522 19.7005C787.182 19.056 788.09 18.4847 789.247 17.9866L782.897 9.48322H790.104L799.003 21.8099C799.926 20.9749 800.629 19.9935 801.112 18.8655C801.596 17.7376 801.94 16.2142 802.145 14.2952L802.606 9.48322H808.671L808.144 14.6907C807.982 16.1702 807.689 17.4813 807.265 18.6238C806.972 19.4002 806.613 20.1326 806.188 20.8211C805.763 21.4949 805.207 22.2127 804.518 22.9744C803.844 23.7215 802.951 24.5931 801.837 25.5892L810.033 36.7513H802.87L791.906 21.5462C791.129 22.0003 790.573 22.6595 790.236 23.5237C790.075 23.9632 789.899 24.6224 789.708 25.5013C789.518 26.3802 789.32 27.4788 789.115 28.7972Z" fill="white"/>
</g>
<defs>
<filter id="filter0_i_5_63" x="0.165039" y="0.166809" width="809.868" height="49.0439" filterUnits="userSpaceOnUse" color-interpolation-filters="sRGB">
<feFlood flood-opacity="0" result="BackgroundImageFix"/>
<feBlend mode="normal" in="SourceGraphic" in2="BackgroundImageFix" result="shape"/>
<feColorMatrix in="SourceAlpha" type="matrix" values="0 0 0 0 0 0 0 0 0 0 0 0 0 0 0 0 0 0 127 0" result="hardAlpha"/>
<feOffset dy="4"/>
<feGaussianBlur stdDeviation="2"/>
<feComposite in2="hardAlpha" operator="arithmetic" k2="-1" k3="1"/>
<feColorMatrix type="matrix" values="0 0 0 0 0 0 0 0 0 0 0 0 0 0 0 0 0 0 0.25 0"/>
<feBlend mode="normal" in2="shape" result="effect1_innerShadow_5_63"/>
</filter>
</defs>
</svg>
