<svg width="344" height="115" viewBox="0 0 344 115" fill="none" xmlns="http://www.w3.org/2000/svg">
<path d="M19.607 16.5371V28.4736H0.731003V7.87109H10.3267C13.6027 7.87109 15.9657 8.54622 17.4156 9.89648C18.8765 11.2357 19.607 13.4492 19.607 16.5371ZM5.21342 24.4561H15.108V17.0518C15.108 15.1702 14.7538 13.8421 14.0455 13.0674C13.3371 12.2816 12.0975 11.8887 10.3267 11.8887H5.21342V24.4561ZM29.0201 7.87109V18.8115H24.5376V7.87109H29.0201ZM44.5425 15.9893V28.4736H33.8013V24.4561H40.0601V16.8525C40.0601 15.3584 39.9605 14.2904 39.7613 13.6484C39.5621 13.0176 39.23 12.5693 38.7652 12.3037C38.3003 12.027 37.6197 11.8887 36.7232 11.8887H34.7476V7.87109H37.5699C39.4735 7.87109 40.8957 8.12565 41.8365 8.63477C42.7772 9.14388 43.4634 9.97949 43.8951 11.1416C44.3267 12.3037 44.5425 13.9196 44.5425 15.9893ZM54.6529 7.87109V28.4736H50.1705V7.87109H54.6529ZM65.7261 25.1865C65.2834 26.3265 64.6027 27.1621 63.6841 27.6934C62.7655 28.2135 61.4318 28.4736 59.6832 28.4736H58.5542V24.4561H58.8365C59.6001 24.4561 60.2089 24.3122 60.6626 24.0244C61.1054 23.7367 61.4208 23.2995 61.6089 22.7129C61.7971 22.1152 61.8912 21.2132 61.8912 20.0068V11.8887H58.7369V7.87109H70.2915C73.479 7.87109 75.7645 8.54622 77.148 9.89648C78.5425 11.2357 79.2398 13.4603 79.2398 16.5703V28.4736H74.7408V16.6367C74.7408 14.8659 74.3811 13.6318 73.6617 12.9346C72.9423 12.2373 71.7304 11.8887 70.0259 11.8887H66.3736V20.5879C66.3736 22.5026 66.1578 24.0355 65.7261 25.1865ZM93.8824 15.9893V28.4736H83.1412V24.4561H89.3999V16.8525C89.3999 15.3584 89.3003 14.2904 89.1011 13.6484C88.9019 13.0176 88.5699 12.5693 88.105 12.3037C87.6402 12.027 86.9595 11.8887 86.063 11.8887H84.0874V7.87109H86.9097C88.8134 7.87109 90.2356 8.12565 91.1763 8.63477C92.1171 9.14388 92.8033 9.97949 93.2349 11.1416C93.6665 12.3037 93.8824 13.9196 93.8824 15.9893ZM116.892 16.5371V28.4736H112.393V16.5039C112.393 14.8105 112.033 13.6208 111.314 12.9346C110.595 12.2373 109.344 11.8887 107.562 11.8887H99.1451V7.87109H107.844C110.025 7.87109 111.773 8.16439 113.09 8.75098C114.419 9.33757 115.381 10.2673 115.979 11.54C116.588 12.8018 116.892 14.4674 116.892 16.5371ZM103.96 15.9561V28.4736H99.4771V15.9561H103.96ZM131.269 24.6387C133.97 23.7533 136.15 22.6354 137.81 21.2852C138.961 20.3665 139.841 19.3649 140.45 18.2803C141.058 17.1846 141.363 16.0391 141.363 14.8438C141.363 12.8737 140.129 11.8887 137.661 11.8887H129.227V0.832031H133.809V7.87109H138.408C143.388 7.87109 145.878 10.0459 145.878 14.3955C145.878 16.4762 145.386 18.4242 144.401 20.2393C143.427 22.0433 142.032 23.6536 140.217 25.0703C137.827 26.9297 134.844 28.3906 131.269 29.4531V24.6387ZM150.394 24.6387C153.095 23.7533 155.275 22.6354 156.935 21.2852C158.086 20.3665 158.966 19.3649 159.575 18.2803C160.183 17.1846 160.488 16.0391 160.488 14.8438C160.488 12.8737 159.254 11.8887 156.786 11.8887H148.352V0.832031H152.934V7.87109H157.533C162.513 7.87109 165.003 10.0459 165.003 14.3955C165.003 16.4762 164.511 18.4242 163.526 20.2393C162.552 22.0433 161.157 23.6536 159.342 25.0703C156.952 26.9297 153.969 28.3906 150.394 29.4531V24.6387ZM183.215 18.5791C183.215 25.1755 179.851 28.4736 173.122 28.4736H167.61V24.4561H172.873C174.854 24.4561 176.32 23.958 177.272 22.9619C178.224 21.9658 178.7 20.4495 178.7 18.4131V17.9648C178.7 15.8952 178.224 14.3678 177.272 13.3828C176.32 12.3867 174.876 11.8887 172.939 11.8887H167.61V7.87109H173.354C179.928 7.87109 183.215 11.1582 183.215 17.7324V18.5791ZM202.457 25.1865C202.014 26.3265 201.333 27.1621 200.415 27.6934C199.496 28.2135 198.162 28.4736 196.414 28.4736H195.285V24.4561H195.567C196.331 24.4561 196.939 24.3122 197.393 24.0244C197.836 23.7367 198.151 23.2995 198.339 22.7129C198.528 22.1152 198.622 21.2132 198.622 20.0068V11.8887H195.467V7.87109H207.022C210.21 7.87109 212.495 8.54622 213.878 9.89648C215.273 11.2357 215.97 13.4603 215.97 16.5703V28.4736H211.471V16.6367C211.471 14.8659 211.112 13.6318 210.392 12.9346C209.673 12.2373 208.461 11.8887 206.756 11.8887H203.104V20.5879C203.104 22.5026 202.888 24.0355 202.457 25.1865ZM225.45 22.4639L224.42 28.4736H219.772L221.167 21.6006C221.565 19.6969 221.93 18.3411 222.262 17.5332C222.594 16.7142 223.004 16.0667 223.491 15.5908C223.989 15.1038 224.675 14.6722 225.549 14.2959L220.752 7.87109H226.197L232.92 17.1846C233.618 16.5537 234.149 15.8122 234.514 14.96C234.879 14.1077 235.14 12.9567 235.294 11.5068L235.643 7.87109H240.225L239.827 11.8057C239.705 12.9235 239.484 13.9141 239.163 14.7773C238.941 15.3639 238.67 15.9173 238.349 16.4375C238.028 16.9466 237.608 17.4889 237.087 18.0645C236.578 18.6289 235.903 19.2874 235.062 20.04L241.254 28.4736H235.842L227.558 16.9854C226.972 17.3285 226.551 17.8265 226.296 18.4795C226.175 18.8115 226.042 19.3096 225.898 19.9736C225.754 20.6377 225.605 21.4678 225.45 22.4639ZM257.723 7.87109V28.4736H253.241V7.87109H257.723ZM272.548 15.9893V28.4736H261.807V24.4561H268.066V16.8525C268.066 15.3584 267.966 14.2904 267.767 13.6484C267.568 13.0176 267.236 12.5693 266.771 12.3037C266.306 12.027 265.626 11.8887 264.729 11.8887H262.753V7.87109H265.576C267.479 7.87109 268.902 8.12565 269.842 8.63477C270.783 9.14388 271.469 9.97949 271.901 11.1416C272.333 12.3037 272.548 13.9196 272.548 15.9893ZM291.059 17.1514C291.059 15.3805 290.655 14.0635 289.847 13.2002C289.039 12.3258 287.766 11.8887 286.029 11.8887H282.194V16.3379H286.228V20.3555H277.662V7.87109H286.062C289.316 7.87109 291.718 8.62923 293.267 10.1455C294.817 11.6618 295.591 14.0192 295.591 17.2178V18.5791C295.591 25.1755 292.199 28.4736 285.415 28.4736H277.844V24.4561H285.315C287.23 24.4561 288.663 23.9635 289.615 22.9785C290.578 21.9935 291.059 20.516 291.059 18.5459V17.1514ZM299.343 18.0645C299.343 17.334 299.415 16.5758 299.559 15.79C299.714 14.9932 299.924 14.2516 300.19 13.5654C300.456 12.8682 300.766 12.3092 301.12 11.8887H297.982V7.87109H309.503C312.835 7.87109 315.248 8.57389 316.742 9.97949C318.247 11.3851 319 13.6484 319 16.7695V18.0977C319 21.6283 318.147 24.2956 316.443 26.0996C314.739 27.9036 312.226 28.8057 308.906 28.8057C305.652 28.8057 303.245 27.959 301.684 26.2656C300.124 24.5612 299.343 21.999 299.343 18.5791V18.0645ZM305.021 11.8887C304.346 13.0618 304.008 15.0319 304.008 17.7988V18.5459C304.008 20.6266 304.423 22.1927 305.253 23.2441C306.084 24.2845 307.334 24.8047 309.005 24.8047C310.865 24.8047 312.21 24.2679 313.04 23.1943C313.881 22.1208 314.301 20.3776 314.301 17.9648V16.7363C314.301 15.0098 313.897 13.7702 313.089 13.0176C312.293 12.265 310.987 11.8887 309.171 11.8887H305.021ZM327.981 22.4639L326.952 28.4736H322.303L323.698 21.6006C324.096 19.6969 324.461 18.3411 324.794 17.5332C325.126 16.7142 325.535 16.0667 326.022 15.5908C326.52 15.1038 327.206 14.6722 328.081 14.2959L323.283 7.87109H328.728L335.452 17.1846C336.149 16.5537 336.68 15.8122 337.045 14.96C337.411 14.1077 337.671 12.9567 337.826 11.5068L338.174 7.87109H342.756L342.358 11.8057C342.236 12.9235 342.015 13.9141 341.694 14.7773C341.473 15.3639 341.201 15.9173 340.88 16.4375C340.559 16.9466 340.139 17.4889 339.619 18.0645C339.11 18.6289 338.434 19.2874 337.593 20.04L343.786 28.4736H338.374L330.089 16.9854C329.503 17.3285 329.082 17.8265 328.828 18.4795C328.706 18.8115 328.573 19.3096 328.429 19.9736C328.285 20.6377 328.136 21.4678 327.981 22.4639ZM16.0542 64.6387C18.7548 63.7533 20.9351 62.6354 22.5953 61.2852C23.7463 60.3665 24.6262 59.3649 25.2349 58.2803C25.8436 57.1846 26.148 56.0391 26.148 54.8438C26.148 52.8737 24.9139 51.8887 22.4458 51.8887H14.0123V40.832H18.5943V47.8711H23.1929C28.1734 47.8711 30.6636 50.0459 30.6636 54.3955C30.6636 56.4762 30.1711 58.4242 29.1861 60.2393C28.2121 62.0433 26.8176 63.6536 25.0025 65.0703C22.6119 66.9297 19.6291 68.3906 16.0542 69.4531V64.6387ZM38.3833 62.4639L37.354 68.4736H32.7056L34.1001 61.6006C34.4986 59.6969 34.8638 58.3411 35.1958 57.5332C35.5279 56.7142 35.9374 56.0667 36.4244 55.5908C36.9224 55.1038 37.6086 54.6722 38.483 54.2959L33.6851 47.8711H39.1304L45.854 57.1846C46.5513 56.5537 47.0826 55.8122 47.4478 54.96C47.813 54.1077 48.0731 52.9567 48.2281 51.5068L48.5767 47.8711H53.1587L52.7603 51.8057C52.6386 52.9235 52.4172 53.9141 52.0962 54.7773C51.8749 55.3639 51.6037 55.9173 51.2828 56.4375C50.9618 56.9466 50.5412 57.4889 50.021 58.0645C49.5119 58.6289 48.8368 59.2874 47.9957 60.04L54.188 68.4736H48.7759L40.4917 56.9854C39.9052 57.3285 39.4846 57.8265 39.23 58.4795C39.1083 58.8115 38.9755 59.3096 38.8316 59.9736C38.6877 60.6377 38.5383 61.4678 38.3833 62.4639ZM85.7476 56.5371V68.4736H66.8716V47.8711H76.4673C79.7434 47.8711 82.1063 48.5462 83.5562 49.8965C85.0171 51.2357 85.7476 53.4492 85.7476 56.5371ZM71.354 64.4561H81.2486V57.0518C81.2486 55.1702 80.8944 53.8421 80.1861 53.0674C79.4777 52.2816 78.2382 51.8887 76.4673 51.8887H71.354V64.4561ZM105.42 58.5791C105.42 65.1755 102.056 68.4736 95.3267 68.4736H89.815V64.4561H95.0777C97.0588 64.4561 98.5253 63.958 99.4771 62.9619C100.429 61.9658 100.905 60.4495 100.905 58.4131V57.9648C100.905 55.8952 100.429 54.3678 99.4771 53.3828C98.5253 52.3867 97.0809 51.8887 95.1441 51.8887H89.815V47.8711H95.5591C102.133 47.8711 105.42 51.1582 105.42 57.7324V58.5791ZM123.151 56.5371V68.4736H118.652V56.5039C118.652 54.7884 118.281 53.5931 117.54 52.918C116.809 52.2318 115.575 51.8887 113.837 51.8887H106.931V47.8711H114.103C116.283 47.8711 118.032 48.1644 119.349 48.751C120.677 49.3265 121.64 50.2507 122.238 51.5234C122.847 52.7852 123.151 54.4564 123.151 56.5371ZM134.274 47.8711V68.4736H129.792V47.8711H134.274ZM157.732 64.4561V68.4736H138.524V64.4561H151.042V57.1182C151.042 55.1813 150.676 53.8255 149.946 53.0508C149.226 52.276 147.992 51.8887 146.244 51.8887H139.304V47.8711H146.31C149.542 47.8711 151.883 48.5462 153.333 49.8965C154.794 51.2467 155.524 53.4603 155.524 56.5371V64.4561H157.732ZM159.625 64.8379C162.491 64.7826 164.71 64.5003 166.282 63.9912L160.405 47.8711H165.269L170.167 61.9824C171.008 61.3073 171.677 60.3887 172.175 59.2266C172.684 58.0534 173.055 56.5426 173.288 54.6943C173.52 52.835 173.636 50.5605 173.636 47.8711H178.252C178.252 53.1725 177.665 57.3008 176.492 60.2559C175.706 62.248 174.605 63.8861 173.188 65.1699C171.771 66.4427 169.956 67.4056 167.743 68.0586C165.529 68.7116 162.823 69.11 159.625 69.2539V64.8379ZM210.193 56.5371V68.4736H191.317V47.8711H200.913C204.189 47.8711 206.552 48.5462 208.002 49.8965C209.462 51.2357 210.193 53.4492 210.193 56.5371ZM195.799 64.4561H205.694V57.0518C205.694 55.1702 205.34 53.8421 204.631 53.0674C203.923 52.2816 202.683 51.8887 200.913 51.8887H195.799V64.4561ZM219.606 47.8711V58.8115H215.124V47.8711H219.606ZM243.761 64.4561V68.4736H224.553V64.4561H237.071V57.1182C237.071 55.1813 236.706 53.8255 235.975 53.0508C235.256 52.276 234.022 51.8887 232.273 51.8887H225.334V47.8711H232.339C235.571 47.8711 237.912 48.5462 239.362 49.8965C240.823 51.2467 241.553 53.4603 241.553 56.5371V64.4561H243.761ZM252.344 47.8711V68.4736H247.862V47.8711H252.344ZM275.537 66.4316C274.629 66.9408 273.511 67.3613 272.183 67.6934C270.866 68.0143 269.223 68.2523 267.253 68.4072C265.294 68.5622 262.897 68.6396 260.064 68.6396L256.179 47.8711H260.878L262.687 57.7988L263.899 57.5664C264.652 57.4225 265.205 57.179 265.559 56.8359C265.924 56.4818 266.201 55.9561 266.389 55.2588C266.478 54.9157 266.561 54.4398 266.638 53.8311C266.727 53.2113 266.81 52.4587 266.887 51.5732L267.136 47.8711H271.718L271.22 53.5488C271.154 54.3236 271.06 55.0208 270.938 55.6406C270.816 56.2604 270.661 56.7972 270.473 57.251C270.108 58.1585 269.593 58.8669 268.929 59.376C268.276 59.8851 267.236 60.3112 265.808 60.6543L263.318 61.2354L263.999 64.6387H264.397C265.78 64.6387 267.003 64.5833 268.066 64.4727C269.14 64.3509 270.053 64.1683 270.805 63.9248C271.812 63.6149 272.642 63.1833 273.295 62.6299C273.948 62.0654 274.463 61.3184 274.839 60.3887C275.216 59.4479 275.481 58.2581 275.636 56.8193L276.682 47.8711H281.314L280.252 56.7031C280.03 58.6068 279.72 60.1839 279.322 61.4346C278.934 62.6852 278.431 63.7035 277.811 64.4893C277.202 65.264 276.444 65.9115 275.537 66.4316ZM299.211 57.085C299.211 55.2256 298.856 53.8975 298.148 53.1006C297.44 52.2926 296.2 51.8887 294.429 51.8887H289.997V68.4736H285.514V47.8711H294.429C297.705 47.8711 300.068 48.5518 301.518 49.9131C302.979 51.2633 303.71 53.4714 303.71 56.5371V68.4736H299.211V57.085ZM326.703 56.5371V68.4736H322.204V56.5039C322.204 54.8105 321.844 53.6208 321.125 52.9346C320.405 52.2373 319.155 51.8887 317.373 51.8887H308.956V47.8711H317.655C319.835 47.8711 321.584 48.1644 322.901 48.751C324.229 49.3376 325.192 50.2673 325.79 51.54C326.398 52.8018 326.703 54.4674 326.703 56.5371ZM313.77 55.9561V68.4736H309.288V55.9561H313.77ZM48.0123 97.085C48.0123 95.2256 47.6581 93.8975 46.9498 93.1006C46.2414 92.2926 45.0018 91.8887 43.231 91.8887H38.7984V108.474H34.316V87.8711H43.231C46.507 87.8711 48.87 88.5518 50.3199 89.9131C51.7808 91.2633 52.5113 93.4714 52.5113 96.5371V108.474H48.0123V97.085ZM62.605 87.8711V108.474H58.1226V87.8711H62.605ZM77.4302 95.9893V108.474H66.689V104.456H72.9478V96.8525C72.9478 95.3584 72.8482 94.2904 72.649 93.6484C72.4498 93.0176 72.1177 92.5693 71.6529 92.3037C71.188 92.027 70.5074 91.8887 69.6109 91.8887H67.6353V87.8711H70.4576C72.3612 87.8711 73.7834 88.1257 74.7242 88.6348C75.6649 89.1439 76.3511 89.9795 76.7828 91.1416C77.2144 92.3037 77.4302 93.9196 77.4302 95.9893ZM87.5406 87.8711V108.474H83.0582V87.8711H87.5406ZM102.1 104.639C104.801 103.753 106.981 102.635 108.641 101.285C109.792 100.367 110.672 99.3649 111.281 98.2803C111.89 97.1846 112.194 96.0391 112.194 94.8438C112.194 92.8737 110.96 91.8887 108.492 91.8887H100.058V80.832H104.64V87.8711H109.239C114.219 87.8711 116.71 90.0459 116.71 94.3955C116.71 96.4762 116.217 98.4242 115.232 100.239C114.258 102.043 112.863 103.654 111.048 105.07C108.658 106.93 105.675 108.391 102.1 109.453V104.639ZM138.723 94.7109C138.723 96.8138 138.297 98.7783 137.445 100.604C136.593 102.431 135.342 104.069 133.693 105.519C132.055 106.968 130.046 108.18 127.667 109.154V104.39C129.747 103.416 131.352 102.121 132.481 100.505C133.621 98.8779 134.191 97.1237 134.191 95.2422C134.191 94.0026 133.881 93.1338 133.261 92.6357C132.641 92.1377 131.557 91.8887 130.007 91.8887H120.395V87.8711H130.655C133.466 87.8711 135.514 88.4079 136.797 89.4814C138.081 90.5439 138.723 92.2871 138.723 94.7109ZM125.724 95.8232V114.865H121.242V95.8232H125.724ZM169.436 94.7109C169.436 96.8138 169.01 98.7783 168.158 100.604C167.306 102.431 166.055 104.069 164.406 105.519C162.768 106.968 160.759 108.18 158.379 109.154V104.39C160.46 103.416 162.065 102.121 163.194 100.505C164.334 98.8779 164.904 97.1237 164.904 95.2422C164.904 94.0026 164.594 93.1338 163.974 92.6357C163.354 92.1377 162.27 91.8887 160.72 91.8887H151.108V87.8711H161.368C164.179 87.8711 166.226 88.4079 167.51 89.4814C168.794 90.5439 169.436 92.2871 169.436 94.7109ZM156.437 95.8232V114.865H151.955V95.8232H156.437ZM191.616 106.432C190.708 106.941 189.59 107.361 188.262 107.693C186.945 108.014 185.302 108.252 183.332 108.407C181.373 108.562 178.976 108.64 176.143 108.64L172.258 87.8711H176.957L178.766 97.7988L179.978 97.5664C180.731 97.4225 181.284 97.179 181.638 96.8359C182.003 96.4818 182.28 95.9561 182.468 95.2588C182.557 94.9157 182.64 94.4398 182.717 93.8311C182.806 93.2113 182.889 92.4587 182.966 91.5732L183.215 87.8711H187.797L187.299 93.5488C187.233 94.3236 187.139 95.0208 187.017 95.6406C186.895 96.2604 186.74 96.7972 186.552 97.251C186.187 98.1585 185.672 98.8669 185.008 99.376C184.355 99.8851 183.315 100.311 181.887 100.654L179.397 101.235L180.078 104.639H180.476C181.86 104.639 183.083 104.583 184.145 104.473C185.219 104.351 186.132 104.168 186.884 103.925C187.891 103.615 188.722 103.183 189.375 102.63C190.028 102.065 190.542 101.318 190.919 100.389C191.295 99.4479 191.56 98.2581 191.715 96.8193L192.761 87.8711H197.393L196.331 96.7031C196.109 98.6068 195.799 100.184 195.401 101.435C195.014 102.685 194.51 103.703 193.89 104.489C193.281 105.264 192.523 105.911 191.616 106.432ZM212.252 87.7715C215.074 87.7715 217.127 88.6016 218.411 90.2617C219.695 91.9108 220.336 94.4896 220.336 97.998V108.474H209.628V104.456H215.821V98.3467C215.821 96.0114 215.539 94.3402 214.974 93.333C214.421 92.3148 213.441 91.8057 212.036 91.8057C210.741 91.8057 209.651 92.4531 208.765 93.748C207.88 95.0762 207.055 97.2897 206.292 100.389L204.283 108.474H199.502L201.743 99.874C202.019 98.8337 202.285 97.904 202.54 97.085C202.805 96.266 203.06 95.5632 203.303 94.9766L199.186 88.1035H204.15L205.71 91.0254C206.375 90.0072 207.282 89.2103 208.433 88.6348C209.595 88.0592 210.868 87.7715 212.252 87.7715ZM237.287 87.7715C240.109 87.7715 242.162 88.6016 243.446 90.2617C244.73 91.9108 245.372 94.4896 245.372 97.998V108.474H234.664V104.456H240.856V98.3467C240.856 96.0114 240.574 94.3402 240.009 93.333C239.456 92.3148 238.476 91.8057 237.071 91.8057C235.776 91.8057 234.686 92.4531 233.8 93.748C232.915 95.0762 232.09 97.2897 231.327 100.389L229.318 108.474H224.537L226.778 99.874C227.055 98.8337 227.32 97.904 227.575 97.085C227.84 96.266 228.095 95.5632 228.338 94.9766L224.221 88.1035H229.185L230.746 91.0254C231.41 90.0072 232.317 89.2103 233.468 88.6348C234.63 88.0592 235.903 87.7715 237.287 87.7715ZM273.445 96.5371V114.865H268.946V96.5039C268.946 94.7884 268.575 93.5931 267.834 92.918C267.103 92.2318 265.869 91.8887 264.131 91.8887H257.225V87.8711H264.397C266.577 87.8711 268.326 88.1644 269.643 88.751C270.971 89.3265 271.934 90.2507 272.532 91.5234C273.141 92.7852 273.445 94.4564 273.445 96.5371ZM283.539 87.8711V108.474H279.056V87.8711H283.539ZM294.612 105.187C294.169 106.326 293.489 107.162 292.57 107.693C291.651 108.214 290.318 108.474 288.569 108.474H287.44V104.456H287.722C288.486 104.456 289.095 104.312 289.548 104.024C289.991 103.737 290.307 103.299 290.495 102.713C290.683 102.115 290.777 101.213 290.777 100.007V91.8887H287.623V87.8711H299.177C302.365 87.8711 304.65 88.5462 306.034 89.8965C307.428 91.2357 308.126 93.4603 308.126 96.5703V108.474H303.627V96.6367C303.627 94.8659 303.267 93.6318 302.547 92.9346C301.828 92.2373 300.616 91.8887 298.912 91.8887H295.259V100.588C295.259 102.503 295.044 104.035 294.612 105.187Z" fill="#9E4A6C"/>
</svg>
