<svg width="426" height="108" viewBox="0 0 426 108" fill="none" xmlns="http://www.w3.org/2000/svg">
<path d="M20.1029 9.97498V22.6136H0.116592V0.799194H10.2767C13.7455 0.799194 16.2475 1.51404 17.7826 2.94373C19.3295 4.36169 20.1029 6.70544 20.1029 9.97498ZM4.86269 18.3597H15.3392V10.5199C15.3392 8.52771 14.9642 7.12146 14.2142 6.30115C13.4642 5.46912 12.1517 5.0531 10.2767 5.0531H4.86269V18.3597ZM30.0697 0.799194V12.3832H25.3236V0.799194H30.0697ZM46.5053 9.3949V22.6136H35.1322V18.3597H41.7592V10.309C41.7592 8.72693 41.6537 7.59607 41.4428 6.91638C41.2318 6.24841 40.8803 5.7738 40.3881 5.49255C39.8959 5.19958 39.1752 5.0531 38.226 5.0531H36.1342V0.799194H39.1225C41.1381 0.799194 42.6439 1.06873 43.64 1.60779C44.6361 2.14685 45.3627 3.03162 45.8197 4.26208C46.2767 5.49255 46.5053 7.20349 46.5053 9.3949ZM57.2103 0.799194V22.6136H52.4642V0.799194H57.2103ZM68.935 19.1332C68.4662 20.3402 67.7455 21.225 66.7728 21.7875C65.8002 22.3383 64.3881 22.6136 62.5365 22.6136H61.3412V18.3597H61.64C62.4486 18.3597 63.0932 18.2074 63.5736 17.9027C64.0424 17.598 64.3764 17.1351 64.5756 16.514C64.7748 15.8812 64.8744 14.9261 64.8744 13.6488V5.0531H61.5346V0.799194H73.7689C77.1439 0.799194 79.5639 1.51404 81.0287 2.94373C82.5053 4.36169 83.2435 6.71716 83.2435 10.0101V22.6136H78.4799V10.0804C78.4799 8.20544 78.099 6.8988 77.3373 6.16052C76.5756 5.42224 75.2924 5.0531 73.4877 5.0531H69.6205V14.264C69.6205 16.2914 69.392 17.9144 68.935 19.1332ZM98.7475 9.3949V22.6136H87.3744V18.3597H94.0014V10.309C94.0014 8.72693 93.8959 7.59607 93.685 6.91638C93.474 6.24841 93.1225 5.7738 92.6303 5.49255C92.1381 5.19958 91.4174 5.0531 90.4682 5.0531H88.3764V0.799194H91.3646C93.3803 0.799194 94.8861 1.06873 95.8822 1.60779C96.8783 2.14685 97.6049 3.03162 98.0619 4.26208C98.5189 5.49255 98.7475 7.20349 98.7475 9.3949ZM128.472 9.97498V22.6136H123.708V9.93982C123.708 8.12341 123.316 6.85779 122.531 6.14294C121.757 5.41638 120.451 5.0531 118.611 5.0531H111.298V0.799194H118.892C121.201 0.799194 123.052 1.10974 124.447 1.73083C125.853 2.34021 126.872 3.31873 127.505 4.66638C128.15 6.00232 128.472 7.77185 128.472 9.97498ZM137.191 0.799194C138.234 0.799194 139.101 0.881226 139.792 1.04529C140.495 1.20935 141.081 1.49646 141.55 1.90662C142.031 2.30505 142.447 2.85583 142.798 3.55896C143.068 4.0863 143.349 4.82458 143.642 5.7738C143.935 6.7113 144.245 7.85974 144.574 9.21912L147.667 22.6136H142.939L141.181 14.7738C140.326 14.9965 139.722 15.2953 139.37 15.6703C139.019 16.0453 138.72 16.6371 138.474 17.4457C138.427 17.6097 138.351 17.8969 138.245 18.307C138.152 18.7054 138.035 19.2211 137.894 19.8539L137.296 22.6136H132.462L133.183 19.4496C133.394 18.4769 133.605 17.639 133.816 16.9359C134.027 16.2211 134.244 15.6351 134.466 15.1781C134.9 14.264 135.456 13.5375 136.136 12.9984C136.828 12.4476 137.777 11.9906 138.984 11.6273L140.39 11.2054C140.226 10.4203 140.062 9.71716 139.898 9.09607C139.734 8.47498 139.581 7.94177 139.441 7.49646C139.148 6.59412 138.808 5.9613 138.421 5.59802C138.035 5.23474 137.408 5.0531 136.54 5.0531H134.167V0.799194H137.191ZM155.788 16.2504L154.699 22.6136H149.777L151.253 15.3363C151.675 13.3207 152.062 11.8851 152.413 11.0297C152.765 10.1625 153.199 9.47693 153.714 8.97302C154.242 8.4574 154.968 8.00037 155.894 7.60193L150.814 0.799194H156.579L163.699 10.6605C164.437 9.99255 164.999 9.2074 165.386 8.30505C165.773 7.40271 166.048 6.18396 166.212 4.6488L166.581 0.799194H171.433L171.011 4.96521C170.882 6.1488 170.648 7.19763 170.308 8.11169C170.074 8.73279 169.787 9.31873 169.447 9.86951C169.107 10.4086 168.662 10.9828 168.111 11.5922C167.572 12.1898 166.857 12.8871 165.966 13.684L172.523 22.6136H166.792L158.021 10.4496C157.4 10.8129 156.954 11.3402 156.685 12.0316C156.556 12.3832 156.415 12.9105 156.263 13.6136C156.111 14.3168 155.953 15.1957 155.788 16.2504ZM187.886 0.693726C190.874 0.693726 193.048 1.57263 194.408 3.33044C195.767 5.07654 196.447 7.80701 196.447 11.5219V22.6136H185.109V18.3597H191.665V11.891C191.665 9.41833 191.367 7.6488 190.769 6.5824C190.183 5.50427 189.146 4.96521 187.658 4.96521C186.287 4.96521 185.132 5.65076 184.195 7.02185C183.257 8.4281 182.384 10.7719 181.576 14.0531L179.449 22.6136H174.386L176.759 13.5082C177.052 12.4066 177.333 11.4222 177.603 10.5551C177.884 9.68787 178.154 8.94373 178.412 8.32263L174.052 1.04529H179.308L180.96 4.13904C181.663 3.06091 182.624 2.21716 183.843 1.60779C185.074 0.998413 186.421 0.693726 187.886 0.693726ZM231.357 9.97498V22.6136H211.37V0.799194H221.531C224.999 0.799194 227.501 1.51404 229.037 2.94373C230.583 4.36169 231.357 6.70544 231.357 9.97498ZM216.117 18.3597H226.593V10.5199C226.593 8.52771 226.218 7.12146 225.468 6.30115C224.718 5.46912 223.406 5.0531 221.531 5.0531H216.117V18.3597ZM241.324 0.799194V12.3832H236.578V0.799194H241.324ZM252.925 0.799194V12.3832H248.179V0.799194H252.925ZM277.552 8.04138C277.552 10.2679 277.101 12.348 276.199 14.2816C275.296 16.2152 273.972 17.9496 272.226 19.4847C270.492 21.0199 268.365 22.3031 265.845 23.3344V18.2894C268.048 17.2582 269.747 15.8871 270.943 14.1761C272.15 12.4535 272.753 10.5961 272.753 8.60388C272.753 7.29138 272.425 6.37146 271.769 5.84412C271.113 5.31677 269.964 5.0531 268.324 5.0531H258.146V0.799194H269.009C271.986 0.799194 274.154 1.36755 275.513 2.50427C276.872 3.62927 277.552 5.47498 277.552 8.04138ZM263.788 9.21912V29.3812H259.042V9.21912H263.788ZM297.169 19.1332C296.701 20.3402 295.98 21.225 295.007 21.7875C294.035 22.3383 292.622 22.6136 290.771 22.6136H289.576V18.3597H289.874C290.683 18.3597 291.328 18.2074 291.808 17.9027C292.277 17.598 292.611 17.1351 292.81 16.514C293.009 15.8812 293.109 14.9261 293.109 13.6488V5.0531H289.769V0.799194H302.003C305.378 0.799194 307.798 1.51404 309.263 2.94373C310.74 4.36169 311.478 6.71716 311.478 10.0101V22.6136H306.714V10.0804C306.714 8.20544 306.333 6.8988 305.572 6.16052C304.81 5.42224 303.527 5.0531 301.722 5.0531H297.855V14.264C297.855 16.2914 297.626 17.9144 297.169 19.1332ZM332.273 12.1371C332.273 19.1215 328.71 22.6136 321.585 22.6136H315.749V18.3597H321.322C323.419 18.3597 324.972 17.8324 325.98 16.7777C326.988 15.723 327.492 14.1176 327.492 11.9613V11.4867C327.492 9.29529 326.988 7.6781 325.98 6.63513C324.972 5.58044 323.443 5.0531 321.392 5.0531H315.749V0.799194H321.831C328.792 0.799194 332.273 4.27966 332.273 11.2406V12.1371ZM351.046 9.97498V22.6136H346.283V9.93982C346.283 8.12341 345.89 6.85779 345.105 6.14294C344.331 5.41638 343.025 5.0531 341.185 5.0531H333.872V0.799194H341.466C343.775 0.799194 345.626 1.10974 347.021 1.73083C348.427 2.34021 349.447 3.31873 350.079 4.66638C350.724 6.00232 351.046 7.77185 351.046 9.97498ZM355.74 18.764C358.775 18.7054 361.124 18.4066 362.788 17.8676L356.566 0.799194H361.716L366.902 15.7406C367.792 15.0258 368.501 14.0531 369.029 12.8226C369.568 11.5804 369.96 9.98083 370.206 8.0238C370.453 6.05505 370.576 3.64685 370.576 0.799194H375.462C375.462 6.41248 374.841 10.7836 373.599 13.9125C372.767 16.0219 371.601 17.7562 370.101 19.1156C368.601 20.4633 366.679 21.4828 364.335 22.1742C361.992 22.8656 359.126 23.2875 355.74 23.4398V18.764ZM391.617 0.693726C394.605 0.693726 396.779 1.57263 398.138 3.33044C399.497 5.07654 400.177 7.80701 400.177 11.5219V22.6136H388.839V18.3597H395.396V11.891C395.396 9.41833 395.097 7.6488 394.499 6.5824C393.913 5.50427 392.876 4.96521 391.388 4.96521C390.017 4.96521 388.863 5.65076 387.925 7.02185C386.988 8.4281 386.115 10.7719 385.306 14.0531L383.179 22.6136H378.117L380.49 13.5082C380.783 12.4066 381.064 11.4222 381.333 10.5551C381.615 9.68787 381.884 8.94373 382.142 8.32263L377.783 1.04529H383.038L384.691 4.13904C385.394 3.06091 386.355 2.21716 387.574 1.60779C388.804 0.998413 390.152 0.693726 391.617 0.693726ZM425.208 18.3597V22.6136H404.87V18.3597H418.124V10.5902C418.124 8.53943 417.738 7.10388 416.964 6.28357C416.203 5.46326 414.896 5.0531 413.044 5.0531H405.697V0.799194H413.115C416.536 0.799194 419.015 1.51404 420.55 2.94373C422.097 4.37341 422.87 6.71716 422.87 9.97498V18.3597H425.208ZM8.0619 61.1332C7.59315 62.3402 6.87245 63.225 5.8998 63.7875C4.92714 64.3383 3.51503 64.6136 1.66347 64.6136H0.468155V60.3597H0.766983C1.57558 60.3597 2.22011 60.2074 2.70058 59.9027C3.16933 59.598 3.50331 59.1351 3.70253 58.514C3.90175 57.8812 4.00136 56.9261 4.00136 55.6488V47.0531H0.661514V42.7992H12.8959C16.2709 42.7992 18.6908 43.514 20.1557 44.9437C21.6322 46.3617 22.3705 48.7172 22.3705 52.0101V64.6136H17.6068V52.0804C17.6068 50.2054 17.226 48.8988 16.4642 48.1605C15.7025 47.4222 14.4193 47.0531 12.6146 47.0531H8.74745V56.264C8.74745 58.2914 8.51894 59.9144 8.0619 61.1332ZM33.0404 42.7992V64.6136H28.2943V42.7992H33.0404ZM48.7377 51.3949V64.6136H37.3646V60.3597H43.9916V52.309C43.9916 50.7269 43.8861 49.5961 43.6752 48.9164C43.4642 48.2484 43.1127 47.7738 42.6205 47.4926C42.1283 47.1996 41.4076 47.0531 40.4584 47.0531H38.3666V42.7992H41.3549C43.3705 42.7992 44.8764 43.0687 45.8725 43.6078C46.8685 44.1469 47.5951 45.0316 48.0521 46.2621C48.5092 47.4926 48.7377 49.2035 48.7377 51.3949ZM59.4428 42.7992V64.6136H54.6967V42.7992H59.4428ZM83.9994 62.4515C83.0385 62.9906 81.8549 63.4359 80.4486 63.7875C79.0541 64.1273 77.3139 64.3793 75.2279 64.5433C73.1537 64.7074 70.6166 64.7894 67.6166 64.7894L63.5033 42.7992H68.4779L70.3939 53.3109L71.6771 53.0648C72.474 52.9125 73.06 52.6547 73.435 52.2914C73.8217 51.9164 74.1146 51.3597 74.3139 50.6215C74.4076 50.2582 74.4955 49.7543 74.5775 49.1097C74.6713 48.4535 74.7592 47.6566 74.8412 46.7191L75.1049 42.7992H79.9564L79.4291 48.8109C79.3588 49.6312 79.2592 50.3695 79.1303 51.0258C79.0014 51.682 78.8373 52.2504 78.6381 52.7308C78.2514 53.6918 77.7064 54.4418 77.0033 54.9808C76.3119 55.5199 75.2103 55.9711 73.6986 56.3344L71.0619 56.9496L71.7826 60.5531H72.2045C73.6693 60.5531 74.9642 60.4945 76.0892 60.3773C77.226 60.2484 78.1928 60.0551 78.9896 59.7972C80.056 59.4691 80.935 59.0121 81.6264 58.4261C82.3178 57.8285 82.8627 57.0375 83.2611 56.0531C83.6596 55.057 83.9408 53.7972 84.1049 52.2738L85.2123 42.7992H90.1166L88.9916 52.1508C88.7572 54.1664 88.4291 55.8363 88.0072 57.1605C87.5971 58.4847 87.0639 59.5629 86.4076 60.3949C85.7631 61.2152 84.9603 61.9008 83.9994 62.4515ZM109.136 61.1332C108.667 62.3402 107.947 63.225 106.974 63.7875C106.001 64.3383 104.589 64.6136 102.738 64.6136H101.542V60.3597H101.841C102.65 60.3597 103.294 60.2074 103.775 59.9027C104.244 59.598 104.578 59.1351 104.777 58.514C104.976 57.8812 105.076 56.9261 105.076 55.6488V47.0531H101.736V42.7992H113.97C117.345 42.7992 119.765 43.514 121.23 44.9437C122.706 46.3617 123.445 48.7172 123.445 52.0101V64.6136H118.681V52.0804C118.681 50.2054 118.3 48.8988 117.538 48.1605C116.777 47.4222 115.494 47.0531 113.689 47.0531H109.822V56.264C109.822 58.2914 109.593 59.9144 109.136 61.1332ZM134.115 42.7992V64.6136H129.369V42.7992H134.115ZM144.978 42.7992V54.3832H140.232V42.7992H144.978ZM150.374 53.5922C150.374 52.8187 150.451 52.016 150.603 51.184C150.767 50.3402 150.99 49.5551 151.271 48.8285C151.552 48.0902 151.88 47.4984 152.255 47.0531H148.933V42.7992H161.132C164.66 42.7992 167.214 43.5433 168.796 45.0316C170.39 46.5199 171.187 48.9164 171.187 52.2211V53.6273C171.187 57.3656 170.285 60.1898 168.48 62.1C166.675 64.0101 164.015 64.9652 160.499 64.9652C157.054 64.9652 154.505 64.0687 152.853 62.2758C151.201 60.4711 150.374 57.7582 150.374 54.1371V53.5922ZM156.386 47.0531C155.671 48.2953 155.314 50.3812 155.314 53.3109V54.1019C155.314 56.3051 155.753 57.9633 156.632 59.0765C157.511 60.1781 158.835 60.7289 160.605 60.7289C162.574 60.7289 163.997 60.1605 164.876 59.0238C165.767 57.8871 166.212 56.0414 166.212 53.4867V52.1859C166.212 50.3578 165.785 49.0453 164.929 48.2484C164.085 47.4515 162.703 47.0531 160.781 47.0531H156.386ZM180.978 42.7992V64.6136H176.232V42.7992H180.978ZM187.429 60.5531C190.288 59.6156 192.597 58.432 194.355 57.0023C195.574 56.0297 196.505 54.9691 197.15 53.8207C197.794 52.6605 198.117 51.4476 198.117 50.182C198.117 48.0961 196.81 47.0531 194.197 47.0531H185.267V35.3461H190.119V42.7992H194.988C200.261 42.7992 202.898 45.1019 202.898 49.7074C202.898 51.9105 202.376 53.973 201.333 55.8949C200.302 57.8051 198.826 59.5101 196.904 61.0101C194.372 62.9789 191.214 64.5258 187.429 65.6508V60.5531ZM221.829 54.1371C221.829 61.1215 218.267 64.6136 211.142 64.6136H205.306V60.3597H210.878C212.976 60.3597 214.529 59.8324 215.537 58.7777C216.544 57.723 217.048 56.1176 217.048 53.9613V53.4867C217.048 51.2953 216.544 49.6781 215.537 48.6351C214.529 47.5804 212.999 47.0531 210.949 47.0531H205.306V42.7992H211.388C218.349 42.7992 221.829 46.2797 221.829 53.2406V54.1371ZM232.376 42.7992V64.6136H227.63V42.7992H232.376ZM242.607 58.2504L241.517 64.6136H236.595L238.072 57.3363C238.494 55.3207 238.88 53.8851 239.232 53.0297C239.583 52.1625 240.017 51.4769 240.533 50.973C241.06 50.4574 241.786 50.0004 242.712 49.6019L237.632 42.7992H243.398L250.517 52.6605C251.255 51.9926 251.818 51.2074 252.204 50.3051C252.591 49.4027 252.867 48.184 253.031 46.6488L253.4 42.7992H258.251L257.829 46.9652C257.701 48.1488 257.466 49.1976 257.126 50.1117C256.892 50.7328 256.605 51.3187 256.265 51.8695C255.925 52.4086 255.48 52.9828 254.929 53.5922C254.39 54.1898 253.675 54.8871 252.785 55.684L259.341 64.6136H253.611L244.839 52.4496C244.218 52.8129 243.773 53.3402 243.503 54.0316C243.374 54.3832 243.234 54.9105 243.081 55.6136C242.929 56.3168 242.771 57.1957 242.607 58.2504ZM271.171 62.3461C271.171 61.6429 271.411 61.0511 271.892 60.5707C272.372 60.0902 273.023 59.85 273.843 59.85C274.663 59.85 275.314 60.0902 275.794 60.5707C276.275 61.0511 276.515 61.6429 276.515 62.3461C276.515 63.0375 276.275 63.6234 275.794 64.1039C275.314 64.5726 274.663 64.807 273.843 64.807C273.023 64.807 272.372 64.5726 271.892 64.1039C271.411 63.6234 271.171 63.0375 271.171 62.3461ZM271.189 47.598C271.189 46.8949 271.429 46.3031 271.91 45.8226C272.39 45.3422 273.04 45.1019 273.861 45.1019C274.681 45.1019 275.331 45.3422 275.812 45.8226C276.292 46.3031 276.533 46.8949 276.533 47.598C276.533 48.2894 276.292 48.8754 275.812 49.3558C275.331 49.8246 274.681 50.059 273.861 50.059C273.04 50.059 272.39 49.8246 271.91 49.3558C271.429 48.8754 271.189 48.2894 271.189 47.598ZM286.587 42.7992V71.3812H281.841V42.7992H286.587ZM297.451 42.7992V64.6136H292.704V42.7992H297.451ZM306.345 42.7992C307.388 42.7992 308.255 42.8812 308.947 43.0453C309.65 43.2094 310.236 43.4965 310.704 43.9066C311.185 44.3051 311.601 44.8558 311.953 45.559C312.222 46.0863 312.503 46.8246 312.796 47.7738C313.089 48.7113 313.4 49.8597 313.728 51.2191L316.822 64.6136H312.093L310.335 56.7738C309.48 56.9965 308.876 57.2953 308.525 57.6703C308.173 58.0453 307.874 58.6371 307.628 59.4457C307.581 59.6097 307.505 59.8969 307.4 60.307C307.306 60.7054 307.189 61.2211 307.048 61.8539L306.451 64.6136H301.617L302.337 61.4496C302.548 60.4769 302.759 59.639 302.97 58.9359C303.181 58.2211 303.398 57.6351 303.62 57.1781C304.054 56.264 304.611 55.5375 305.29 54.9984C305.982 54.4476 306.931 53.9906 308.138 53.6273L309.544 53.2054C309.38 52.4203 309.216 51.7172 309.052 51.0961C308.888 50.475 308.736 49.9418 308.595 49.4965C308.302 48.5941 307.962 47.9613 307.576 47.598C307.189 47.2347 306.562 47.0531 305.695 47.0531H303.322V42.7992H306.345ZM335.701 54.1371C335.701 61.1215 332.138 64.6136 325.013 64.6136H319.177V60.3597H324.749C326.847 60.3597 328.4 59.8324 329.408 58.7777C330.415 57.723 330.919 56.1176 330.919 53.9613V53.4867C330.919 51.2953 330.415 49.6781 329.408 48.6351C328.4 47.5804 326.87 47.0531 324.82 47.0531H319.177V42.7992H325.259C332.22 42.7992 335.701 46.2797 335.701 53.2406V54.1371ZM353.138 60.4301L353.103 63.6469C353.103 64.9008 352.792 66.1722 352.171 67.4613C351.55 68.7504 350.747 69.8168 349.763 70.6605L347.302 69.307C347.619 68.7797 347.911 68.2465 348.181 67.7074C348.462 67.1683 348.685 66.5824 348.849 65.9496C349.025 65.3285 349.113 64.6312 349.113 63.8578V60.4301H353.138ZM376.921 60.3597V64.6136H356.583V60.3597H369.837V52.5902C369.837 50.5394 369.451 49.1039 368.677 48.2836C367.915 47.4633 366.609 47.0531 364.757 47.0531H357.41V42.7992H364.828C368.249 42.7992 370.728 43.514 372.263 44.9437C373.81 46.3734 374.583 48.7172 374.583 51.975V60.3597H376.921ZM395.765 52.5551C395.765 50.5863 395.39 49.1801 394.64 48.3363C393.89 47.4808 392.578 47.0531 390.703 47.0531H386.009V64.6136H381.263V42.7992H390.703C394.171 42.7992 396.673 43.5199 398.208 44.9613C399.755 46.391 400.529 48.7289 400.529 51.975V64.6136H395.765V52.5551ZM420.181 51.975V64.6136H415.417V51.9398C415.417 50.1234 415.025 48.8578 414.24 48.1429C413.466 47.4164 412.16 47.0531 410.32 47.0531H403.007V42.7992H410.601C412.91 42.7992 414.761 43.1097 416.156 43.7308C417.562 44.3402 418.581 45.3187 419.214 46.6664C419.859 48.0023 420.181 49.7719 420.181 51.975ZM132.796 93.975V106.614H112.81V84.7992H122.97C126.439 84.7992 128.941 85.514 130.476 86.9437C132.023 88.3617 132.796 90.7054 132.796 93.975ZM117.556 102.36H128.033V94.5199C128.033 92.5277 127.658 91.1215 126.908 90.3011C126.158 89.4691 124.845 89.0531 122.97 89.0531H117.556V102.36ZM142.763 84.7992V96.3832H138.017V84.7992H142.763ZM159.199 93.3949V106.614H147.826V102.36H154.453V94.309C154.453 92.7269 154.347 91.5961 154.136 90.9164C153.925 90.2484 153.574 89.7738 153.081 89.4926C152.589 89.1996 151.869 89.0531 150.919 89.0531H148.828V84.7992H151.816C153.831 84.7992 155.337 85.0687 156.333 85.6078C157.329 86.1469 158.056 87.0316 158.513 88.2621C158.97 89.4926 159.199 91.2035 159.199 93.3949ZM169.904 84.7992V106.614H165.158V84.7992H169.904ZM194.46 104.452C193.499 104.991 192.316 105.436 190.91 105.787C189.515 106.127 187.775 106.379 185.689 106.543C183.615 106.707 181.078 106.789 178.078 106.789L173.964 84.7992H178.939L180.855 95.3109L182.138 95.0648C182.935 94.9125 183.521 94.6547 183.896 94.2914C184.283 93.9164 184.576 93.3597 184.775 92.6215C184.869 92.2582 184.956 91.7543 185.038 91.1097C185.132 90.4535 185.22 89.6566 185.302 88.7191L185.566 84.7992H190.417L189.89 90.8109C189.82 91.6312 189.72 92.3695 189.591 93.0258C189.462 93.682 189.298 94.2504 189.099 94.7308C188.712 95.6918 188.167 96.4418 187.464 96.9808C186.773 97.5199 185.671 97.9711 184.16 98.3344L181.523 98.9496L182.244 102.553H182.665C184.13 102.553 185.425 102.495 186.55 102.377C187.687 102.248 188.654 102.055 189.451 101.797C190.517 101.469 191.396 101.012 192.087 100.426C192.779 99.8285 193.324 99.0375 193.722 98.0531C194.12 97.057 194.402 95.7972 194.566 94.2738L195.673 84.7992H200.578L199.453 94.1508C199.218 96.1664 198.89 97.8363 198.468 99.1605C198.058 100.485 197.525 101.563 196.869 102.395C196.224 103.215 195.421 103.901 194.46 104.452ZM233.976 93.975V106.614H213.99V84.7992H224.15C227.619 84.7992 230.12 85.514 231.656 86.9437C233.203 88.3617 233.976 90.7054 233.976 93.975ZM218.736 102.36H229.212V94.5199C229.212 92.5277 228.837 91.1215 228.087 90.3011C227.337 89.4691 226.025 89.0531 224.15 89.0531H218.736V102.36ZM243.943 84.7992V96.3832H239.197V84.7992H243.943ZM265.599 93.975V106.614H260.835V93.9398C260.835 92.1234 260.443 90.8578 259.658 90.1429C258.884 89.4164 257.578 89.0531 255.738 89.0531H248.425V84.7992H256.019C258.328 84.7992 260.179 85.1097 261.574 85.7308C262.98 86.3402 263.999 87.3187 264.632 88.6664C265.277 90.0023 265.599 91.7719 265.599 93.975ZM269.203 102.764C272.238 102.705 274.587 102.407 276.251 101.868L270.029 84.7992H275.179L280.365 99.7406C281.255 99.0258 281.964 98.0531 282.492 96.8226C283.031 95.5804 283.423 93.9808 283.669 92.0238C283.915 90.0551 284.038 87.6469 284.038 84.7992H288.925C288.925 90.4125 288.304 94.7836 287.062 97.9125C286.23 100.022 285.064 101.756 283.564 103.116C282.064 104.463 280.142 105.483 277.798 106.174C275.454 106.866 272.589 107.287 269.203 107.44V102.764ZM311.777 102.36V106.614H291.439V102.36H304.693V94.5902C304.693 92.5394 304.306 91.1039 303.533 90.2836C302.771 89.4633 301.464 89.0531 299.613 89.0531H292.265V84.7992H299.683C303.105 84.7992 305.583 85.514 307.119 86.9437C308.665 88.3734 309.439 90.7172 309.439 93.975V102.36H311.777Z" fill="#C68AA2"/>
</svg>
