<svg width="477" height="116" viewBox="0 0 477 116" fill="none" xmlns="http://www.w3.org/2000/svg">
<path d="M5.82269 1.43179V24.4582H0.812927V1.43179H5.82269ZM22.392 10.505V24.4582H10.3871V19.9679H17.3823V11.4699C17.3823 9.79996 17.2709 8.60627 17.0483 7.88882C16.8256 7.18375 16.4545 6.68277 15.935 6.38589C15.4155 6.07665 14.6547 5.92203 13.6528 5.92203H11.4448V1.43179H14.5991C16.7267 1.43179 18.3162 1.7163 19.3676 2.28531C20.419 2.85432 21.186 3.78824 21.6684 5.08707C22.1508 6.38589 22.392 8.19188 22.392 10.505ZM43.9897 11.7296C43.9897 9.65152 43.5939 8.16714 42.8022 7.27652C42.0105 6.37352 40.6251 5.92203 38.6459 5.92203H33.6918V24.4582H28.6821V1.43179H38.6459C42.3074 1.43179 44.9483 2.19254 46.5688 3.71402C48.2016 5.22313 49.018 7.69091 49.018 11.1173V24.4582H43.9897V11.7296ZM65.4018 10.505V24.4582H53.3969V19.9679H60.392V11.4699C60.392 9.79996 60.2807 8.60627 60.058 7.88882C59.8354 7.18375 59.4643 6.68277 58.9448 6.38589C58.4252 6.07665 57.6645 5.92203 56.6625 5.92203H54.4545V1.43179H57.6088C59.7364 1.43179 61.3259 1.7163 62.3774 2.28531C63.4288 2.85432 64.1957 3.78824 64.6782 5.08707C65.1606 6.38589 65.4018 8.19188 65.4018 10.505ZM76.0336 17.7414L74.8832 24.4582H69.6879L71.2465 16.7765C71.6918 14.6489 72.1 13.1336 72.4711 12.2306C72.8422 11.3153 73.2999 10.5916 73.8442 10.0597C74.4008 9.51545 75.1677 9.03303 76.145 8.61246L70.7827 1.43179H76.8686L84.3832 11.841C85.1625 11.1359 85.7563 10.3071 86.1645 9.35464C86.5727 8.40217 86.8634 7.11571 87.0366 5.49527L87.4262 1.43179H92.5473L92.102 5.82925C91.9659 7.0786 91.7185 8.1857 91.3598 9.15054C91.1124 9.80614 90.8093 10.4246 90.4506 11.006C90.0919 11.575 89.6218 12.1811 89.0405 12.8244C88.4715 13.4552 87.7169 14.1912 86.7768 15.0324L93.6977 24.4582H87.6489L78.3901 11.6183C77.7345 12.0018 77.2644 12.5584 76.9799 13.2882C76.8439 13.6593 76.6954 14.216 76.5346 14.9582C76.3738 15.7003 76.2068 16.6281 76.0336 17.7414ZM102.641 1.43179V24.4582H97.6313V1.43179H102.641ZM122.476 19.9494L122.457 23.5304C122.457 24.9035 122.111 26.2889 121.418 27.6867C120.738 29.0845 119.872 30.2287 118.821 31.1193L116.038 29.6906C116.347 29.1216 116.65 28.5526 116.947 27.9836C117.244 27.4145 117.491 26.7899 117.689 26.1095C117.887 25.4292 117.986 24.6561 117.986 23.7902V19.9494H122.476ZM133.831 20.7843C133.337 22.0584 132.576 22.9923 131.549 23.5861C130.523 24.1675 129.032 24.4582 127.078 24.4582H125.816V19.9679H126.131C126.985 19.9679 127.665 19.8071 128.172 19.4855C128.667 19.1639 129.02 18.6753 129.23 18.0197C129.44 17.3517 129.545 16.3436 129.545 14.9953V5.92203H126.02V1.43179H138.934C142.497 1.43179 145.051 2.18635 146.597 3.69547C148.156 5.19221 148.935 7.67854 148.935 11.1544V24.4582H143.907V11.2287C143.907 9.2495 143.505 7.87027 142.701 7.09097C141.897 6.31168 140.542 5.92203 138.637 5.92203H134.555V15.6447C134.555 17.7847 134.314 19.4979 133.831 20.7843ZM170.885 13.3996C170.885 20.772 167.125 24.4582 159.604 24.4582H153.444V19.9679H159.326C161.54 19.9679 163.179 19.4113 164.243 18.298C165.306 17.1847 165.838 15.4901 165.838 13.214V12.713C165.838 10.3999 165.306 8.69286 164.243 7.59195C163.179 6.47867 161.565 5.92203 159.4 5.92203H153.444V1.43179H159.864C167.211 1.43179 170.885 5.10562 170.885 12.4533V13.3996ZM190.702 11.1173V24.4582H185.673V11.0802C185.673 9.16291 185.259 7.82698 184.43 7.07242C183.614 6.30549 182.234 5.92203 180.292 5.92203H172.574V1.43179H180.589C183.026 1.43179 184.981 1.75959 186.453 2.41519C187.937 3.05842 189.013 4.0913 189.681 5.51382C190.361 6.92398 190.702 8.79182 190.702 11.1173ZM195.656 20.3947C198.859 20.3328 201.34 20.0174 203.096 19.4484L196.528 1.43179H201.964L207.438 17.2033C208.378 16.4487 209.126 15.422 209.683 14.1232C210.252 12.812 210.666 11.1235 210.926 9.05777C211.186 6.97964 211.316 4.43765 211.316 1.43179H216.474C216.474 7.35692 215.818 11.9709 214.507 15.2736C213.629 17.5002 212.398 19.3309 210.815 20.7658C209.232 22.1883 207.203 23.2645 204.729 23.9943C202.255 24.7241 199.231 25.1694 195.656 25.3302V20.3947ZM233.526 1.32047C236.68 1.32047 238.975 2.2482 240.41 4.10367C241.845 5.94677 242.562 8.82893 242.562 12.7502V24.4582H230.594V19.9679H237.515V13.1398C237.515 10.5298 237.2 8.66194 236.569 7.53629C235.95 6.39826 234.856 5.82925 233.285 5.82925C231.837 5.82925 230.619 6.55289 229.629 8.00015C228.64 9.48453 227.718 11.9585 226.865 15.422L224.62 24.4582H219.276L221.781 14.8468C222.09 13.6841 222.387 12.645 222.671 11.7296C222.968 10.8143 223.253 10.0288 223.525 9.3732L218.923 1.69156H224.471L226.215 4.95718C226.957 3.81916 227.972 2.92854 229.258 2.28531C230.557 1.64208 231.98 1.32047 233.526 1.32047ZM268.984 19.9679V24.4582H247.516V19.9679H261.506V11.7668C261.506 9.60204 261.098 8.08674 260.282 7.22086C259.478 6.35497 258.098 5.92203 256.144 5.92203H248.388V1.43179H256.218C259.83 1.43179 262.446 2.18635 264.067 3.69547C265.7 5.20458 266.516 7.67854 266.516 11.1173V19.9679H268.984ZM304.126 11.1173V24.4582H283.03V1.43179H293.754C297.416 1.43179 300.057 2.18635 301.677 3.69547C303.31 5.19221 304.126 7.66617 304.126 11.1173ZM288.039 19.9679H299.098V11.6925C299.098 9.58967 298.702 8.1053 297.911 7.23941C297.119 6.36116 295.734 5.92203 293.754 5.92203H288.039V19.9679ZM314.647 1.43179V13.6593H309.637V1.43179H314.647ZM331.643 24.8293C328.229 24.8293 325.718 24.0376 324.11 22.4543C322.502 20.8586 321.698 18.4093 321.698 15.1066V1.43179H326.707V14.9953C326.707 16.8384 327.103 18.1867 327.895 19.0402C328.687 19.8937 329.948 20.3205 331.68 20.3205C332.942 20.3205 334.012 20.0793 334.89 19.5968C335.768 19.102 336.436 18.2485 336.894 17.0363C337.352 15.8117 337.581 14.117 337.581 11.9523C337.581 9.81233 337.339 8.21662 336.857 7.16519C336.374 6.10139 335.577 5.56949 334.463 5.56949C333.387 5.56949 332.261 5.92203 331.086 6.62711V2.08121C332.249 1.3885 333.653 1.04214 335.298 1.04214C337.945 1.04214 339.844 1.90803 340.995 3.6398C342.157 5.3592 342.739 8.11767 342.739 11.9152C342.739 16.3931 341.848 19.6649 340.067 21.7306C338.298 23.7964 335.49 24.8293 331.643 24.8293ZM363.668 11.1173V24.4582H358.64V11.0802C358.64 9.16291 358.226 7.82698 357.397 7.07242C356.581 6.30549 355.201 5.92203 353.259 5.92203H345.54V1.43179H353.556C355.993 1.43179 357.947 1.75959 359.419 2.41519C360.904 3.05842 361.98 4.0913 362.648 5.51382C363.328 6.92398 363.668 8.79182 363.668 11.1173ZM384.338 11.8039C384.338 9.8247 383.887 8.35269 382.984 7.38785C382.081 6.41063 380.658 5.92203 378.716 5.92203H374.43V10.8947H378.939V15.3849H369.365V1.43179H378.753C382.39 1.43179 385.074 2.27912 386.806 3.97379C388.538 5.66845 389.404 8.30321 389.404 11.8781V13.3996C389.404 20.772 385.612 24.4582 378.03 24.4582H369.569V19.9679H377.918C380.058 19.9679 381.66 19.4175 382.724 18.3166C383.8 17.2156 384.338 15.5643 384.338 13.3625V11.8039ZM409.202 1.43179V24.4582H404.192V1.43179H409.202ZM425.771 10.505V24.4582H413.766V19.9679H420.761V11.4699C420.761 9.79996 420.65 8.60627 420.427 7.88882C420.205 7.18375 419.833 6.68277 419.314 6.38589C418.794 6.07665 418.034 5.92203 417.032 5.92203H414.824V1.43179H417.978C420.106 1.43179 421.695 1.7163 422.747 2.28531C423.798 2.85432 424.565 3.78824 425.047 5.08707C425.53 6.38589 425.771 8.19188 425.771 10.505ZM437.071 1.43179V13.6593H432.061V1.43179H437.071ZM449.298 13.3625V24.4582H444.289V13.3253C444.289 11.9894 444.542 10.8699 445.049 9.96695C445.569 9.05158 446.428 8.33414 447.628 7.81461L441.246 5.68082V0.819489L453.64 4.99429V9.83707L451.618 9.18765C450.764 9.6206 450.177 10.1154 449.855 10.672C449.484 11.2658 449.298 12.1626 449.298 13.3625ZM476.833 11.1173V24.4582H471.805V11.0802C471.805 9.18765 471.403 7.8579 470.599 7.09097C469.795 6.31168 468.397 5.92203 466.406 5.92203H456.998V1.43179H466.721C469.158 1.43179 471.112 1.75959 472.584 2.41519C474.069 3.07079 475.145 4.10985 475.813 5.53238C476.493 6.94254 476.833 8.80419 476.833 11.1173ZM462.379 10.4679V24.4582H457.37V10.4679H462.379ZM74.5493 56.1173V69.4582H53.4526V46.4318H64.1772C67.8386 46.4318 70.4796 47.1864 72.1 48.6955C73.7328 50.1922 74.5493 52.6662 74.5493 56.1173ZM58.4623 64.9679H69.5209V56.6925C69.5209 54.5897 69.1251 53.1053 68.3334 52.2394C67.5418 51.3612 66.1564 50.922 64.1772 50.922H58.4623V64.9679ZM85.8491 46.4318V69.4582H80.8393V46.4318H85.8491ZM111.844 54.0763C111.844 56.4266 111.368 58.6222 110.415 60.6632C109.463 62.7043 108.065 64.535 106.222 66.1554C104.391 67.7759 102.146 69.1304 99.4868 70.2189V64.8937C101.812 63.8052 103.606 62.3579 104.868 60.5519C106.142 58.7336 106.779 56.7729 106.779 54.6701C106.779 53.2847 106.432 52.3136 105.74 51.757C105.047 51.2003 103.835 50.922 102.103 50.922H91.3598V46.4318H102.827C105.969 46.4318 108.257 47.0317 109.692 48.2316C111.127 49.4191 111.844 51.3673 111.844 54.0763ZM97.3159 55.3195V76.6017H92.3061V55.3195H97.3159ZM122.179 46.4318V58.6593H117.169V46.4318H122.179ZM140.919 46.3205C144.074 46.3205 146.368 47.2482 147.803 49.1037C149.238 50.9468 149.956 53.8289 149.956 57.7502V69.4582H137.988V64.9679H144.909V58.1398C144.909 55.5298 144.593 53.6619 143.962 52.5363C143.344 51.3983 142.249 50.8293 140.678 50.8293C139.231 50.8293 138.012 51.5529 137.023 53.0002C136.033 54.4845 135.112 56.9585 134.258 60.422L132.013 69.4582H126.669L129.174 59.8468C129.484 58.6841 129.78 57.645 130.065 56.7296C130.362 55.8143 130.646 55.0288 130.918 54.3732L126.317 46.6916H131.865L133.609 49.9572C134.351 48.8192 135.365 47.9285 136.652 47.2853C137.951 46.6421 139.373 46.3205 140.919 46.3205ZM171.627 65.7843C171.133 67.0584 170.372 67.9923 169.345 68.5861C168.318 69.1675 166.828 69.4582 164.873 69.4582H163.612V64.9679H163.927C164.781 64.9679 165.461 64.8071 165.968 64.4855C166.463 64.1639 166.816 63.6753 167.026 63.0197C167.236 62.3517 167.341 61.3436 167.341 59.9953V50.922H163.816V46.4318H176.73C180.292 46.4318 182.847 47.1864 184.393 48.6955C185.952 50.1922 186.731 52.6785 186.731 56.1544V69.4582H181.703V56.2287C181.703 54.2495 181.301 52.8703 180.497 52.091C179.692 51.3117 178.338 50.922 176.433 50.922H172.351V60.6447C172.351 62.7847 172.11 64.4979 171.627 65.7843ZM197.326 62.7414L196.175 69.4582H190.98L192.539 61.7765C192.984 59.6489 193.392 58.1336 193.763 57.2306C194.134 56.3153 194.592 55.5916 195.136 55.0597C195.693 54.5155 196.46 54.033 197.437 53.6125L192.075 46.4318H198.161L205.675 56.841C206.455 56.1359 207.048 55.3071 207.456 54.3546C207.865 53.4022 208.155 52.1157 208.329 50.4953L208.718 46.4318H213.839L213.394 50.8293C213.258 52.0786 213.011 53.1857 212.652 54.1505C212.404 54.8061 212.101 55.4246 211.743 56.006C211.384 56.575 210.914 57.1811 210.332 57.8244C209.763 58.4552 209.009 59.1912 208.069 60.0324L214.99 69.4582H208.941L199.682 56.6183C199.026 57.0018 198.556 57.5584 198.272 58.2882C198.136 58.6593 197.987 59.216 197.827 59.9582C197.666 60.7003 197.499 61.6281 197.326 62.7414ZM232.728 62.7414L231.578 69.4582H226.382L227.941 61.7765C228.386 59.6489 228.794 58.1336 229.165 57.2306C229.537 56.3153 229.994 55.5916 230.539 55.0597C231.095 54.5155 231.862 54.033 232.839 53.6125L227.477 46.4318H233.563L241.078 56.841C241.857 56.1359 242.451 55.3071 242.859 54.3546C243.267 53.4022 243.558 52.1157 243.731 50.4953L244.121 46.4318H249.242L248.796 50.8293C248.66 52.0786 248.413 53.1857 248.054 54.1505C247.807 54.8061 247.504 55.4246 247.145 56.006C246.786 56.575 246.316 57.1811 245.735 57.8244C245.166 58.4552 244.411 59.1912 243.471 60.0324L250.392 69.4582H244.343L235.084 56.6183C234.429 57.0018 233.959 57.5584 233.674 58.2882C233.538 58.6593 233.39 59.216 233.229 59.9582C233.068 60.7003 232.901 61.6281 232.728 62.7414ZM259.335 46.4318V69.4582H254.326V46.4318H259.335ZM283.698 66.2296V69.4582H264.234V64.9679H276.703L262.749 46.4318H268.761L275.793 55.9689C276.61 55.5731 277.197 54.9793 277.556 54.1877C277.927 53.396 278.187 52.2394 278.335 50.7179L278.744 46.4318H283.883L283.494 50.755C283.333 52.4621 283.061 53.798 282.677 54.7628C282.294 55.703 281.743 56.5008 281.026 57.1564C280.308 57.812 279.325 58.3934 278.076 58.9005L283.698 66.2296ZM301.232 46.3205C304.386 46.3205 306.681 47.2482 308.116 49.1037C309.551 50.9468 310.268 53.8289 310.268 57.7502V69.4582H298.3V64.9679H305.221V58.1398C305.221 55.5298 304.906 53.6619 304.275 52.5363C303.656 51.3983 302.562 50.8293 300.991 50.8293C299.543 50.8293 298.325 51.5529 297.335 53.0002C296.346 54.4845 295.424 56.9585 294.571 60.422L292.326 69.4582H286.982L289.487 59.8468C289.796 58.6841 290.093 57.645 290.377 56.7296C290.674 55.8143 290.959 55.0288 291.231 54.3732L286.629 46.6916H292.177L293.921 49.9572C294.664 48.8192 295.678 47.9285 296.964 47.2853C298.263 46.6421 299.686 46.3205 301.232 46.3205ZM316.131 65.172C319.15 64.1824 321.586 62.9331 323.442 61.424C324.728 60.3973 325.712 59.2778 326.392 58.0656C327.072 56.841 327.413 55.5607 327.413 54.2248C327.413 52.0229 326.033 50.922 323.275 50.922H313.849V38.5646H318.97V46.4318H324.11C329.676 46.4318 332.459 48.8625 332.459 53.7238C332.459 56.0493 331.909 58.2264 330.808 60.255C329.72 62.2713 328.161 64.0711 326.132 65.6544C323.46 67.7326 320.127 69.3654 316.131 70.5529V65.172ZM350.699 46.4318C351.8 46.4318 352.715 46.5184 353.445 46.6916C354.187 46.8647 354.805 47.1678 355.3 47.6007C355.807 48.0213 356.247 48.6027 356.618 49.3449C356.902 49.9015 357.199 50.6808 357.508 51.6828C357.817 52.6724 358.145 53.8846 358.492 55.3195L361.757 69.4582H356.766L354.911 61.1828C354.008 61.4178 353.371 61.7332 352.999 62.1291C352.628 62.5249 352.313 63.1496 352.053 64.0031C352.004 64.1763 351.923 64.4793 351.812 64.9123C351.713 65.3328 351.589 65.8771 351.441 66.5451L350.81 69.4582H345.707L346.468 66.1183C346.691 65.0916 346.914 64.2072 347.136 63.465C347.359 62.7104 347.588 62.0919 347.823 61.6095C348.28 60.6447 348.868 59.8778 349.585 59.3087C350.315 58.7274 351.317 58.2449 352.591 57.8615L354.076 57.4162C353.902 56.5874 353.729 55.8452 353.556 55.1896C353.383 54.534 353.222 53.9712 353.074 53.5011C352.764 52.5487 352.406 51.8807 351.997 51.4972C351.589 51.1138 350.928 50.922 350.012 50.922H347.507V46.4318H350.699ZM370.33 62.7414L369.179 69.4582H363.984L365.542 61.7765C365.988 59.6489 366.396 58.1336 366.767 57.2306C367.138 56.3153 367.596 55.5916 368.14 55.0597C368.697 54.5155 369.464 54.033 370.441 53.6125L365.079 46.4318H371.164L378.679 56.841C379.458 56.1359 380.052 55.3071 380.46 54.3546C380.869 53.4022 381.159 52.1157 381.332 50.4953L381.722 46.4318H386.843L386.398 50.8293C386.262 52.0786 386.014 53.1857 385.656 54.1505C385.408 54.8061 385.105 55.4246 384.747 56.006C384.388 56.575 383.918 57.1811 383.336 57.8244C382.767 58.4552 382.013 59.1912 381.073 60.0324L387.994 69.4582H381.945L372.686 56.6183C372.03 57.0018 371.56 57.5584 371.276 58.2882C371.14 58.6593 370.991 59.216 370.831 59.9582C370.67 60.7003 370.503 61.6281 370.33 62.7414ZM406.938 50.922V69.4582H401.928V50.922H389.459V46.4318H409.795V50.922H406.938ZM424.157 55.505V69.4582H412.152V64.9679H419.147V56.4699C419.147 54.8 419.036 53.6063 418.813 52.8888C418.59 52.1837 418.219 51.6828 417.7 51.3859C417.18 51.0766 416.419 50.922 415.417 50.922H413.209V46.4318H416.364C418.491 46.4318 420.081 46.7163 421.132 47.2853C422.184 47.8543 422.951 48.7882 423.433 50.0871C423.915 51.3859 424.157 53.1919 424.157 55.505ZM44.2309 101.117V114.458H23.1342V91.4318H33.8588C37.5203 91.4318 40.1612 92.1864 41.7817 93.6955C43.4145 95.1922 44.2309 97.6662 44.2309 101.117ZM28.144 109.968H39.2026V101.693C39.2026 99.5897 38.8067 98.1053 38.0151 97.2394C37.2234 96.3612 35.838 95.922 33.8588 95.922H28.144V109.968ZM66.2182 103.4C66.2182 110.772 62.4578 114.458 54.937 114.458H48.7768V109.968H54.6586C56.8728 109.968 58.5118 109.411 59.5756 108.298C60.6394 107.185 61.1713 105.49 61.1713 103.214V102.713C61.1713 100.4 60.6394 98.6929 59.5756 97.5919C58.5118 96.4787 56.8976 95.922 54.7328 95.922H48.7768V91.4318H55.1967C62.5444 91.4318 66.2182 95.1056 66.2182 102.453V103.4ZM86.0346 101.117V114.458H81.0063V101.08C81.0063 99.1629 80.5919 97.827 79.7631 97.0724C78.9467 96.3055 77.5675 95.922 75.6254 95.922H67.9067V91.4318H75.9223C78.3592 91.4318 80.3136 91.7596 81.7856 92.4152C83.27 93.0584 84.3461 94.0913 85.0141 95.5138C85.6944 96.924 86.0346 98.7918 86.0346 101.117ZM98.4662 91.4318V114.458H93.4565V91.4318H98.4662ZM124.684 109.968V114.458H103.216V109.968H117.206V101.767C117.206 99.602 116.798 98.0867 115.982 97.2209C115.178 96.355 113.799 95.922 111.844 95.922H104.088V91.4318H111.918C115.53 91.4318 118.147 92.1864 119.767 93.6955C121.4 95.2046 122.216 97.6785 122.216 101.117V109.968H124.684ZM126.799 110.395C130.003 110.333 132.483 110.017 134.24 109.448L127.671 91.4318H133.108L138.581 107.203C139.522 106.449 140.27 105.422 140.827 104.123C141.396 102.812 141.81 101.124 142.07 99.0578C142.33 96.9796 142.459 94.4377 142.459 91.4318H147.618C147.618 97.3569 146.962 101.971 145.651 105.274C144.773 107.5 143.542 109.331 141.958 110.766C140.375 112.188 138.346 113.264 135.872 113.994C133.399 114.724 130.374 115.169 126.799 115.33V110.395ZM183.317 101.117V114.458H162.22V91.4318H172.945C176.606 91.4318 179.247 92.1864 180.868 93.6955C182.5 95.1922 183.317 97.6662 183.317 101.117ZM167.23 109.968H178.289V101.693C178.289 99.5897 177.893 98.1053 177.101 97.2394C176.309 96.3612 174.924 95.922 172.945 95.922H167.23V109.968ZM193.837 91.4318V103.659H188.828V91.4318H193.837ZM205.415 107.741L204.265 114.458H199.07L200.628 106.777C201.074 104.649 201.482 103.134 201.853 102.231C202.224 101.315 202.682 100.592 203.226 100.06C203.783 99.5155 204.55 99.033 205.527 98.6125L200.164 91.4318H206.25L213.765 101.841C214.544 101.136 215.138 100.307 215.546 99.3546C215.955 98.4022 216.245 97.1157 216.418 95.4953L216.808 91.4318H221.929L221.484 95.8293C221.348 97.0786 221.1 98.1857 220.742 99.1505C220.494 99.8061 220.191 100.425 219.832 101.006C219.474 101.575 219.004 102.181 218.422 102.824C217.853 103.455 217.099 104.191 216.159 105.032L223.08 114.458H217.031L207.772 101.618C207.116 102.002 206.646 102.558 206.362 103.288C206.226 103.659 206.077 104.216 205.916 104.958C205.756 105.7 205.589 106.628 205.415 107.741ZM232.932 110.784C232.437 112.058 231.677 112.992 230.65 113.586C229.623 114.167 228.133 114.458 226.178 114.458H224.916V109.968H225.232C226.085 109.968 226.766 109.807 227.273 109.486C227.768 109.164 228.12 108.675 228.331 108.02C228.541 107.352 228.646 106.344 228.646 104.995V95.922H225.121V91.4318H238.035C241.597 91.4318 244.151 92.1864 245.698 93.6955C247.256 95.1922 248.036 97.6785 248.036 101.154V114.458H243.007V101.229C243.007 99.2495 242.605 97.8703 241.801 97.091C240.997 96.3117 239.643 95.922 237.738 95.922H233.656V105.645C233.656 107.785 233.414 109.498 232.932 110.784ZM266.572 91.3205C269.726 91.3205 272.021 92.2482 273.456 94.1037C274.89 95.9468 275.608 98.8289 275.608 102.75V114.458H263.64V109.968H270.561V103.14C270.561 100.53 270.246 98.6619 269.615 97.5363C268.996 96.3983 267.901 95.8293 266.331 95.8293C264.883 95.8293 263.665 96.5529 262.675 98.0002C261.686 99.4845 260.764 101.958 259.911 105.422L257.665 114.458H252.322L254.827 104.847C255.136 103.684 255.433 102.645 255.717 101.73C256.014 100.814 256.299 100.029 256.571 99.3732L251.969 91.6916H257.517L259.261 94.9572C260.003 93.8192 261.018 92.9285 262.304 92.2853C263.603 91.6421 265.025 91.3205 266.572 91.3205ZM301.325 101.117V114.458H296.296V101.08C296.296 99.1877 295.894 97.8579 295.09 97.091C294.286 96.3117 292.888 95.922 290.897 95.922H281.49V91.4318H291.212C293.649 91.4318 295.604 91.7596 297.076 92.4152C298.56 93.0708 299.636 94.1099 300.304 95.5324C300.984 96.9425 301.325 98.8042 301.325 101.117ZM286.871 100.468V114.458H281.861V100.468H286.871ZM338.137 101.117V114.458H317.04V91.4318H327.765C331.427 91.4318 334.067 92.1864 335.688 93.6955C337.321 95.1922 338.137 97.6662 338.137 101.117ZM322.05 109.968H333.109V101.693C333.109 99.5897 332.713 98.1053 331.921 97.2394C331.13 96.3612 329.744 95.922 327.765 95.922H322.05V109.968ZM348.658 91.4318V103.659H343.648V91.4318H348.658ZM371.517 101.117V114.458H366.489V101.08C366.489 99.1629 366.074 97.827 365.246 97.0724C364.429 96.3055 363.05 95.922 361.108 95.922H353.389V91.4318H361.405C363.842 91.4318 365.796 91.7596 367.268 92.4152C368.752 93.0584 369.829 94.0913 370.497 95.5138C371.177 96.924 371.517 98.7918 371.517 101.117ZM382.798 91.4318V114.458H377.789V91.4318H382.798ZM392.187 91.4318C393.288 91.4318 394.203 91.5184 394.933 91.6916C395.675 91.8647 396.294 92.1678 396.789 92.6007C397.296 93.0213 397.735 93.6027 398.106 94.3449C398.39 94.9015 398.687 95.6808 398.997 96.6828C399.306 97.6724 399.634 98.8846 399.98 100.319L403.246 114.458H398.254L396.399 106.183C395.496 106.418 394.859 106.733 394.488 107.129C394.117 107.525 393.801 108.15 393.541 109.003C393.492 109.176 393.412 109.479 393.3 109.912C393.201 110.333 393.078 110.877 392.929 111.545L392.298 114.458H387.196L387.956 111.118C388.179 110.092 388.402 109.207 388.624 108.465C388.847 107.71 389.076 107.092 389.311 106.61C389.769 105.645 390.356 104.878 391.074 104.309C391.803 103.727 392.805 103.245 394.08 102.861L395.564 102.416C395.391 101.587 395.218 100.845 395.044 100.19C394.871 99.534 394.71 98.9712 394.562 98.5011C394.253 97.5487 393.894 96.8807 393.486 96.4972C393.078 96.1138 392.416 95.922 391.5 95.922H388.996V91.4318H392.187ZM419.759 91.3205C422.914 91.3205 425.208 92.2482 426.643 94.1037C428.078 95.9468 428.795 98.8289 428.795 102.75V114.458H416.828V109.968H423.748V103.14C423.748 100.53 423.433 98.6619 422.802 97.5363C422.184 96.3983 421.089 95.8293 419.518 95.8293C418.071 95.8293 416.852 96.5529 415.863 98.0002C414.873 99.4845 413.952 101.958 413.098 105.422L410.853 114.458H405.509L408.014 104.847C408.323 103.684 408.62 102.645 408.905 101.73C409.202 100.814 409.486 100.029 409.758 99.3732L405.157 91.6916H410.705L412.449 94.9572C413.191 93.8192 414.205 92.9285 415.492 92.2853C416.79 91.6421 418.213 91.3205 419.759 91.3205ZM454.512 101.117V114.458H449.484V101.08C449.484 99.1877 449.082 97.8579 448.278 97.091C447.474 96.3117 446.076 95.922 444.084 95.922H434.677V91.4318H444.4C446.837 91.4318 448.791 91.7596 450.263 92.4152C451.747 93.0708 452.824 94.1099 453.492 95.5324C454.172 96.9425 454.512 98.8042 454.512 101.117ZM440.058 100.468V114.458H435.048V100.468H440.058Z" fill="#9E4A6C"/>
</svg>
