<svg width="386" height="29" viewBox="0 0 386 29" fill="none" xmlns="http://www.w3.org/2000/svg">
<path d="M25.9525 12.7903V28.5886H0.969604V1.32056H13.6698C18.0057 1.32056 21.1332 2.21411 23.0521 4.00122C24.9857 5.77368 25.9525 8.70337 25.9525 12.7903ZM6.90222 23.2712H19.9979V13.4714C19.9979 10.9812 19.5292 9.22339 18.5917 8.198C17.6542 7.15796 16.0135 6.63794 13.6698 6.63794H6.90222V23.2712ZM38.411 1.32056V15.8005H32.4784V1.32056H38.411ZM52.913 1.32056V15.8005H46.9803V1.32056H52.913ZM83.6088 25.886C82.4076 26.5598 80.9281 27.1165 79.1703 27.5559C77.4271 27.9807 75.2518 28.2957 72.6444 28.5007C70.0516 28.7058 66.8802 28.8083 63.1302 28.8083L57.9886 1.32056H64.2069L66.6019 14.4602L68.2059 14.1526C69.202 13.9622 69.9344 13.6399 70.4032 13.1858C70.8866 12.717 71.2528 12.0212 71.5018 11.0984C71.619 10.6443 71.7289 10.0144 71.8314 9.20874C71.9486 8.38843 72.0585 7.39233 72.161 6.22046L72.4906 1.32056H78.5551L77.8959 8.83521C77.808 9.8606 77.6835 10.7834 77.5223 11.6038C77.3612 12.4241 77.1561 13.1345 76.9071 13.7351C76.4237 14.9363 75.7426 15.8738 74.8636 16.5476C73.9994 17.2214 72.6224 17.7854 70.7328 18.2395L67.4369 19.0085L68.3378 23.5129H68.8651C70.6962 23.5129 72.3148 23.4397 73.7211 23.2932C75.142 23.1321 76.3505 22.8904 77.3466 22.5681C78.6796 22.158 79.7782 21.5867 80.6425 20.8542C81.5067 20.1072 82.1879 19.1184 82.6859 17.8879C83.184 16.6428 83.5355 15.0681 83.7406 13.1638L85.1249 1.32056H91.2552L89.849 13.01C89.556 15.5295 89.1459 17.6169 88.6185 19.2722C88.1058 20.9275 87.4393 22.2751 86.619 23.3152C85.8134 24.3406 84.8099 25.1975 83.6088 25.886ZM102.747 1.32056V15.8005H96.8143V1.32056H102.747ZM115.535 20.6345L114.173 28.5886H108.02L109.866 19.4919C110.393 16.9724 110.877 15.178 111.316 14.1086C111.756 13.0247 112.298 12.1677 112.942 11.5378C113.601 10.8933 114.51 10.322 115.667 9.82397L109.317 1.32056H116.524L125.423 13.6472C126.346 12.8123 127.049 11.8308 127.532 10.7029C128.016 9.57495 128.36 8.05151 128.565 6.13257L129.026 1.32056H135.091L134.563 6.52808C134.402 8.00757 134.109 9.3186 133.684 10.4612C133.391 11.2375 133.033 11.97 132.608 12.6584C132.183 13.3323 131.626 14.05 130.938 14.8118C130.264 15.5588 129.37 16.4304 128.257 17.4265L136.453 28.5886H129.29L118.326 13.3835C117.549 13.8376 116.993 14.4968 116.656 15.3611C116.495 15.8005 116.319 16.4597 116.128 17.3386C115.938 18.2175 115.74 19.3162 115.535 20.6345ZM177.3 12.7903V28.5886H152.317V1.32056H165.017C169.353 1.32056 172.481 2.21411 174.4 4.00122C176.333 5.77368 177.3 8.70337 177.3 12.7903ZM158.25 23.2712H171.346V13.4714C171.346 10.9812 170.877 9.22339 169.939 8.198C169.002 7.15796 167.361 6.63794 165.017 6.63794H158.25V23.2712ZM189.759 1.32056V15.8005H183.826V1.32056H189.759ZM210.303 12.0652V28.5886H196.087V23.2712H204.37V13.2078C204.37 11.2302 204.239 9.81665 203.975 8.96704C203.711 8.13208 203.272 7.53882 202.657 7.18726C202.041 6.82104 201.141 6.63794 199.954 6.63794H197.339V1.32056H201.075C203.594 1.32056 205.476 1.65747 206.722 2.3313C207.967 3.00513 208.875 4.11108 209.446 5.64917C210.017 7.18726 210.303 9.32593 210.303 12.0652ZM223.684 1.32056V28.5886H217.752V1.32056H223.684ZM238.34 24.238C237.754 25.7468 236.853 26.8528 235.638 27.5559C234.422 28.2444 232.657 28.5886 230.342 28.5886H228.848V23.2712H229.222C230.232 23.2712 231.038 23.0808 231.639 22.7C232.224 22.3191 232.642 21.7405 232.891 20.9641C233.14 20.1731 233.265 18.9792 233.265 17.3826V6.63794H229.09V1.32056H244.383C248.601 1.32056 251.626 2.21411 253.457 4.00122C255.303 5.77368 256.226 8.71802 256.226 12.8342V28.5886H250.271V12.9221C250.271 10.5784 249.795 8.94507 248.843 8.02222C247.891 7.09937 246.287 6.63794 244.031 6.63794H239.197V18.1516C239.197 20.6858 238.911 22.7146 238.34 24.238ZM275.606 12.0652V28.5886H261.39V23.2712H269.673V13.2078C269.673 11.2302 269.541 9.81665 269.278 8.96704C269.014 8.13208 268.575 7.53882 267.959 7.18726C267.344 6.82104 266.443 6.63794 265.257 6.63794H262.642V1.32056H266.377C268.897 1.32056 270.779 1.65747 272.024 2.3313C273.269 3.00513 274.178 4.11108 274.749 5.64917C275.32 7.18726 275.606 9.32593 275.606 12.0652ZM301.27 24.238C300.684 25.7468 299.783 26.8528 298.567 27.5559C297.351 28.2444 295.586 28.5886 293.272 28.5886H291.778V23.2712H292.151C293.162 23.2712 293.968 23.0808 294.568 22.7C295.154 22.3191 295.572 21.7405 295.821 20.9641C296.07 20.1731 296.194 18.9792 296.194 17.3826V6.63794H292.019V1.32056H307.312C311.531 1.32056 314.556 2.21411 316.387 4.00122C318.233 5.77368 319.156 8.71802 319.156 12.8342V28.5886H313.201V12.9221C313.201 10.5784 312.725 8.94507 311.773 8.02222C310.821 7.09937 309.217 6.63794 306.961 6.63794H302.127V18.1516C302.127 20.6858 301.841 22.7146 301.27 24.238ZM338.536 12.0652V28.5886H324.319V23.2712H332.603V13.2078C332.603 11.2302 332.471 9.81665 332.207 8.96704C331.944 8.13208 331.504 7.53882 330.889 7.18726C330.274 6.82104 329.373 6.63794 328.186 6.63794H325.572V1.32056H329.307C331.827 1.32056 333.709 1.65747 334.954 2.3313C336.199 3.00513 337.107 4.11108 337.679 5.64917C338.25 7.18726 338.536 9.32593 338.536 12.0652ZM352.818 15.449V28.5886H346.885V15.405C346.885 13.823 347.185 12.4973 347.786 11.428C348.401 10.344 349.419 9.49438 350.84 8.87915L343.282 6.35229V0.595459L357.959 5.53931V11.2742L355.564 10.5051C354.554 11.0178 353.858 11.6038 353.477 12.2629C353.037 12.9661 352.818 14.0281 352.818 15.449ZM385.425 12.7903V28.5886H379.471V12.7463C379.471 10.5051 378.995 8.93042 378.042 8.02222C377.09 7.09937 375.435 6.63794 373.077 6.63794H361.936V1.32056H373.45C376.336 1.32056 378.65 1.70874 380.393 2.48511C382.151 3.26147 383.426 4.49194 384.217 6.17651C385.022 7.84644 385.425 10.051 385.425 12.7903ZM368.308 12.0212V28.5886H362.376V12.0212H368.308Z" fill="#C68AA2"/>
</svg>
