<svg width="634" height="129" viewBox="0 0 634 129" fill="none" xmlns="http://www.w3.org/2000/svg">
<path d="M4.28125 9.40942V22.0071H0.6875V9.40942H4.28125ZM26.4883 21.7336C26.4883 29.4941 22.8164 33.3743 15.4727 33.3743H9.24219V30.054H15.5508C18.0378 30.054 19.8737 29.3639 21.0586 27.9836C22.2435 26.6034 22.8359 24.5331 22.8359 21.7727V21.011C22.8359 18.2375 22.237 16.1672 21.0391 14.8C19.8542 13.4198 18.0247 12.7297 15.5508 12.7297H9.24219V9.40942H15.4727C22.8164 9.40942 26.4883 13.2896 26.4883 21.05V21.7336ZM50.8633 19.3313V33.3743H47.25V19.2922C47.25 16.8964 46.7617 15.2037 45.7852 14.2141C44.8216 13.2245 43.1484 12.7297 40.7656 12.7297H31.6641V9.40942H40.8242C43.2201 9.40942 45.1536 9.74797 46.625 10.425C48.0964 11.0891 49.1706 12.1503 49.8477 13.6086C50.5247 15.054 50.8633 16.9615 50.8633 19.3313ZM35.6484 17.8079V33.3743H32.0547V17.8079H35.6484ZM82.1719 19.3313V33.3743H78.5586V19.2922C78.5586 16.9224 78.0768 15.2362 77.1133 14.2336C76.1628 13.231 74.4896 12.7297 72.0938 12.7297H64.7695V9.40942H72.1328C74.5286 9.40942 76.4622 9.74797 77.9336 10.425C79.4049 11.0891 80.4792 12.1503 81.1562 13.6086C81.8333 15.054 82.1719 16.9615 82.1719 19.3313ZM92.3672 9.40942V22.0071H88.7734V9.40942H92.3672ZM96.5664 30.2102C100.173 30.2102 102.999 29.8782 105.043 29.2141L97.7969 9.40942H101.762L108.168 27.6907C109.392 26.8183 110.375 25.6529 111.117 24.1946C111.872 22.7232 112.419 20.7961 112.758 18.4133C113.109 16.0305 113.285 13.0292 113.285 9.40942H117.055C117.055 15.425 116.417 20.1386 115.141 23.55C114.281 25.8157 113.077 27.6907 111.527 29.175C109.978 30.6464 107.979 31.7792 105.531 32.5735C103.096 33.3547 100.108 33.8365 96.5664 34.0188V30.2102ZM122.426 30.2102C124.926 29.2857 127.061 28.1139 128.832 26.6946C130.616 25.2883 131.97 23.7519 132.895 22.0852C133.832 20.4185 134.301 18.7258 134.301 17.0071C134.301 14.1555 132.777 12.7297 129.73 12.7297H120.023V0.854736H123.617V9.40942H130.102C135.323 9.40942 137.934 11.7336 137.934 16.3821C137.934 18.7779 137.361 21.0761 136.215 23.2766C135.069 25.4771 133.454 27.4563 131.371 29.2141C128.897 31.3235 125.915 33.0032 122.426 34.2532V30.2102ZM168.305 12.7297V33.3743H164.691V12.7297H151.02V9.40942H171.293V12.7297H168.305ZM179.398 9.40942V33.3743H175.805V9.40942H179.398ZM204.203 16.8508C204.203 19.2987 203.708 21.623 202.719 23.8235C201.729 26.024 200.329 27.9967 198.52 29.7415C196.71 31.4732 194.561 32.8599 192.074 33.9016V29.7805C194.796 28.5566 196.885 26.8573 198.344 24.6829C199.815 22.4954 200.551 20.0474 200.551 17.3391C200.551 15.5943 200.167 14.3899 199.398 13.7258C198.643 13.0618 197.335 12.7297 195.473 12.7297H185.199V9.40942H195.316C198.533 9.40942 200.818 9.98885 202.172 11.1477C203.526 12.2935 204.203 14.1946 204.203 16.8508ZM189.789 17.8079V40.8938H186.195V17.8079H189.789ZM213.383 9.40942V22.0071H209.789V9.40942H213.383ZM229.145 18.6868V33.3743H218.188V30.054H225.551V19.7024C225.551 17.593 225.447 16.1021 225.238 15.2297C225.03 14.3313 224.665 13.6933 224.145 13.3157C223.637 12.925 222.901 12.7297 221.938 12.7297H219.301V9.40942H221.82C223.904 9.40942 225.427 9.69588 226.391 10.2688C227.354 10.8547 228.051 11.8118 228.48 13.1399C228.923 14.455 229.145 16.304 229.145 18.6868ZM244.926 20.8157C244.926 19.761 245.01 18.6998 245.18 17.6321C245.362 16.5514 245.596 15.5748 245.883 14.7024C246.182 13.83 246.501 13.1724 246.84 12.7297H243.324V9.40942H256.293C259.887 9.40942 262.465 10.1777 264.027 11.7141C265.59 13.2375 266.371 15.7766 266.371 19.3313V21.05C266.371 25.2167 265.434 28.3808 263.559 30.5422C261.697 32.6907 258.969 33.7649 255.375 33.7649C251.807 33.7649 249.171 32.7623 247.465 30.7571C245.772 28.7389 244.926 25.6529 244.926 21.4993V20.8157ZM250.043 12.7297C249.171 14.2662 248.734 16.9094 248.734 20.6594V21.6946C248.734 24.5592 249.307 26.7336 250.453 28.218C251.612 29.7024 253.279 30.4446 255.453 30.4446C257.94 30.4446 259.737 29.7089 260.844 28.2375C261.964 26.7662 262.523 24.3573 262.523 21.011V19.2922C262.523 16.8704 262.061 15.1711 261.137 14.1946C260.212 13.218 258.585 12.7297 256.254 12.7297H250.043ZM274.75 9.40942V22.0071H271.156V9.40942H274.75ZM281.566 20.8157C281.566 19.761 281.651 18.6998 281.82 17.6321C282.003 16.5514 282.237 15.5748 282.523 14.7024C282.823 13.83 283.142 13.1724 283.48 12.7297H279.965V9.40942H292.934C296.527 9.40942 299.105 10.1777 300.668 11.7141C302.23 13.2375 303.012 15.7766 303.012 19.3313V21.05C303.012 25.2167 302.074 28.3808 300.199 30.5422C298.337 32.6907 295.609 33.7649 292.016 33.7649C288.448 33.7649 285.811 32.7623 284.105 30.7571C282.413 28.7389 281.566 25.6529 281.566 21.4993V20.8157ZM286.684 12.7297C285.811 14.2662 285.375 16.9094 285.375 20.6594V21.6946C285.375 24.5592 285.948 26.7336 287.094 28.218C288.253 29.7024 289.919 30.4446 292.094 30.4446C294.581 30.4446 296.378 29.7089 297.484 28.2375C298.604 26.7662 299.164 24.3573 299.164 21.011V19.2922C299.164 16.8704 298.702 15.1711 297.777 14.1946C296.853 13.218 295.225 12.7297 292.895 12.7297H286.684ZM327.738 30.054V33.3743H306.82V30.054H321.547V19.2922C321.547 16.8964 321.059 15.2037 320.082 14.2141C319.118 13.2245 317.445 12.7297 315.062 12.7297H307.738V9.40942H315.102C318.695 9.40942 321.267 10.1777 322.816 11.7141C324.366 13.2506 325.141 15.7896 325.141 19.3313V30.054H327.738ZM342.895 30.2102C345.395 29.2857 347.53 28.1139 349.301 26.6946C351.085 25.2883 352.439 23.7519 353.363 22.0852C354.301 20.4185 354.77 18.7258 354.77 17.0071C354.77 14.1555 353.246 12.7297 350.199 12.7297H340.492V0.854736H344.086V9.40942H350.57C355.792 9.40942 358.402 11.7336 358.402 16.3821C358.402 18.7779 357.829 21.0761 356.684 23.2766C355.538 25.4771 353.923 27.4563 351.84 29.2141C349.366 31.3235 346.384 33.0032 342.895 34.2532V30.2102ZM361.137 30.2102C364.743 30.2102 367.569 29.8782 369.613 29.2141L362.367 9.40942H366.332L372.738 27.6907C373.962 26.8183 374.945 25.6529 375.688 24.1946C376.443 22.7232 376.99 20.7961 377.328 18.4133C377.68 16.0305 377.855 13.0292 377.855 9.40942H381.625C381.625 15.425 380.987 20.1386 379.711 23.55C378.852 25.8157 377.647 27.6907 376.098 29.175C374.548 30.6464 372.549 31.7792 370.102 32.5735C367.667 33.3547 364.678 33.8365 361.137 34.0188V30.2102ZM415.746 19.3313V33.3743H412.133V19.2922C412.133 16.8964 411.645 15.2037 410.668 14.2141C409.704 13.2245 408.031 12.7297 405.648 12.7297H396.547V9.40942H405.707C408.103 9.40942 410.036 9.74797 411.508 10.425C412.979 11.0891 414.053 12.1503 414.73 13.6086C415.408 15.054 415.746 16.9615 415.746 19.3313ZM400.531 17.8079V33.3743H396.938V17.8079H400.531ZM434.125 9.0188C437.276 9.0188 439.574 9.98234 441.02 11.9094C442.478 13.8235 443.207 16.8704 443.207 21.05V33.3743H431.449V30.054H439.574V21.4993C439.574 18.3092 439.164 15.9915 438.344 14.5461C437.523 13.1008 436.13 12.3782 434.164 12.3782C432.406 12.3782 430.961 13.1724 429.828 14.761C428.682 16.3756 427.634 19.1816 426.684 23.179L424.242 33.3743H420.375L423.051 22.886C423.35 21.662 423.656 20.5553 423.969 19.5657C424.281 18.5761 424.587 17.6972 424.887 16.929L420.004 9.40942H424.242L426.684 13.3743C427.699 11.8378 428.786 10.731 429.945 10.054C431.104 9.36385 432.497 9.0188 434.125 9.0188ZM453.07 25.5032L451.508 33.3743H447.719L449.359 25.5813C449.828 23.3417 450.258 21.7662 450.648 20.8547C451.039 19.9303 451.527 19.1816 452.113 18.6086C452.712 18.0357 453.513 17.5474 454.516 17.1438L448.871 9.40942H453.305L462.113 21.5383C463.09 20.6269 463.865 19.5266 464.438 18.2375C465.023 16.9355 465.408 15.4446 465.59 13.7649L466.039 9.40942H469.75L469.301 13.6868C469.158 15.1191 468.897 16.3756 468.52 17.4563C468.259 18.1985 467.947 18.9081 467.582 19.5852C467.217 20.2493 466.749 20.9394 466.176 21.6555C465.616 22.3717 464.887 23.1724 463.988 24.0579L471.039 33.3743H466.469L456.156 19.3704C455.115 19.8782 454.372 20.7571 453.93 22.0071C453.799 22.3326 453.663 22.7883 453.52 23.3743C453.389 23.9602 453.24 24.6698 453.07 25.5032ZM479.613 29.6633C479.171 30.9784 478.467 31.929 477.504 32.5149C476.54 33.0878 475.023 33.3743 472.953 33.3743H472.738V30.054H473.07C473.969 30.054 474.685 29.8847 475.219 29.5461C475.74 29.2076 476.111 28.6933 476.332 28.0032C476.553 27.3 476.664 26.2389 476.664 24.8196V12.7297H472.953V9.40942H485.902C489.496 9.40942 492.074 10.1777 493.637 11.7141C495.199 13.2375 495.98 15.7766 495.98 19.3313V33.3743H492.387V19.2922C492.387 16.8964 491.898 15.2037 490.922 14.2141C489.958 13.2245 488.272 12.7297 485.863 12.7297H480.258V24.0969C480.258 26.4928 480.043 28.3482 479.613 29.6633ZM521.371 19.3313V33.3743H517.758V19.2922C517.758 16.8964 517.27 15.2037 516.293 14.2141C515.329 13.2245 513.656 12.7297 511.273 12.7297H502.172V9.40942H511.332C513.728 9.40942 515.661 9.74797 517.133 10.425C518.604 11.0891 519.678 12.1503 520.355 13.6086C521.033 15.054 521.371 16.9615 521.371 19.3313ZM506.156 17.8079V33.3743H502.562V17.8079H506.156ZM558.441 19.3313V33.3743H537.914V9.40942H548.402C551.996 9.40942 554.568 10.1777 556.117 11.7141C557.667 13.2506 558.441 15.7896 558.441 19.3313ZM541.508 30.054H554.828V19.2922C554.828 16.9224 554.346 15.2362 553.383 14.2336C552.432 13.231 550.759 12.7297 548.363 12.7297H541.508V30.054ZM567.836 9.40942V22.0071H564.242V9.40942H567.836ZM590.219 19.3313V33.3743H586.605V19.2922C586.605 16.9224 586.124 15.2362 585.16 14.2336C584.21 13.231 582.536 12.7297 580.141 12.7297H572.816V9.40942H580.18C582.576 9.40942 584.509 9.74797 585.98 10.425C587.452 11.0891 588.526 12.1503 589.203 13.6086C589.88 15.054 590.219 16.9615 590.219 19.3313ZM613.5 30.2883V33.3743H595.062V30.054H609.027L593.617 9.40942H598.109L605.551 19.5266C606.553 19.0969 607.283 18.4654 607.738 17.6321C608.194 16.7857 608.5 15.4967 608.656 13.7649L609.105 9.40942H612.816L612.426 13.6868C612.257 15.4836 611.99 16.8639 611.625 17.8274C611.26 18.7779 610.746 19.5657 610.082 20.1907C609.418 20.8157 608.48 21.3691 607.27 21.8508L613.5 30.2883ZM622.211 9.40942V33.3743H618.617V9.40942H622.211ZM632.602 9.40942V22.0071H629.008V9.40942H632.602ZM46 63.8508C46 66.2987 45.5052 68.623 44.5156 70.8235C43.526 73.024 42.1263 74.9967 40.3164 76.7415C38.5065 78.4732 36.3581 79.8599 33.8711 80.9016V76.7805C36.5924 75.5566 38.6823 73.8573 40.1406 71.6829C41.612 69.4954 42.3477 67.0474 42.3477 64.3391C42.3477 62.5943 41.9635 61.3899 41.1953 60.7258C40.4401 60.0618 39.1315 59.7297 37.2695 59.7297H26.9961V56.4094H37.1133C40.3294 56.4094 42.6146 56.9889 43.9688 58.1477C45.3229 59.2935 46 61.1946 46 63.8508ZM31.5859 64.8079V87.8938H27.9922V64.8079H31.5859ZM66.3516 66.3313V80.3743H62.7383V66.2922C62.7383 63.9224 62.2565 62.2362 61.293 61.2336C60.3424 60.231 58.6693 59.7297 56.2734 59.7297H48.9492V56.4094H56.3125C58.7083 56.4094 60.6419 56.748 62.1133 57.425C63.5846 58.0891 64.6589 59.1503 65.3359 60.6086C66.013 62.054 66.3516 63.9615 66.3516 66.3313ZM101.684 66.3313V80.3743H98.0703V66.2922C98.0703 63.8964 97.582 62.2037 96.6055 61.2141C95.6419 60.2245 93.9688 59.7297 91.5859 59.7297H82.4844V56.4094H91.6445C94.0404 56.4094 95.974 56.748 97.4453 57.425C98.9167 58.0891 99.9909 59.1503 100.668 60.6086C101.345 62.054 101.684 63.9615 101.684 66.3313ZM86.4688 64.8079V80.3743H82.875V64.8079H86.4688ZM111.84 67.1321V80.3743H108.246V67.2883C108.246 65.9081 108.507 64.7883 109.027 63.929C109.561 63.0696 110.46 62.4316 111.723 62.0149L105.043 59.7688V56.0579L116.41 59.886V63.6165L114.281 62.8938C113.487 63.3235 112.953 63.7011 112.68 64.0266C112.12 64.6777 111.84 65.7128 111.84 67.1321ZM145.922 66.3313V80.3743H142.309V66.2922C142.309 63.9224 141.827 62.2362 140.863 61.2336C139.913 60.231 138.24 59.7297 135.844 59.7297H128.52V56.4094H135.883C138.279 56.4094 140.212 56.748 141.684 57.425C143.155 58.0891 144.229 59.1503 144.906 60.6086C145.583 62.054 145.922 63.9615 145.922 66.3313ZM155.766 72.5032L154.203 80.3743H150.414L152.055 72.5813C152.523 70.3417 152.953 68.7662 153.344 67.8547C153.734 66.9303 154.223 66.1816 154.809 65.6086C155.408 65.0357 156.208 64.5474 157.211 64.1438L151.566 56.4094H156L164.809 68.5383C165.785 67.6269 166.56 66.5266 167.133 65.2375C167.719 63.9355 168.103 62.4446 168.285 60.7649L168.734 56.4094H172.445L171.996 60.6868C171.853 62.1191 171.592 63.3756 171.215 64.4563C170.954 65.1985 170.642 65.9081 170.277 66.5852C169.913 67.2493 169.444 67.9394 168.871 68.6555C168.311 69.3717 167.582 70.1724 166.684 71.0579L173.734 80.3743H169.164L158.852 66.3704C157.81 66.8782 157.068 67.7571 156.625 69.0071C156.495 69.3326 156.358 69.7883 156.215 70.3743C156.085 70.9602 155.935 71.6698 155.766 72.5032ZM195.609 77.9524C194.711 78.5514 193.591 79.0396 192.25 79.4172C190.922 79.7948 189.255 80.0748 187.25 80.2571C185.245 80.4394 182.764 80.5435 179.809 80.5696L175.238 56.4094H178.969L181.371 68.7336L182.797 68.4602C183.578 68.2779 184.223 68.0435 184.73 67.7571C185.238 67.4576 185.642 67.0409 185.941 66.5071C186.189 66.0904 186.378 65.5761 186.508 64.9641C186.638 64.3521 186.736 63.623 186.801 62.7766L187.289 56.4094H191L190.395 62.8157C190.303 63.8964 190.193 64.8339 190.062 65.6282C189.932 66.4094 189.776 67.0409 189.594 67.5227C189.268 68.4993 188.78 69.2545 188.129 69.7883C187.478 70.3092 186.397 70.7714 184.887 71.175L181.957 71.8586L182.914 76.8977H183.383C186 76.8977 188.096 76.748 189.672 76.4485C191.247 76.136 192.491 75.6542 193.402 75.0032C194.014 74.5605 194.529 74.0136 194.945 73.3625C195.362 72.7115 195.714 71.8521 196 70.7844C196.286 69.7167 196.527 68.343 196.723 66.6633L197.953 56.4094H201.723L200.473 66.5266C200.212 68.7922 199.874 70.6607 199.457 72.1321C199.04 73.5904 198.52 74.7753 197.895 75.6868C197.283 76.5852 196.521 77.3404 195.609 77.9524ZM215.004 65.6868V80.3743H204.047V77.054H211.41V66.7024C211.41 64.593 211.306 63.1021 211.098 62.2297C210.889 61.3313 210.525 60.6933 210.004 60.3157C209.496 59.925 208.76 59.7297 207.797 59.7297H205.16V56.4094H207.68C209.763 56.4094 211.286 56.6959 212.25 57.2688C213.214 57.8547 213.91 58.8118 214.34 60.1399C214.783 61.455 215.004 63.304 215.004 65.6868ZM240.414 77.9524C239.516 78.5514 238.396 79.0396 237.055 79.4172C235.727 79.7948 234.06 80.0748 232.055 80.2571C230.049 80.4394 227.569 80.5435 224.613 80.5696L220.043 56.4094H223.773L226.176 68.7336L227.602 68.4602C228.383 68.2779 229.027 68.0435 229.535 67.7571C230.043 67.4576 230.447 67.0409 230.746 66.5071C230.993 66.0904 231.182 65.5761 231.312 64.9641C231.443 64.3521 231.54 63.623 231.605 62.7766L232.094 56.4094H235.805L235.199 62.8157C235.108 63.8964 234.997 64.8339 234.867 65.6282C234.737 66.4094 234.581 67.0409 234.398 67.5227C234.073 68.4993 233.585 69.2545 232.934 69.7883C232.283 70.3092 231.202 70.7714 229.691 71.175L226.762 71.8586L227.719 76.8977H228.188C230.805 76.8977 232.901 76.748 234.477 76.4485C236.052 76.136 237.296 75.6542 238.207 75.0032C238.819 74.5605 239.333 74.0136 239.75 73.3625C240.167 72.7115 240.518 71.8521 240.805 70.7844C241.091 69.7167 241.332 68.343 241.527 66.6633L242.758 56.4094H246.527L245.277 66.5266C245.017 68.7922 244.678 70.6607 244.262 72.1321C243.845 73.5904 243.324 74.7753 242.699 75.6868C242.087 76.5852 241.326 77.3404 240.414 77.9524ZM280.395 66.3313V80.3743H276.781V66.2922C276.781 63.8964 276.293 62.2037 275.316 61.2141C274.353 60.2245 272.68 59.7297 270.297 59.7297H261.195V56.4094H270.355C272.751 56.4094 274.685 56.748 276.156 57.425C277.628 58.0891 278.702 59.1503 279.379 60.6086C280.056 62.054 280.395 63.9615 280.395 66.3313ZM265.18 64.8079V80.3743H261.586V64.8079H265.18ZM298.773 56.0188C301.924 56.0188 304.223 56.9823 305.668 58.9094C307.126 60.8235 307.855 63.8704 307.855 68.05V80.3743H296.098V77.054H304.223V68.4993C304.223 65.3092 303.812 62.9915 302.992 61.5461C302.172 60.1008 300.779 59.3782 298.812 59.3782C297.055 59.3782 295.609 60.1724 294.477 61.761C293.331 63.3756 292.283 66.1816 291.332 70.179L288.891 80.3743H285.023L287.699 69.886C287.999 68.662 288.305 67.5553 288.617 66.5657C288.93 65.5761 289.236 64.6972 289.535 63.929L284.652 56.4094H288.891L291.332 60.3743C292.348 58.8378 293.435 57.731 294.594 57.054C295.753 56.3639 297.146 56.0188 298.773 56.0188ZM324.809 77.2102C327.309 76.2857 329.444 75.1139 331.215 73.6946C332.999 72.2883 334.353 70.7519 335.277 69.0852C336.215 67.4185 336.684 65.7258 336.684 64.0071C336.684 61.1555 335.16 59.7297 332.113 59.7297H322.406V47.8547H326V56.4094H332.484C337.706 56.4094 340.316 58.7336 340.316 63.3821C340.316 65.7779 339.743 68.0761 338.598 70.2766C337.452 72.4771 335.837 74.4563 333.754 76.2141C331.28 78.3235 328.298 80.0032 324.809 81.2532V77.2102ZM360.238 68.7336C360.238 76.4941 356.566 80.3743 349.223 80.3743H342.992V77.054H349.301C351.788 77.054 353.624 76.3639 354.809 74.9836C355.993 73.6034 356.586 71.5331 356.586 68.7727V68.011C356.586 65.2375 355.987 63.1672 354.789 61.8C353.604 60.4198 351.775 59.7297 349.301 59.7297H342.992V56.4094H349.223C356.566 56.4094 360.238 60.2896 360.238 68.05V68.7336ZM380.062 75.843L380.043 79.2024C380.043 80.5305 379.711 81.8977 379.047 83.304C378.383 84.7102 377.504 85.8691 376.41 86.7805L373.891 85.3157C374.255 84.7297 374.587 84.1373 374.887 83.5383C375.186 82.9394 375.427 82.3014 375.609 81.6243C375.792 80.9472 375.883 80.1985 375.883 79.3782V75.843H380.062ZM400.336 66.3313V87.8938H396.723V66.2922C396.723 63.9224 396.241 62.2362 395.277 61.2336C394.327 60.231 392.654 59.7297 390.258 59.7297H382.934V56.4094H390.297C392.693 56.4094 394.626 56.748 396.098 57.425C397.569 58.0891 398.643 59.1503 399.32 60.6086C399.997 62.054 400.336 63.9615 400.336 66.3313ZM420.492 66.3313V80.3743H416.879V66.2922C416.879 63.9224 416.397 62.2362 415.434 61.2336C414.483 60.231 412.81 59.7297 410.414 59.7297H403.09V56.4094H410.453C412.849 56.4094 414.783 56.748 416.254 57.425C417.725 58.0891 418.799 59.1503 419.477 60.6086C420.154 62.054 420.492 63.9615 420.492 66.3313ZM431.898 56.4094V80.3743H428.305V56.4094H431.898ZM457.816 77.054V80.3743H436.898V77.054H451.625V66.2922C451.625 63.8964 451.137 62.2037 450.16 61.2141C449.197 60.2245 447.523 59.7297 445.141 59.7297H437.816V56.4094H445.18C448.773 56.4094 451.345 57.1777 452.895 58.7141C454.444 60.2506 455.219 62.7896 455.219 66.3313V77.054H457.816ZM460.043 77.2102C463.65 77.2102 466.475 76.8782 468.52 76.2141L461.273 56.4094H465.238L471.645 74.6907C472.868 73.8183 473.852 72.6529 474.594 71.1946C475.349 69.7232 475.896 67.7961 476.234 65.4133C476.586 63.0305 476.762 60.0292 476.762 56.4094H480.531C480.531 62.425 479.893 67.1386 478.617 70.55C477.758 72.8157 476.553 74.6907 475.004 76.175C473.454 77.6464 471.456 78.7792 469.008 79.5735C466.573 80.3547 463.585 80.8365 460.043 81.0188V77.2102ZM514.652 66.3313V80.3743H511.039V66.2922C511.039 63.8964 510.551 62.2037 509.574 61.2141C508.611 60.2245 506.938 59.7297 504.555 59.7297H495.453V56.4094H504.613C507.009 56.4094 508.943 56.748 510.414 57.425C511.885 58.0891 512.96 59.1503 513.637 60.6086C514.314 62.054 514.652 63.9615 514.652 66.3313ZM499.438 64.8079V80.3743H495.844V64.8079H499.438ZM533.031 56.0188C536.182 56.0188 538.48 56.9823 539.926 58.9094C541.384 60.8235 542.113 63.8704 542.113 68.05V80.3743H530.355V77.054H538.48V68.4993C538.48 65.3092 538.07 62.9915 537.25 61.5461C536.43 60.1008 535.036 59.3782 533.07 59.3782C531.312 59.3782 529.867 60.1724 528.734 61.761C527.589 63.3756 526.54 66.1816 525.59 70.179L523.148 80.3743H519.281L521.957 69.886C522.257 68.662 522.562 67.5553 522.875 66.5657C523.188 65.5761 523.493 64.6972 523.793 63.929L518.91 56.4094H523.148L525.59 60.3743C526.605 58.8378 527.693 57.731 528.852 57.054C530.01 56.3639 531.404 56.0188 533.031 56.0188ZM551.508 56.4094V69.0071H547.914V56.4094H551.508ZM562.367 72.5032L560.805 80.3743H557.016L558.656 72.5813C559.125 70.3417 559.555 68.7662 559.945 67.8547C560.336 66.9303 560.824 66.1816 561.41 65.6086C562.009 65.0357 562.81 64.5474 563.812 64.1438L558.168 56.4094H562.602L571.41 68.5383C572.387 67.6269 573.161 66.5266 573.734 65.2375C574.32 63.9355 574.704 62.4446 574.887 60.7649L575.336 56.4094H579.047L578.598 60.6868C578.454 62.1191 578.194 63.3756 577.816 64.4563C577.556 65.1985 577.243 65.9081 576.879 66.5852C576.514 67.2493 576.046 67.9394 575.473 68.6555C574.913 69.3717 574.184 70.1724 573.285 71.0579L580.336 80.3743H575.766L565.453 66.3704C564.411 66.8782 563.669 67.7571 563.227 69.0071C563.096 69.3326 562.96 69.7883 562.816 70.3743C562.686 70.9602 562.536 71.6698 562.367 72.5032ZM588.91 76.6633C588.467 77.9784 587.764 78.929 586.801 79.5149C585.837 80.0878 584.32 80.3743 582.25 80.3743H582.035V77.054H582.367C583.266 77.054 583.982 76.8847 584.516 76.5461C585.036 76.2076 585.408 75.6933 585.629 75.0032C585.85 74.3 585.961 73.2389 585.961 71.8196V59.7297H582.25V56.4094H595.199C598.793 56.4094 601.371 57.1777 602.934 58.7141C604.496 60.2375 605.277 62.7766 605.277 66.3313V80.3743H601.684V66.2922C601.684 63.8964 601.195 62.2037 600.219 61.2141C599.255 60.2245 597.569 59.7297 595.16 59.7297H589.555V71.0969C589.555 73.4928 589.34 75.3482 588.91 76.6633ZM623.695 56.0188C626.846 56.0188 629.145 56.9823 630.59 58.9094C632.048 60.8235 632.777 63.8704 632.777 68.05V80.3743H621.02V77.054H629.145V68.4993C629.145 65.3092 628.734 62.9915 627.914 61.5461C627.094 60.1008 625.701 59.3782 623.734 59.3782C621.977 59.3782 620.531 60.1724 619.398 61.761C618.253 63.3756 617.204 66.1816 616.254 70.179L613.812 80.3743H609.945L612.621 69.886C612.921 68.662 613.227 67.5553 613.539 66.5657C613.852 65.5761 614.158 64.6972 614.457 63.929L609.574 56.4094H613.812L616.254 60.3743C617.27 58.8378 618.357 57.731 619.516 57.054C620.674 56.3639 622.068 56.0188 623.695 56.0188ZM371.156 125.031C371.156 124.301 371.404 123.689 371.898 123.195C372.393 122.687 373.064 122.433 373.91 122.433C374.77 122.433 375.44 122.687 375.922 123.195C376.417 123.689 376.664 124.301 376.664 125.031C376.664 125.76 376.417 126.372 375.922 126.866C375.44 127.361 374.77 127.609 373.91 127.609C373.064 127.609 372.393 127.361 371.898 126.866C371.404 126.372 371.156 125.76 371.156 125.031ZM397.836 113.331V127.374H394.223V113.292C394.223 110.922 393.741 109.236 392.777 108.234C391.827 107.231 390.154 106.73 387.758 106.73H380.434V103.409H387.797C390.193 103.409 392.126 103.748 393.598 104.425C395.069 105.089 396.143 106.15 396.82 107.609C397.497 109.054 397.836 110.962 397.836 113.331ZM408.031 103.409V116.007H404.438V103.409H408.031ZM412.23 124.21C415.837 124.21 418.663 123.878 420.707 123.214L413.461 103.409H417.426L423.832 121.691C425.056 120.818 426.039 119.653 426.781 118.195C427.536 116.723 428.083 114.796 428.422 112.413C428.773 110.031 428.949 107.029 428.949 103.409H432.719C432.719 109.425 432.081 114.139 430.805 117.55C429.945 119.816 428.741 121.691 427.191 123.175C425.642 124.646 423.643 125.779 421.195 126.573C418.76 127.355 415.772 127.837 412.23 128.019V124.21ZM456.879 113.331V127.374H453.266V113.292C453.266 110.896 452.777 109.204 451.801 108.214C450.837 107.225 449.164 106.73 446.781 106.73H437.68V103.409H446.84C449.236 103.409 451.169 103.748 452.641 104.425C454.112 105.089 455.186 106.15 455.863 107.609C456.54 109.054 456.879 110.962 456.879 113.331ZM441.664 111.808V127.374H438.07V111.808H441.664ZM478.09 123.663C477.647 124.978 476.944 125.929 475.98 126.515C475.017 127.088 473.5 127.374 471.43 127.374H471.215V124.054H471.547C472.445 124.054 473.161 123.885 473.695 123.546C474.216 123.208 474.587 122.693 474.809 122.003C475.03 121.3 475.141 120.239 475.141 118.82V106.73H471.43V103.409H484.379C487.973 103.409 490.551 104.178 492.113 105.714C493.676 107.238 494.457 109.777 494.457 113.331V127.374H490.863V113.292C490.863 110.896 490.375 109.204 489.398 108.214C488.435 107.225 486.749 106.73 484.34 106.73H478.734V118.097C478.734 120.493 478.52 122.348 478.09 123.663ZM504.32 119.503L502.758 127.374H498.969L500.609 119.581C501.078 117.342 501.508 115.766 501.898 114.855C502.289 113.93 502.777 113.182 503.363 112.609C503.962 112.036 504.763 111.547 505.766 111.144L500.121 103.409H504.555L513.363 115.538C514.34 114.627 515.115 113.527 515.688 112.238C516.273 110.935 516.658 109.445 516.84 107.765L517.289 103.409H521L520.551 107.687C520.408 109.119 520.147 110.376 519.77 111.456C519.509 112.198 519.197 112.908 518.832 113.585C518.467 114.249 517.999 114.939 517.426 115.656C516.866 116.372 516.137 117.172 515.238 118.058L522.289 127.374H517.719L507.406 113.37C506.365 113.878 505.622 114.757 505.18 116.007C505.049 116.333 504.913 116.788 504.77 117.374C504.639 117.96 504.49 118.67 504.32 119.503ZM550.922 113.331V127.374H547.309V113.292C547.309 110.922 546.827 109.236 545.863 108.234C544.913 107.231 543.24 106.73 540.844 106.73H533.52V103.409H540.883C543.279 103.409 545.212 103.748 546.684 104.425C548.155 105.089 549.229 106.15 549.906 107.609C550.583 109.054 550.922 110.962 550.922 113.331ZM561.117 103.409V127.374H557.523V103.409H561.117ZM584.027 113.292C584.027 110.922 583.546 109.236 582.582 108.234C581.632 107.231 579.958 106.73 577.562 106.73H571.508V127.374H567.914V103.409H577.602C581.195 103.409 583.767 104.178 585.316 105.714C586.866 107.251 587.641 109.79 587.641 113.331V127.374H584.027V113.292ZM613.363 124.054V127.374H592.445V124.054H607.172V113.292C607.172 110.896 606.684 109.204 605.707 108.214C604.743 107.225 603.07 106.73 600.688 106.73H593.363V103.409H600.727C604.32 103.409 606.892 104.178 608.441 105.714C609.991 107.251 610.766 109.79 610.766 113.331V124.054H613.363ZM617.738 124.21C620.238 123.286 622.374 122.114 624.145 120.695C625.928 119.288 627.283 117.752 628.207 116.085C629.145 114.419 629.613 112.726 629.613 111.007C629.613 108.156 628.09 106.73 625.043 106.73H615.336V94.8547H618.93V103.409H625.414C630.635 103.409 633.246 105.734 633.246 110.382C633.246 112.778 632.673 115.076 631.527 117.277C630.382 119.477 628.767 121.456 626.684 123.214C624.21 125.323 621.228 127.003 617.738 128.253V124.21Z" fill="white"/>
</svg>
