<svg width="344" height="38" viewBox="0 0 344 38" fill="none" xmlns="http://www.w3.org/2000/svg">
<path d="M15.9449 10.0676L7.24377 36.5886H0.234497L12.1217 4.59644H16.5822L15.9449 10.0676ZM23.174 36.5886L14.4508 10.0676L13.7477 4.59644H18.2521L30.2052 36.5886H23.174ZM22.7784 24.6794V29.843H5.88147V24.6794H22.7784ZM40.1808 4.59644V36.5886H33.611V4.59644H40.1808ZM69.6461 20.3728V25.3386H57.2316V20.3728H69.6461ZM110.493 20.7903V36.5886H104.539V20.7463C104.539 18.5051 104.063 16.9304 103.11 16.0222C102.158 15.0994 100.503 14.6379 98.1447 14.6379H87.0045V9.32056H98.5182C101.404 9.32056 103.718 9.70874 105.462 10.4851C107.219 11.2615 108.494 12.4919 109.285 14.1765C110.09 15.8464 110.493 18.051 110.493 20.7903ZM93.3766 20.0212V36.5886H87.444V20.0212H93.3766ZM129.873 20.0652V36.5886H115.657V31.2712H123.941V21.2078C123.941 19.2302 123.809 17.8167 123.545 16.967C123.281 16.1321 122.842 15.5388 122.227 15.1873C121.611 14.821 120.711 14.6379 119.524 14.6379H116.909V9.32056H120.645C123.164 9.32056 125.047 9.65747 126.292 10.3313C127.537 11.0051 128.445 12.1111 129.016 13.6492C129.588 15.1873 129.873 17.3259 129.873 20.0652ZM143.255 9.32056V36.5886H137.322V9.32056H143.255ZM169.49 23.4929C169.49 32.2234 165.037 36.5886 156.13 36.5886H148.836V31.2712H155.801C158.423 31.2712 160.364 30.6121 161.624 29.2937C162.883 27.9753 163.513 25.9685 163.513 23.2732V22.6799C163.513 19.9407 162.883 17.9192 161.624 16.6155C160.364 15.2971 158.452 14.6379 155.889 14.6379H148.836V9.32056H156.438C165.139 9.32056 169.49 13.6711 169.49 22.3723V23.4929ZM190.364 9.18872C194.099 9.18872 196.817 10.2874 198.516 12.4846C200.215 14.6672 201.065 18.0803 201.065 22.7239V36.5886H186.892V31.2712H195.088V23.1853C195.088 20.0945 194.714 17.8826 193.967 16.5496C193.235 15.2019 191.939 14.5281 190.078 14.5281C188.364 14.5281 186.922 15.385 185.75 17.0989C184.578 18.8567 183.486 21.7864 182.476 25.8879L179.817 36.5886H173.489L176.455 25.2068C176.821 23.8298 177.173 22.5994 177.51 21.5154C177.861 20.4314 178.198 19.5012 178.521 18.7249L173.071 9.62817H179.641L181.707 13.4954C182.586 12.1477 183.787 11.093 185.31 10.3313C186.848 9.56958 188.533 9.18872 190.364 9.18872ZM226.729 32.238C226.143 33.7468 225.242 34.8528 224.026 35.5559C222.81 36.2444 221.045 36.5886 218.731 36.5886H217.236V31.2712H217.61C218.621 31.2712 219.426 31.0808 220.027 30.7C220.613 30.3191 221.03 29.7405 221.279 28.9641C221.528 28.1731 221.653 26.9792 221.653 25.3826V14.6379H217.478V9.32056H232.771C236.99 9.32056 240.015 10.2141 241.846 12.0012C243.692 13.7737 244.614 16.718 244.614 20.8342V36.5886H238.66V20.9221C238.66 18.5784 238.184 16.9451 237.232 16.0222C236.279 15.0994 234.675 14.6379 232.42 14.6379H227.586V26.1516C227.586 28.6858 227.3 30.7146 226.729 32.238ZM268.433 14.6379V36.5886H262.5V14.6379H247.734V9.32056H271.817V14.6379H268.433ZM284.143 9.32056V23.8005H278.211V9.32056H284.143ZM306.336 9.18872C310.071 9.18872 312.788 10.2874 314.487 12.4846C316.187 14.6672 317.036 18.0803 317.036 22.7239V36.5886H302.864V31.2712H311.06V23.1853C311.06 20.0945 310.686 17.8826 309.939 16.5496C309.207 15.2019 307.91 14.5281 306.05 14.5281C304.336 14.5281 302.893 15.385 301.721 17.0989C300.549 18.8567 299.458 21.7864 298.447 25.8879L295.789 36.5886H289.461L292.427 25.2068C292.793 23.8298 293.145 22.5994 293.482 21.5154C293.833 20.4314 294.17 19.5012 294.492 18.7249L289.043 9.62817H295.613L297.678 13.4954C298.557 12.1477 299.758 11.093 301.282 10.3313C302.82 9.56958 304.505 9.18872 306.336 9.18872ZM323.98 31.5129C327.554 30.3411 330.44 28.8616 332.637 27.0745C334.16 25.8586 335.325 24.533 336.13 23.0974C336.936 21.6472 337.339 20.1311 337.339 18.5491C337.339 15.9417 335.706 14.6379 332.439 14.6379H321.277V0.00415039H327.341V9.32056H333.428C340.02 9.32056 343.316 12.199 343.316 17.9558C343.316 20.7097 342.664 23.2878 341.36 25.6902C340.071 28.0779 338.225 30.2092 335.823 32.0842C332.659 34.5452 328.711 36.4788 323.98 37.885V31.5129Z" fill="#C68AA2"/>
</svg>
