<svg width="786" height="49" viewBox="0 0 786 49" fill="none" xmlns="http://www.w3.org/2000/svg">
<path d="M8.14062 12.5166V46.4502H0.757812V12.5166H8.14062ZM32.5586 25.8877V46.4502H14.8672V39.833H25.1758V27.3096C25.1758 24.8486 25.0117 23.0895 24.6836 22.0322C24.3555 20.9932 23.8086 20.2549 23.043 19.8174C22.2773 19.3617 21.1562 19.1338 19.6797 19.1338H16.4258V12.5166H21.0742C24.2096 12.5166 26.5521 12.9359 28.1016 13.7744C29.651 14.613 30.7812 15.9893 31.4922 17.9033C32.2031 19.8174 32.5586 22.4788 32.5586 25.8877ZM42.3477 40.1338C46.7956 38.6755 50.3867 36.8343 53.1211 34.6104C55.0169 33.0973 56.4661 31.4476 57.4688 29.6611C58.4714 27.8564 58.9727 25.9697 58.9727 24.001C58.9727 20.7562 56.9401 19.1338 52.875 19.1338H38.9844V0.922852H46.5312V12.5166H54.1055C62.3086 12.5166 66.4102 16.0986 66.4102 23.2627C66.4102 26.6898 65.599 29.8981 63.9766 32.8877C62.3724 35.859 60.0755 38.5114 57.0859 40.8447C53.1484 43.9072 48.2357 46.3135 42.3477 48.0635V40.1338ZM102.559 43.0869C101.064 43.9255 99.2227 44.6182 97.0352 45.165C94.8659 45.6937 92.1589 46.0856 88.9141 46.3408C85.6875 46.596 81.7409 46.7236 77.0742 46.7236L70.6758 12.5166H78.4141L81.3945 28.8682L83.3906 28.4854C84.6302 28.2484 85.5417 27.8473 86.125 27.2822C86.7266 26.6989 87.1823 25.833 87.4922 24.6846C87.638 24.1195 87.7747 23.3356 87.9023 22.333C88.0482 21.3122 88.1849 20.0726 88.3125 18.6143L88.7227 12.5166H96.2695L95.4492 21.8682C95.3398 23.1442 95.1849 24.2926 94.9844 25.3135C94.7839 26.3343 94.5286 27.2184 94.2188 27.9658C93.6172 29.4606 92.7695 30.6273 91.6758 31.4658C90.6003 32.3044 88.8867 33.0062 86.5352 33.5713L82.4336 34.5283L83.5547 40.1338H84.2109C86.4896 40.1338 88.5039 40.0426 90.2539 39.8604C92.0221 39.6598 93.526 39.359 94.7656 38.958C96.4245 38.4476 97.7917 37.7367 98.8672 36.8252C99.9427 35.8955 100.79 34.665 101.41 33.1338C102.03 31.5843 102.467 29.6247 102.723 27.2549L104.445 12.5166H112.074L110.324 27.0635C109.96 30.1989 109.449 32.7965 108.793 34.8564C108.155 36.9163 107.326 38.5934 106.305 39.8877C105.302 41.1637 104.053 42.2301 102.559 43.0869ZM141.66 41.0361C140.931 42.9137 139.81 44.29 138.297 45.165C136.784 46.0218 134.587 46.4502 131.707 46.4502H129.848V39.833H130.312C131.57 39.833 132.573 39.596 133.32 39.1221C134.049 38.6481 134.569 37.9281 134.879 36.9619C135.189 35.9775 135.344 34.4919 135.344 32.5049V19.1338H130.148V12.5166H149.18C154.43 12.5166 158.194 13.6286 160.473 15.8525C162.77 18.0583 163.918 21.7223 163.918 26.8447V46.4502H156.508V26.9541C156.508 24.0374 155.915 22.0049 154.73 20.8564C153.546 19.708 151.549 19.1338 148.742 19.1338H142.727V33.4619C142.727 36.6156 142.371 39.1403 141.66 41.0361ZM180.516 12.5166V46.4502H173.133V12.5166H180.516ZM213.055 26.79V46.4502H205.645V26.7354C205.645 23.9098 205.034 21.9411 203.812 20.8291C202.609 19.6989 200.577 19.1338 197.715 19.1338H186.34V12.5166H198.152C201.743 12.5166 204.624 12.9997 206.793 13.9658C208.98 14.9137 210.566 16.4359 211.551 18.5322C212.553 20.6104 213.055 23.363 213.055 26.79ZM229.68 12.5166V30.5361H222.297V12.5166H229.68ZM267.879 43.0869C266.384 43.9255 264.543 44.6182 262.355 45.165C260.186 45.6937 257.479 46.0856 254.234 46.3408C251.008 46.596 247.061 46.7236 242.395 46.7236L235.996 12.5166H243.734L246.715 28.8682L248.711 28.4854C249.951 28.2484 250.862 27.8473 251.445 27.2822C252.047 26.6989 252.503 25.833 252.812 24.6846C252.958 24.1195 253.095 23.3356 253.223 22.333C253.368 21.3122 253.505 20.0726 253.633 18.6143L254.043 12.5166H261.59L260.77 21.8682C260.66 23.1442 260.505 24.2926 260.305 25.3135C260.104 26.3343 259.849 27.2184 259.539 27.9658C258.938 29.4606 258.09 30.6273 256.996 31.4658C255.921 32.3044 254.207 33.0062 251.855 33.5713L247.754 34.5283L248.875 40.1338H249.531C251.81 40.1338 253.824 40.0426 255.574 39.8604C257.342 39.6598 258.846 39.359 260.086 38.958C261.745 38.4476 263.112 37.7367 264.188 36.8252C265.263 35.8955 266.111 34.665 266.73 33.1338C267.35 31.5843 267.788 29.6247 268.043 27.2549L269.766 12.5166H277.395L275.645 27.0635C275.28 30.1989 274.77 32.7965 274.113 34.8564C273.475 36.9163 272.646 38.5934 271.625 39.8877C270.622 41.1637 269.374 42.2301 267.879 43.0869ZM312.285 39.833V46.4502H280.648V39.833H301.266V27.7471C301.266 24.557 300.664 22.3239 299.461 21.0479C298.276 19.7718 296.243 19.1338 293.363 19.1338H281.934V12.5166H293.473C298.796 12.5166 302.651 13.6286 305.039 15.8525C307.445 18.0765 308.648 21.7223 308.648 26.79V39.833H312.285ZM362.816 43.0869C361.322 43.9255 359.48 44.6182 357.293 45.165C355.124 45.6937 352.417 46.0856 349.172 46.3408C345.945 46.596 341.999 46.7236 337.332 46.7236L330.934 12.5166H338.672L341.652 28.8682L343.648 28.4854C344.888 28.2484 345.799 27.8473 346.383 27.2822C346.984 26.6989 347.44 25.833 347.75 24.6846C347.896 24.1195 348.033 23.3356 348.16 22.333C348.306 21.3122 348.443 20.0726 348.57 18.6143L348.98 12.5166H356.527L355.707 21.8682C355.598 23.1442 355.443 24.2926 355.242 25.3135C355.042 26.3343 354.786 27.2184 354.477 27.9658C353.875 29.4606 353.027 30.6273 351.934 31.4658C350.858 32.3044 349.145 33.0062 346.793 33.5713L342.691 34.5283L343.812 40.1338H344.469C346.747 40.1338 348.762 40.0426 350.512 39.8604C352.28 39.6598 353.784 39.359 355.023 38.958C356.682 38.4476 358.049 37.7367 359.125 36.8252C360.201 35.8955 361.048 34.665 361.668 33.1338C362.288 31.5843 362.725 29.6247 362.98 27.2549L364.703 12.5166H372.332L370.582 27.0635C370.217 30.1989 369.707 32.7965 369.051 34.8564C368.413 36.9163 367.583 38.5934 366.562 39.8877C365.56 41.1637 364.311 42.2301 362.816 43.0869ZM396.805 12.3525C401.453 12.3525 404.835 13.7197 406.949 16.4541C409.064 19.1702 410.121 23.4176 410.121 29.1963V46.4502H392.484V39.833H402.684V29.7705C402.684 25.9242 402.219 23.1715 401.289 21.5127C400.378 19.8356 398.764 18.9971 396.449 18.9971C394.316 18.9971 392.521 20.0635 391.062 22.1963C389.604 24.3838 388.246 28.0296 386.988 33.1338L383.68 46.4502H375.805L379.496 32.2861C379.952 30.5726 380.389 29.0413 380.809 27.6924C381.246 26.3434 381.665 25.1859 382.066 24.2197L375.285 12.8994H383.461L386.031 17.7119C387.125 16.0348 388.62 14.7223 390.516 13.7744C392.43 12.8265 394.526 12.3525 396.805 12.3525ZM428.66 41.0361C427.931 42.9137 426.81 44.29 425.297 45.165C423.784 46.0218 421.587 46.4502 418.707 46.4502H416.848V39.833H417.312C418.57 39.833 419.573 39.596 420.32 39.1221C421.049 38.6481 421.569 37.9281 421.879 36.9619C422.189 35.9775 422.344 34.4919 422.344 32.5049V19.1338H417.148V12.5166H436.18C441.43 12.5166 445.194 13.6286 447.473 15.8525C449.77 18.0583 450.918 21.7223 450.918 26.8447V46.4502H443.508V26.9541C443.508 24.0374 442.915 22.0049 441.73 20.8564C440.546 19.708 438.549 19.1338 435.742 19.1338H429.727V33.4619C429.727 36.6156 429.371 39.1403 428.66 41.0361ZM488.816 43.0869C487.322 43.9255 485.48 44.6182 483.293 45.165C481.124 45.6937 478.417 46.0856 475.172 46.3408C471.945 46.596 467.999 46.7236 463.332 46.7236L456.934 12.5166H464.672L467.652 28.8682L469.648 28.4854C470.888 28.2484 471.799 27.8473 472.383 27.2822C472.984 26.6989 473.44 25.833 473.75 24.6846C473.896 24.1195 474.033 23.3356 474.16 22.333C474.306 21.3122 474.443 20.0726 474.57 18.6143L474.98 12.5166H482.527L481.707 21.8682C481.598 23.1442 481.443 24.2926 481.242 25.3135C481.042 26.3343 480.786 27.2184 480.477 27.9658C479.875 29.4606 479.027 30.6273 477.934 31.4658C476.858 32.3044 475.145 33.0062 472.793 33.5713L468.691 34.5283L469.812 40.1338H470.469C472.747 40.1338 474.762 40.0426 476.512 39.8604C478.28 39.6598 479.784 39.359 481.023 38.958C482.682 38.4476 484.049 37.7367 485.125 36.8252C486.201 35.8955 487.048 34.665 487.668 33.1338C488.288 31.5843 488.725 29.6247 488.98 27.2549L490.703 12.5166H498.332L496.582 27.0635C496.217 30.1989 495.707 32.7965 495.051 34.8564C494.413 36.9163 493.583 38.5934 492.562 39.8877C491.56 41.1637 490.311 42.2301 488.816 43.0869ZM533.879 26.79V46.4502H526.469V26.7354C526.469 23.9463 525.876 21.9867 524.691 20.8564C523.507 19.708 521.447 19.1338 518.512 19.1338H504.648V12.5166H518.977C522.568 12.5166 525.448 12.9997 527.617 13.9658C529.805 14.932 531.391 16.4632 532.375 18.5596C533.378 20.6377 533.879 23.3812 533.879 26.79ZM512.578 25.833V46.4502H505.195V25.833H512.578ZM542.465 40.1338C546.913 38.6755 550.504 36.8343 553.238 34.6104C555.134 33.0973 556.583 31.4476 557.586 29.6611C558.589 27.8564 559.09 25.9697 559.09 24.001C559.09 20.7562 557.057 19.1338 552.992 19.1338H539.102V0.922852H546.648V12.5166H554.223C562.426 12.5166 566.527 16.0986 566.527 23.2627C566.527 26.6898 565.716 29.8981 564.094 32.8877C562.49 35.859 560.193 38.5114 557.203 40.8447C553.266 43.9072 548.353 46.3135 542.465 48.0635V40.1338ZM596.469 12.5166V30.5361H589.086V12.5166H596.469ZM628.105 19.1338V46.4502H620.723V19.1338H602.348V12.5166H632.316V19.1338H628.105ZM661.711 30.1533C661.711 41.0179 656.169 46.4502 645.086 46.4502H636.008V39.833H644.676C647.939 39.833 650.354 39.0127 651.922 37.3721C653.49 35.7314 654.273 33.234 654.273 29.8799V29.1416C654.273 25.7327 653.49 23.2171 651.922 21.5947C650.354 19.9541 647.975 19.1338 644.785 19.1338H636.008V12.5166H645.469C656.297 12.5166 661.711 17.9307 661.711 28.7588V30.1533ZM712.16 26.79V46.4502H704.75V26.7354C704.75 23.9463 704.158 21.9867 702.973 20.8564C701.788 19.708 699.728 19.1338 696.793 19.1338H682.93V12.5166H697.258C700.849 12.5166 703.729 12.9997 705.898 13.9658C708.086 14.932 709.672 16.4632 710.656 18.5596C711.659 20.6377 712.16 23.3812 712.16 26.79ZM690.859 25.833V46.4502H683.477V25.833H690.859ZM739.477 12.3525C744.125 12.3525 747.507 13.7197 749.621 16.4541C751.736 19.1702 752.793 23.4176 752.793 29.1963V46.4502H735.156V39.833H745.355V29.7705C745.355 25.9242 744.891 23.1715 743.961 21.5127C743.049 19.8356 741.436 18.9971 739.121 18.9971C736.988 18.9971 735.193 20.0635 733.734 22.1963C732.276 24.3838 730.918 28.0296 729.66 33.1338L726.352 46.4502H718.477L722.168 32.2861C722.624 30.5726 723.061 29.0413 723.48 27.6924C723.918 26.3434 724.337 25.1859 724.738 24.2197L717.957 12.8994H726.133L728.703 17.7119C729.797 16.0348 731.292 14.7223 733.188 13.7744C735.102 12.8265 737.198 12.3525 739.477 12.3525ZM761.434 40.1338C765.882 38.6755 769.473 36.8343 772.207 34.6104C774.103 33.0973 775.552 31.4476 776.555 29.6611C777.557 27.8564 778.059 25.9697 778.059 24.001C778.059 20.7562 776.026 19.1338 771.961 19.1338H758.07V0.922852H765.617V12.5166H773.191C781.395 12.5166 785.496 16.0986 785.496 23.2627C785.496 26.6898 784.685 29.8981 783.062 32.8877C781.458 35.859 779.161 38.5114 776.172 40.8447C772.234 43.9072 767.322 46.3135 761.434 48.0635V40.1338Z" fill="#9E4A6C"/>
</svg>
