<svg width="246" height="28" viewBox="0 0 246 28" fill="none" xmlns="http://www.w3.org/2000/svg">
<path d="M25.098 11.7903V27.5886H0.115112V0.320557H12.8153C17.1512 0.320557 20.2787 1.21411 22.1976 3.00122C24.1312 4.77368 25.098 7.70337 25.098 11.7903ZM6.04773 22.2712H19.1434V12.4714C19.1434 9.9812 18.6747 8.22339 17.7372 7.198C16.7997 6.15796 15.1591 5.63794 12.8153 5.63794H6.04773V22.2712ZM37.5565 0.320557V14.8005H31.6239V0.320557H37.5565ZM58.101 11.0652V27.5886H43.8846V22.2712H52.1683V12.2078C52.1683 10.2302 52.0365 8.81665 51.7728 7.96704C51.5092 7.13208 51.0697 6.53882 50.4545 6.18726C49.8392 5.82104 48.9384 5.63794 47.7518 5.63794H45.1371V0.320557H48.8724C51.392 0.320557 53.2743 0.657471 54.5194 1.3313C55.7645 2.00513 56.6727 3.11108 57.244 4.64917C57.8153 6.18726 58.101 8.32593 58.101 11.0652ZM71.4823 0.320557V27.5886H65.5497V0.320557H71.4823ZM86.1381 23.238C85.5521 24.7468 84.6512 25.8528 83.4354 26.5559C82.2196 27.2444 80.4545 27.5886 78.14 27.5886H76.6459V22.2712H77.0194C78.0302 22.2712 78.8358 22.0808 79.4364 21.7C80.0223 21.3191 80.4398 20.7405 80.6888 19.9641C80.9379 19.1731 81.0624 17.9792 81.0624 16.3826V5.63794H76.8876V0.320557H92.1805C96.3993 0.320557 99.4242 1.21411 101.255 3.00122C103.101 4.77368 104.024 7.71802 104.024 11.8342V27.5886H98.0692V11.9221C98.0692 9.57837 97.5931 7.94507 96.641 7.02222C95.6888 6.09937 94.0848 5.63794 91.829 5.63794H86.995V17.1516C86.995 19.6858 86.7094 21.7146 86.1381 23.238ZM123.404 11.0652V27.5886H109.187V22.2712H117.471V12.2078C117.471 10.2302 117.339 8.81665 117.076 7.96704C116.812 7.13208 116.372 6.53882 115.757 6.18726C115.142 5.82104 114.241 5.63794 113.055 5.63794H110.44V0.320557H114.175C116.695 0.320557 118.577 0.657471 119.822 1.3313C121.067 2.00513 121.975 3.11108 122.547 4.64917C123.118 6.18726 123.404 8.32593 123.404 11.0652ZM160.559 11.7903V27.5886H154.605V11.7463C154.605 9.47583 154.114 7.8938 153.133 7.00024C152.166 6.09204 150.533 5.63794 148.233 5.63794H139.092V0.320557H148.584C151.47 0.320557 153.785 0.70874 155.528 1.48511C157.286 2.24683 158.56 3.46997 159.351 5.15454C160.157 6.82446 160.559 9.03638 160.559 11.7903ZM171.458 0.320557C172.762 0.320557 173.846 0.423096 174.71 0.628174C175.589 0.833252 176.321 1.19214 176.907 1.70483C177.508 2.20288 178.028 2.89136 178.467 3.77026C178.804 4.42944 179.156 5.35229 179.522 6.53882C179.888 7.71069 180.276 9.14624 180.686 10.8455L184.554 27.5886H178.643L176.446 17.7888C175.376 18.0671 174.622 18.4407 174.182 18.9094C173.743 19.3782 173.37 20.1179 173.062 21.1287C173.003 21.3337 172.908 21.6926 172.776 22.2053C172.659 22.7034 172.513 23.3479 172.337 24.1389L171.59 27.5886H165.547L166.448 23.6335C166.712 22.4177 166.975 21.3704 167.239 20.4915C167.503 19.5979 167.774 18.8655 168.052 18.2942C168.594 17.1516 169.29 16.2434 170.14 15.5696C171.004 14.8811 172.19 14.3098 173.699 13.8557L175.457 13.3284C175.252 12.3469 175.047 11.468 174.842 10.6917C174.637 9.91528 174.446 9.24878 174.27 8.69214C173.904 7.56421 173.479 6.77319 172.996 6.31909C172.513 5.86499 171.729 5.63794 170.645 5.63794H167.679V0.320557H171.458ZM194.705 19.6345L193.343 27.5886H187.19L189.036 18.4919C189.563 15.9724 190.047 14.178 190.486 13.1086C190.926 12.0247 191.468 11.1677 192.112 10.5378C192.771 9.89331 193.68 9.32202 194.837 8.82397L188.487 0.320557H195.694L204.593 12.6472C205.516 11.8123 206.219 10.8308 206.702 9.70288C207.185 8.57495 207.53 7.05151 207.735 5.13257L208.196 0.320557H214.261L213.733 5.52808C213.572 7.00757 213.279 8.3186 212.854 9.46118C212.561 10.2375 212.203 10.97 211.778 11.6584C211.353 12.3323 210.796 13.05 210.108 13.8118C209.434 14.5588 208.54 15.4304 207.427 16.4265L215.623 27.5886H208.46L197.495 12.3835C196.719 12.8376 196.162 13.4968 195.826 14.3611C195.664 14.8005 195.489 15.4597 195.298 16.3386C195.108 17.2175 194.91 18.3162 194.705 19.6345ZM234.827 0.188721C238.562 0.188721 241.28 1.28735 242.979 3.48462C244.678 5.66724 245.528 9.08032 245.528 13.7239V27.5886H231.355V22.2712H239.551V14.1853C239.551 11.0945 239.178 8.88257 238.431 7.54956C237.698 6.2019 236.402 5.52808 234.541 5.52808C232.828 5.52808 231.385 6.38501 230.213 8.09888C229.041 9.85669 227.95 12.7864 226.939 16.8879L224.28 27.5886H217.952L220.918 16.2068C221.285 14.8298 221.636 13.5994 221.973 12.5154C222.325 11.4314 222.661 10.5012 222.984 9.72485L217.535 0.628174H224.104L226.17 4.49536C227.049 3.14771 228.25 2.09302 229.773 1.3313C231.311 0.56958 232.996 0.188721 234.827 0.188721Z" fill="#C68AA2"/>
</svg>
