<svg width="235" height="24" viewBox="0 0 235 24" fill="none" xmlns="http://www.w3.org/2000/svg">
<path d="M21.2944 10.1677V23.5085H0.197693V0.482178H10.9223C14.5838 0.482178 17.2247 1.23674 18.8452 2.74585C20.478 4.24259 21.2944 6.71655 21.2944 10.1677ZM5.20746 19.0183H16.2661V10.7429C16.2661 8.64006 15.8702 7.15568 15.0786 6.28979C14.2869 5.41154 12.9015 4.97241 10.9223 4.97241H5.20746V19.0183ZM31.8149 0.482178V12.7097H26.8051V0.482178H31.8149ZM44.061 0.482178V12.7097H39.0512V0.482178H44.061ZM69.9819 21.2263C68.9675 21.7953 67.7182 22.2654 66.2338 22.6365C64.7618 22.9952 62.9249 23.2611 60.7231 23.4343C58.5336 23.6075 55.8556 23.6941 52.6889 23.6941L48.3471 0.482178H53.5981L55.6205 11.5779L56.975 11.3181C57.8162 11.1573 58.4347 10.8852 58.8305 10.5017C59.2387 10.1059 59.548 9.51831 59.7582 8.73901C59.8572 8.35555 59.95 7.82365 60.0366 7.14331C60.1355 6.4506 60.2283 5.60946 60.3149 4.61987L60.5932 0.482178H65.7143L65.1577 6.82788C65.0834 7.69377 64.9783 8.47306 64.8422 9.16577C64.7062 9.85848 64.533 10.4584 64.3227 10.9656C63.9145 11.9799 63.3393 12.7716 62.5971 13.3406C61.8673 13.9096 60.7045 14.3858 59.1088 14.7693L56.3256 15.4187L57.0864 19.2224H57.5317C59.0779 19.2224 60.4448 19.1606 61.6323 19.0369C62.8321 18.9008 63.8526 18.6967 64.6938 18.4246C65.8194 18.0782 66.7472 17.5958 67.477 16.9773C68.2068 16.3464 68.782 15.5115 69.2026 14.4724C69.6231 13.421 69.92 12.0912 70.0932 10.4832L71.2621 0.482178H76.4389L75.2514 10.3533C75.004 12.4809 74.6577 14.2436 74.2123 15.6414C73.7794 17.0391 73.2166 18.1772 72.5239 19.0554C71.8435 19.9213 70.9962 20.6449 69.9819 21.2263ZM86.143 0.482178V12.7097H81.1332V0.482178H86.143ZM96.9418 16.7917L95.7914 23.5085H90.5961L92.1547 15.8269C92.6 13.6993 93.0082 12.184 93.3793 11.281C93.7504 10.3656 94.2081 9.64201 94.7524 9.11011C95.309 8.56584 96.0759 8.08341 97.0532 7.66284L91.6909 0.482178H97.7768L105.291 10.8914C106.071 10.1863 106.664 9.3575 107.073 8.40503C107.481 7.45256 107.772 6.1661 107.945 4.54565L108.334 0.482178H113.456L113.01 4.87964C112.874 6.12899 112.627 7.23608 112.268 8.20093C112.021 8.85653 111.718 9.47502 111.359 10.0564C111 10.6254 110.53 11.2315 109.949 11.8748C109.38 12.5056 108.625 13.2416 107.685 14.0828L114.606 23.5085H108.557L99.2983 10.6687C98.6427 11.0522 98.1726 11.6088 97.8881 12.3386C97.7521 12.7097 97.6036 13.2664 97.4428 14.0085C97.282 14.7507 97.115 15.6785 96.9418 16.7917ZM149.099 10.1677V23.5085H128.002V0.482178H138.727C142.388 0.482178 145.029 1.23674 146.65 2.74585C148.283 4.24259 149.099 6.71655 149.099 10.1677ZM133.012 19.0183H144.071V10.7429C144.071 8.64006 143.675 7.15568 142.883 6.28979C142.092 5.41154 140.706 4.97241 138.727 4.97241H133.012V19.0183ZM159.62 0.482178V12.7097H154.61V0.482178H159.62ZM176.616 23.8796C173.202 23.8796 170.691 23.088 169.082 21.5046C167.474 19.9089 166.67 17.4597 166.67 14.157V0.482178H171.68V14.0457C171.68 15.8888 172.076 17.2371 172.868 18.0906C173.659 18.9441 174.921 19.3708 176.653 19.3708C177.914 19.3708 178.984 19.1296 179.863 18.6472C180.741 18.1524 181.409 17.2989 181.867 16.0867C182.324 14.8621 182.553 13.1674 182.553 11.0027C182.553 8.86271 182.312 7.26701 181.83 6.21558C181.347 5.15177 180.549 4.61987 179.436 4.61987C178.36 4.61987 177.234 4.97241 176.059 5.67749V1.13159C177.222 0.438883 178.626 0.0925293 180.271 0.0925293C182.918 0.0925293 184.817 0.958415 185.967 2.69019C187.13 4.40959 187.711 7.16805 187.711 10.9656C187.711 15.4434 186.821 18.7153 185.039 20.781C183.271 22.8468 180.463 23.8796 176.616 23.8796ZM208.641 10.1677V23.5085H203.613V10.1306C203.613 8.2133 203.198 6.87736 202.37 6.1228C201.553 5.35588 200.174 4.97241 198.232 4.97241H190.513V0.482178H198.529C200.966 0.482178 202.92 0.809977 204.392 1.46558C205.876 2.10881 206.953 3.14168 207.621 4.56421C208.301 5.97437 208.641 7.8422 208.641 10.1677ZM229.311 10.8542C229.311 8.87508 228.859 7.40308 227.956 6.43823C227.053 5.46102 225.631 4.97241 223.689 4.97241H219.403V9.94507H223.912V14.4353H214.337V0.482178H223.726C227.363 0.482178 230.047 1.32951 231.779 3.02417C233.511 4.71883 234.376 7.3536 234.376 10.9285V12.45C234.376 19.8223 230.585 23.5085 223.002 23.5085H214.541V19.0183H222.891C225.031 19.0183 226.633 18.4679 227.697 17.3669C228.773 16.266 229.311 14.6147 229.311 12.4128V10.8542Z" fill="white"/>
</svg>
