<svg width="463" height="71" viewBox="0 0 463 71" fill="none" xmlns="http://www.w3.org/2000/svg">
<path d="M10.8174 4.47876V9.67407C10.8174 11.1552 10.5326 12.6819 9.96289 14.2542C9.41602 15.8264 8.67546 17.3189 7.74121 18.7317C6.80697 20.1217 5.78158 21.3066 4.66504 22.2864L0.0507812 19.6204C0.89388 18.276 1.61165 16.8176 2.2041 15.2454C2.79655 13.6503 3.09277 11.8046 3.09277 9.70825V4.47876H10.8174ZM34.7773 41.7346L34.8457 70.1379H25.6172V38.4875C25.6172 36.9153 25.5146 35.5481 25.3096 34.386C25.1045 33.2011 24.7741 32.0504 24.3184 30.9338C23.8626 29.7945 23.2474 28.5413 22.4727 27.1741C21.8802 26.1487 20.9118 24.5878 19.5674 22.4915C18.223 20.3723 16.5026 17.7291 14.4062 14.5618H24.9678L27.6338 18.5608C28.7731 20.3153 29.7301 21.8648 30.5049 23.2092C31.2796 24.5536 31.9176 25.7955 32.4189 26.9348C33.0342 28.302 33.5013 29.5894 33.8203 30.7971C34.1621 32.0048 34.4128 33.315 34.5723 34.7278C35.6888 34.3404 36.623 33.8277 37.375 33.1897C38.127 32.5517 38.7422 31.6402 39.2207 30.4553C39.5853 29.5894 39.8815 28.5527 40.1094 27.345C40.3372 26.1373 40.5195 24.7017 40.6562 23.0383L41.374 14.5618H50.876L50.0557 24.2346C49.805 27.1057 49.3037 29.5667 48.5518 31.6174C47.8226 33.6682 46.763 35.4 45.373 36.8127C43.0716 39.137 39.5397 40.7776 34.7773 41.7346ZM76.5449 57.6624C70.2559 57.6624 65.6302 56.204 62.668 53.2874C59.7057 50.3479 58.2246 45.8362 58.2246 39.7522V14.5618H67.4531V39.5471C67.4531 42.9423 68.1823 45.426 69.6406 46.9983C71.099 48.5706 73.4232 49.3567 76.6133 49.3567C78.9375 49.3567 80.9085 48.9124 82.5264 48.0237C84.1442 47.1122 85.3747 45.54 86.2178 43.3069C87.0609 41.051 87.4824 37.9293 87.4824 33.9417C87.4824 29.9996 87.0381 27.0601 86.1494 25.1233C85.2607 23.1637 83.791 22.1838 81.7402 22.1838C79.7578 22.1838 77.6842 22.8333 75.5195 24.1321V15.7581C77.6615 14.482 80.2477 13.844 83.2783 13.844C88.1546 13.844 91.6523 15.439 93.7715 18.6292C95.9134 21.7965 96.9844 26.8778 96.9844 33.8733C96.9844 42.122 95.3438 48.149 92.0625 51.9543C88.804 55.7597 83.6315 57.6624 76.5449 57.6624ZM114.758 44.6057L112.639 56.9788H103.068L105.939 42.8284C106.76 38.9091 107.512 36.1178 108.195 34.4543C108.879 32.7681 109.722 31.4351 110.725 30.4553C111.75 29.4527 113.163 28.564 114.963 27.7893L105.085 14.5618H116.296L130.139 33.7366C131.574 32.4377 132.668 30.9111 133.42 29.1565C134.172 27.4019 134.707 25.0321 135.026 22.0471L135.744 14.5618H145.178L144.357 22.6624C144.107 24.9638 143.651 27.0032 142.99 28.7805C142.535 29.9882 141.976 31.1275 141.315 32.1985C140.655 33.2467 139.789 34.3632 138.718 35.5481C137.67 36.7102 136.28 38.066 134.548 39.6155L147.297 56.9788H136.154L119.099 33.3264C117.891 34.0328 117.025 35.0582 116.501 36.4026C116.25 37.0862 115.977 38.1116 115.681 39.4788C115.384 40.8459 115.077 42.5549 114.758 44.6057ZM177.17 14.3567C182.98 14.3567 187.207 16.0657 189.851 19.4836C192.494 22.8788 193.815 28.1881 193.815 35.4114V56.9788H171.77V48.7073H184.519V36.1292C184.519 31.3212 183.938 27.8805 182.775 25.8069C181.636 23.7105 179.619 22.6624 176.726 22.6624C174.06 22.6624 171.815 23.9954 169.992 26.6614C168.169 29.3958 166.472 33.953 164.899 40.3333L160.764 56.9788H150.92L155.534 39.2737C156.104 37.1318 156.651 35.2177 157.175 33.5315C157.722 31.8453 158.246 30.3984 158.747 29.1907L150.271 15.0403H160.49L163.703 21.0559C165.07 18.9596 166.939 17.3189 169.309 16.134C171.701 14.9491 174.322 14.3567 177.17 14.3567ZM258.62 32.4036V56.9788H249.357V32.3352C249.357 28.8489 248.617 26.3993 247.136 24.9866C245.655 23.551 243.08 22.8333 239.411 22.8333H222.082V14.5618H239.992C244.481 14.5618 248.081 15.1656 250.793 16.3733C253.527 17.581 255.51 19.495 256.74 22.1155C257.993 24.7131 258.62 28.1425 258.62 32.4036ZM231.994 31.2073V56.9788H222.766V31.2073H231.994ZM281.042 50.2112C280.131 52.5582 278.729 54.2786 276.838 55.3723C274.947 56.4433 272.201 56.9788 268.601 56.9788H266.276V48.7073H266.857C268.43 48.7073 269.683 48.4111 270.617 47.8186C271.529 47.2262 272.178 46.3261 272.565 45.1184C272.953 43.8879 273.146 42.0308 273.146 39.5471V22.8333H266.652V14.5618H290.441C297.004 14.5618 301.709 15.9517 304.558 18.7317C307.429 21.4889 308.864 26.0689 308.864 32.4719V56.9788H299.602V32.6086C299.602 28.9628 298.861 26.4221 297.38 24.9866C295.899 23.551 293.404 22.8333 289.895 22.8333H282.375V40.7434C282.375 44.6855 281.931 47.8414 281.042 50.2112ZM319.597 49.0833C325.157 47.2603 329.646 44.9589 333.063 42.179C335.433 40.2877 337.245 38.2255 338.498 35.9924C339.751 33.7366 340.378 31.3782 340.378 28.9172C340.378 24.8612 337.837 22.8333 332.756 22.8333H315.393V0.0695801H324.826V14.5618H334.294C344.548 14.5618 349.675 19.0393 349.675 27.9944C349.675 32.2782 348.661 36.2887 346.633 40.0256C344.628 43.7398 341.757 47.0553 338.02 49.9719C333.098 53.8 326.957 56.8079 319.597 58.9954V49.0833ZM395.407 48.7073V56.9788H355.861V48.7073H381.633V33.5999C381.633 29.6122 380.881 26.8209 379.377 25.2258C377.896 23.6308 375.355 22.8333 371.755 22.8333H357.468V14.5618H371.892C378.545 14.5618 383.365 15.9517 386.35 18.7317C389.357 21.5116 390.861 26.0689 390.861 32.4036V48.7073H395.407ZM413.078 14.5618V37.0862H403.85V14.5618H413.078ZM462.399 28.6438C462.399 32.9732 461.522 37.0178 459.768 40.7776C458.013 44.5374 455.438 47.9097 452.043 50.8948C448.671 53.8798 444.535 56.3749 439.636 58.3801V48.5706C443.92 46.5653 447.224 43.8993 449.548 40.5725C451.895 37.2229 453.068 33.6112 453.068 29.7375C453.068 27.1855 452.43 25.3967 451.154 24.3713C449.878 23.3459 447.645 22.8333 444.455 22.8333H424.665V14.5618H445.788C451.576 14.5618 455.791 15.6669 458.435 17.8772C461.078 20.0647 462.399 23.6536 462.399 28.6438ZM435.637 30.9338V70.1379H426.408V30.9338H435.637Z" fill="white"/>
</svg>
