<svg width="146" height="28" viewBox="0 0 146 28" fill="none" xmlns="http://www.w3.org/2000/svg">
<path d="M10.2766 23.238C9.69067 24.7468 8.78979 25.8528 7.57397 26.5559C6.35815 27.2444 4.59302 27.5886 2.27856 27.5886H0.784424V22.2712H1.15796C2.1687 22.2712 2.97437 22.0808 3.57495 21.7C4.16089 21.3191 4.57837 20.7405 4.82739 19.9641C5.07642 19.1731 5.20093 17.9792 5.20093 16.3826V5.63794H1.02612V0.320557H16.3191C20.5378 0.320557 23.5627 1.21411 25.3938 3.00122C27.2395 4.77368 28.1624 7.71802 28.1624 11.8342V27.5886H22.2078V11.9221C22.2078 9.57837 21.7317 7.94507 20.7795 7.02222C19.8274 6.09937 18.2234 5.63794 15.9675 5.63794H11.1335V17.1516C11.1335 19.6858 10.8479 21.7146 10.2766 23.238ZM41.4998 0.320557V27.5886H35.5671V0.320557H41.4998ZM54.2878 19.6345L52.9255 27.5886H46.7732L48.6189 18.4919C49.1462 15.9724 49.6296 14.178 50.0691 13.1086C50.5085 12.0247 51.0505 11.1677 51.6951 10.5378C52.3542 9.89331 53.2625 9.32202 54.4197 8.82397L48.0696 0.320557H55.2766L64.1755 12.6472C65.0984 11.8123 65.8015 10.8308 66.2849 9.70288C66.7683 8.57495 67.1125 7.05151 67.3176 5.13257L67.7791 0.320557H73.8435L73.3162 5.52808C73.155 7.00757 72.8621 8.3186 72.4373 9.46118C72.1443 10.2375 71.7854 10.97 71.3606 11.6584C70.9358 12.3323 70.3792 13.05 69.6907 13.8118C69.0168 14.5588 68.1233 15.4304 67.01 16.4265L75.2058 27.5886H68.0427L57.0784 12.3835C56.302 12.8376 55.7454 13.4968 55.4084 14.3611C55.2473 14.8005 55.0715 15.4597 54.8811 16.3386C54.6907 17.2175 54.4929 18.3162 54.2878 19.6345ZM101.068 23.7654V27.5886H78.0183V22.2712H92.7839L76.2605 0.320557H83.3796L91.7073 11.6145C92.6741 11.1458 93.3699 10.4426 93.7947 9.50513C94.2341 8.56763 94.5417 7.198 94.7175 5.39624L95.2009 0.320557H101.287L100.826 5.44019C100.635 7.46167 100.313 9.0437 99.8591 10.1863C99.405 11.2996 98.7532 12.2444 97.9036 13.0208C97.054 13.7971 95.8894 14.4856 94.4099 15.0862L101.068 23.7654ZM113.219 0.320557V27.5886H107.286V0.320557H113.219ZM127.874 23.238C127.288 24.7468 126.387 25.8528 125.172 26.5559C123.956 27.2444 122.191 27.5886 119.876 27.5886H118.382V22.2712H118.756C119.766 22.2712 120.572 22.0808 121.173 21.7C121.759 21.3191 122.176 20.7405 122.425 19.9641C122.674 19.1731 122.799 17.9792 122.799 16.3826V5.63794H118.624V0.320557H133.917C138.135 0.320557 141.16 1.21411 142.991 3.00122C144.837 4.77368 145.76 7.71802 145.76 11.8342V27.5886H139.805V11.9221C139.805 9.57837 139.329 7.94507 138.377 7.02222C137.425 6.09937 135.821 5.63794 133.565 5.63794H128.731V17.1516C128.731 19.6858 128.446 21.7146 127.874 23.238Z" fill="#C68AA2"/>
</svg>
